<mxfile host="app.diagrams.net" modified="2023-05-31T02:01:29.162Z" agent="Mozilla/5.0 (Windows NT 10.0; Win64; x64) AppleWebKit/537.36 (KHTML, like Gecko) Chrome/113.0.0.0 Safari/537.36" etag="mp-bwo8VU6ze9ltzA8FU" version="21.3.6" type="google">
  <diagram id="7nUK5_NUhlmWhAcMHIQU" name="PÃ¡gina-1">
    <mxGraphModel dx="1434" dy="739" grid="1" gridSize="10" guides="1" tooltips="1" connect="1" arrows="1" fold="1" page="1" pageScale="1" pageWidth="827" pageHeight="1169" math="0" shadow="0">
      <root>
        <mxCell id="0" />
        <mxCell id="1" parent="0" />
        <mxCell id="ATsu10qYxsgwXxZse8Qx-1" value="" style="edgeStyle=orthogonalEdgeStyle;rounded=0;orthogonalLoop=1;jettySize=auto;html=1;fontSize=8;" parent="1" source="ATsu10qYxsgwXxZse8Qx-2" edge="1">
          <mxGeometry relative="1" as="geometry">
            <mxPoint x="275.47" y="185.04761904761904" as="targetPoint" />
          </mxGeometry>
        </mxCell>
        <mxCell id="ATsu10qYxsgwXxZse8Qx-2" value="" style="shape=image;verticalLabelPosition=bottom;labelBackgroundColor=default;verticalAlign=top;aspect=fixed;imageAspect=0;image=data:image/png,iVBORw0KGgoAAAANSUhEUgAAAkoAAADqCAYAAABdoGpeAAAgAElEQVR4nO3de3hU9YH/8c/kNpP7BQKBENCgYgQrF30odR/EdbVUqTdYqmirKK60skW7FettXSui4q2uoYUVxdoWW1ZaUfFaq/Jbq1S5tSCCEgkhGJKQTCbJZCa3+f1xMpOZJAdymTMzhPfreXge5sw53+/3HHie+Tzf27H5fD6fAAAA0E1ctBsAAAAQqwhKAAAAJghKAAAAJghKAAAAJghKAAAAJghKAAAAJghKAAAAJghKAAAAJghKAAAAJghKAAAAJghKAAAAJghKAAAAJghKAAAAJghKAAAAJghKAAAAJghKAAAAJghKAAAAJghKAAAAJghKAAAAJghKAAAAJghKAAAAJghKAAAAJghKAAAAJghKAAAAJghKAAAAJghKAAAAJghKAAAAJghKAAAAJghKAAAAJghKAAAAJghKAAAAJghKAAAAJghKAAAAJghKAAAAJmIuKHn3rtd9c6eq8LQzdMPL1dFuDgAAOIFZG5Qq1uuG085QYY9/HtXWrufXvqM7bi/RzNWbVbL3Mz333aGWNi9i2qr10eolmjN9Use9T9VFVy7Wii310W6ZpO1a1tO/RVSUaPXMSbpm3cEBlVK1fqEKl28PU5sAACeyBMtrmP6ANq+erdxenFr1wXpVXXOPpmV0HIi3smER4t6uZVfeI9dNj+pX7yxXrt047C3dra1t0W1a7MnXtJt+rIJJvfnfAgCA9WJq6K1s7yaNHztqYIXsXas5q2KnN2HXmiX68oaVenh2USAkSZJ9TJGmFaZHr2Exya7xs+fr24X2Y58KAEAExFRQCov6cm2ti3Yj/Eq09d18zTx3gOEPAABExeALSjHHJa832m0AAAD9ERNBaetyY4L3nNXS6qv9k70Xal1F0EkVm7V6yTxNnWh8P3HuEq3+OGhVnH/i+NVrpNXzOieNd0zqrVq/UDesN1tFZz6huerDNbr16ukq6piEPWfJGn1U1ds7K9Tkb3u1+g+b1eus1FavXa89qh/ONFb+FU6crhuWv6Yv3V3a1c/7GbCOienX+Nt32lRdNH+pfrPdfIVi1fa1um/+LE30n3/Lo3plr7eHe6jWugVd/t23PGr8G7bVa9f6pYEJ8UXT5+m+9SW9f64AAPRDTASlyUs+U8nez/TSAmnBi8bfS/au1Ny8jhPK1+uGuWtl/8Eqbd5ufL991Tx5n7pEt77RsXIsb7ae2/uZSl6cLy1Y21HGZypZMrHf7Spbv1Cz1tl10y83affez1Syd7Oe+16zHp+1RG/V9q6M8d9/VHP//mPNuec1lR1z8rZXWx+/Xj/7x1TdtcFY+Vey5R3ddcZm/ejKVdoV7cnf7u1adsn12pA9X7/a2NG+vZv16tJZ8q65Ujes775arWz9Qs1a49VlD72m7R3nv710lupWLFTxP3obc1zaWny7NmRfr9+9t00lez/T7neWavw7V+uHPdQ5KBYBAABigvVBadO9mtrT9gC9Xb7dtlsrblyv859/St+fEDT5OXuibvnlvfIuX2tNgNi9Sjf+Ybp+98Q8jc/uPJwx5WY9d69Xy9bu7l05KUW65bcbdVfuWl30rfla8aF5z4vrjXt1g3uxXrpzugr885nj7Tpl1gN68rvrVfxGNLcTqNdb99ws713r9fDsImUEhRF7/kQteOJ5nf+HhVoR/FgCz3C+JucFHc8u0veXL1bGx5t7V/Xa27Vh0lO6659Hye6v116ouQ/dK3vxRu3qcnpuwViNH5HRtRQAAPrM+qA0/QFt9vfuBP/pZU+P9+P1Kv7mQs0t7OHL7Av1vfPW6/294W2y5NVHL63UtEWzdUoPvRMZF87WjJc2dfuBNhU/VNMWr9Xm52epbPmFmjh/jba6up50UBvW7NN//GC6elrzNf471+vgXz5Wt8sipfRVPXNwsRZMN1mRFl+ouYu+qeJXOwPw1lef07TFPT9D2Sdq7g1Te1d39g2a21O92RN1fsE27aro/lVuCkEJADBwMTH0djRf7tykaWee0WN4kOwaNTZdW/aEewfvEm39y1SNP80kFNhH6ZTsbdrX67lKhoyi2Xr4j5v0uwu364YLF+uV8qAvXbu1Zfs3Nb6nQChJ+aM0+S+f6cu+VRk2rs+2q+qCSSo4yjn2sUWavHefjMdSol0fT9IUs2coyRHfy20AzivSKT2XICX1rggAAPrD+g0nB8hbd1DvPz5dhXeanzPjobDXqrryTXp8+hn6mek50/Vwf4b84tM1ft5TetW+UBctf00znpqlDElyu+TSGs05bc1RLp6vy/pRZTh43S6NHXqMjSDjFRRoXSrbOVbjw7F3ZEqGSVAGAMBaMR+U7JmjtOCFt3XXNwdYULxUVe+S1JvXotiVmT9fv/vz7Zpm0cTgglnzNPfOTdq6fJZm2CWlZCjjmw/ogxdmH7XXJqBP9zNw9pQM7TtQdfT62hSyCs2e4pXLK0U85Uy5Xc9NiXCdAIBBKeaH3gpGT9RHX5QMuJzcgrHaddBkrMxVpcqQA6N0yqSP9WXpgKs1Z8+QXXbZ/VE1Y5ROLdutfb1cCNa3+xm4jHETlfHuNpUd5RzX3zfr4DlndLyuZqwm/PMm7frC/PzK6oH/uwIAYKWYD0oZ/zxbk3+3Xh+5TU7oOvyVV6hpFVXdJz2fOlGXvr29xxVyX25Yo1dCjqRrxuxJ+s3R9j8a6Eq7nZv11neKND7QY1WkS2/6TC9sOMoLYYPr7NP9hEHhRbopZ61+87HJE2kr0YY1B7VgZlHHgXRNu3CinnlpU8/P0L1J6341sJffAgBgtZgPSrJP1V0PSsuuflTvlwf95LZ5VfbhGt169arQjRWHjtIpH27W1o5gFdgVO2O6fnD5q7pt2SZV+cNFW712rb9Xq1Nma0HXas+9XQ/HL9echzapLPiX3n1QH61eojkre7O9wXatWLhK75dUyxuo06uyD1fpmh9t0y1LOuYndSj43nLN/Ms8/XDtbrmCApC3ardeWT5ft74aNGm9j/czcEN16b2L5Xponn62vkv7yjdrxYIf66/zluv7Y4KaeNGP9fPae7o9Q1fJa1r2k20av3h62FspSV+unqWiha+pj3PtAQDoJnr7KJ12hpZt6V0R9im366VHi/TXZbM7dnc+QxMvWajHd4/VotU3a3LIyVO14L+k4vMnaeLU6bpmnX94x67Ji57X/SNe0w/P79jd+fzbtcE+X/fPHttTrZq8ZK2ePHOzll0WtAv1Lf+tXYUL9dzC3mxvUKRL56brvcdv1ne/1XHf35qtn21I0qJ1KzU3v8vp8aM0d8Uf9QP3Gt3Q0cbCidM1579ek+eCR/WLy4PnB/X1fo5mjeb05t8o/0I9/OJTmlnbpX3LNqlgyYv61eVd3mkXP0qXPrFRD5+2Sbdd2HH+1Fm64yXpsuWLdT4r+AEAMc7m8/l80W4ETkxl6+brvqRH9dzlkZmQDgBAX8X+0BsGqXp99nG5powjJAEAYhdBCdFR8qqe+Wy2ZpwW7YYAAGCOoATrbF+vZeu3qyx4xWKbV2UfPqU5V7+m8x+7PmjVHwAAsYc5SrBOW7W2vvw7vfDSer21pVpeSfa8Is2YNU83/WB26ItyAQCIQQQlAAAAEwy9AQAAmCAoAQAAmCAoAQAAmCAoAQAAmCAoAQAAmCAoAQAAmCAoAQAAmCAoAQAAmCAoAQAAmCAoAQAAmCAoAQAAmCAoAQAAmCAoAQAAmCAoAQAAmEiIdgOOprVdammT2tqj3RIAABBp8XFSYryUEMVunZgKSrVuydnkU71HamyWWtui3SIAABBtCfFSapKU7pCykm3KTolc3Tafz+eLXHXdNXilwy6fKhsIRgAA4NgS4qVhadLwDJvS7NbWFbWg1OCVymp9qm6IRu0AAGAwGJomFWRbF5iiEpS+OuLTwdqev3M1SXVNRpBqapG8rcxRAgDgRBQfJ9kTpOREKc0uZSZLGck9nzsqWzp5iC3sbYhoUGrwSl9U+tTgDT3uaZEqXFJVvZScJI0ZIo3OtmlYuvFQkhKk8N86AACIVT5Jza1G50llvXSg1qfSI1JTs5SbLuVlSI7E0GvS7NKpw8LbuxSxoFTdIO057FN7UG0tbdKBGuMBTMiXzh5thCMAAICeVNZLnx7waWe5NCxdGp1jrIzzi7NJ44bbNDQtPPVFJChV1hshKdhhl1RSbQSkC8bZZI+p9XcAACCWeVuld/cYgalwqDQ8I/T7ccPD0/lieVCqbpB2V4RWsa/KmH80a4JNBTlW1g4AAAazshrptZ0+JSdKY3NDvyvKG3jPkqVBqcEr7TgYOty2+2tj3tHcs23MOwIAAAPmk7TuU5/qmqSiEZ3H42zSWaMGNmfJ0r0uv6jsHpKGpUvfIyQBAIAwscnIFsPSjazh1+4zsshAWBaUvjoSurptX5XRk3T5RCISAAAIv8sn2pSZbGQOvwavkUn6y5Kg1OBVyD5Jh13GnKS5ZxOSAACAdeaebVNTi5E9/A7WqtvWRL1lSVAqq+1Mbi1txuq2WRMYbgMAANayycgcJdVGBvELziZ9Efag1OBVyGtJDtQYWwCwug0AAERCQY6RPQ7UdB6rbuhfr1LYg9JhV2di87QYeyhdMI6+JAAAEDkXjLOpst7IIn7BGaW3wh6UKoN6kypcRqILx2aShaedMfBCAADACcGeYGSQiqC5SsEZpbfCGpRq3VJr0HhgVb3xWhIAAIBIO3u0TVX1nZ9b24ys0hdhDUrOps4uLVeT8YJb3t0GAACiYVi6kUVcTZ3HgrNKb4Q1KNV7Ov9e1ySNGRLO0gEAAPpmzBAjk/gFZ5XeCGtQamzu/HuDVxqdHdlhN6ezTjcv+om2bNtxzHM3bHxT9y19RB5PPzdWOI5t2bbjqPfel+cIAEAsG51tC1ntFpxVeiNs73prbZc+KuksausB6epzwvPmXkk6ZdwEXfP97+uTLdtCjj/wn3dqyqSzBlS2x+PVQ4/9QpdeMnPAZcU6p7NOv/39S1pw/bVyOAbw8hsAAI4DlfXSi5/4NHl057FphTYl9LKrKAzr0QzBmzpJkrfVeGVJOKWmpKj4yUdUeNIYScaP/h333K8zJ4zXooU3hreyQarWWadrr5pDSAIAnBAyk41MEqylTb0OSmEbemtr7/45KWwxrGdZWZl6ZOl9+qq0VCX7S+V01uk/7vxPlewvldQ5hHTxFVfp5kU/0Tt/+UDFK5+VZAy9Fa98Vk5nnRb/9E59smWb7v35Q4EhqeBrr7rupkCZXZXsL9VV190UqMPprDvq8eKVz4YMaW3ZtiPQpmBOZ53uW/pI4Lqu1/ZUfsn+Ui1/4unAkJrH49XyJ54OtH3Dxjd1y21LNG/+zSFt2rDxTS1/4mndt/QR3bzoJyo9UGb6HC++4qoe2wsAQCxKSug5o/SWxVHGellZmTp5zBj9Y9dunXfutMBxj8erJ4tX6t9uvE5TJp0V0vvU9fqnHnsoZOit67Ul+0u1YtWzuveO/1BWVmbgWqezTitWPatl998T6OXq6fiWbTv0ZPFK3fnTW8Nyz2b11jidptd4PF41NTXpjy/+Wg6HXcUrn9Vvf/9SoCdu646/B8oLDmf+Z3Hxdy7SZZfMlGQEtg0b3wx8BgBgsApbj1J8XPfPza09nxtuBQX53Y7t2v25JGl80emSjED0bzde16vyul47Mi9Pw3NzuwURh8OhtNRU1daGHv/gw4908pgxgRAz9uSTJEkeTx+n2pswq/fo19h11ZwrAkNu06aeHfL9P037Zkjo8vM/i29fcH7g2MUz/0V79nxxQk6EBwAcX5pbe84ovRW2HqXE+NDP9gRjOV4k9lEqKyvv9sMvSblDh/Z7Ls4nW7bpyqtDg9UF50+XgsKEw2HXbYsW6o577ldZ+aGQieWvv/WOXn/rncC5GRnpR+3x6Yuj1Xs0W7bt0L0/fyjw+eJvX9ir+ro+x5ysLDW63fJ4PMx1AgDEtLqm7m8I6ZpZjiZsQSkhTkqI79yZOznRmGludVAq2V+qr0pLde1Vc7p9V1VdLY/HG/gxP3jo616Xe/G3L+zVBPGsrEytKn5CTmedHnjkcWVnZ0mSbl5wvaVDU2b1mtmybYde2fhmYOhty7Yd+mjzp72qq+tzrHE6lZqSIofDMeD7AADASpX1RibxS4jv/URuKcz7KKUmdf49zS4dqA3LzgOmSvaX6q77lmre3Nkhc4ckY7irouJwYOjI6azT62+83atyx558kv6xc1ef9hEKHg47c3yRNr7xdo8TwAsK8gMBxems0/88+2vT8iRp31f7JRlBJ7iHqqd6c7KydLiqSocqKiRJb737nrbu+LskIyQG9wz1NiT5n+Nb774XOPb6m3/WuHGn0psEAIh5B2p9Sgv6uQrOKr0R1snc6Y7O3S8zk6XSI+EsXWp0u7XotjsCnwvyR2rlU491C0mS0eNyx08X6677lsrlqldB/kjNufIy7dn7ZbdzHQ67Lr1kpu79+UM6Z8ok3fnTW0OulRQ4HhwO/BPEy8oPSTJ6kfxDYDffeF1IW/09VOedO0133HO/Lr7iql63yX+9f6jsaPVO/6dvBer9wTXf0+SzviHJmGP00GO/0MVXXBUorzf8KwvvuOd+rVr9fKA+JnIDAI4HpUek0dmdn9P7OBgStg0nJeNFczsPdRb3yX7p2qnh2XSy8LQzVLL3swGVsWHjm5LEjzwAACeAynrpt5t9OuekzmMTRtqUndL7MsI69JadYoz9+eWmS58esHb4rbdK9pdq4xtv68zxRdFuCgAAiIBPD/iUG9RZkxCvPoUkyYJ9lIalSYc6tuHJy5C2lUkXjOs+49xqXYenJON1Jz0tgQcAAIOLt1XaWS5NKug8Niyt7+WEdehNMl6Gu62ss8h9VdKwDOni8ZF9QS4AADhxvb7Lp0qXNDa389ikAlvIxO7eCOvQm2SsdhsalNhG5xiJrqwm3DUBAAB0V1ZjZI/ROZ3HhqapzyFJsiAoSVJBdmfvUWK8VDhUem2nT7ExWwkAAAxWPhmZo3Bo6MaSwdmkLywJSml2aVTQUrzhGcZmT+s+JSoBAADrrPvUp+REI3v4jcruX2+SZFFQkqSTh4SOA47NNfZYenk7YQkAAITfy9t9qmsKnZeUZjcySX9ZFpQk6dRhNsUFta1ohLGnwR8+ZRgOAACEh09GtqisN7KGX5zNyCIDEfZVb11VN0i7K0Kr2FclNbVIsybYVJBjciEAAMAxlNUYc5KSE0N7kiSpKM8WssCsPywPSpLRi7TncGg1h11SSbU0IV+6YJwt4vssAQCA45e3VXp3j087y41FY8FzkiRp3PDwvBkkIkFJMnqW9hz2qT2otpY26UCNEaQm5Etnjw7PTQEAgMGpst7YcXtnuTQs3dgCIHh1W5zNCEkD7Unyi1hQkozNKL+o9KnBG3rc0yJVuKSqeik5SRozRBqdbYSmzGQpKUFiu0oAAE4cPknNrcZCsMp66UCtT6VHpKZm4xVpeRmSIzH0mjS7MSepvyvcehLRoOT31RGfDtb2/J2ryXgoDV5jHpO3VWprj2z7AABA9MXHGa9AS040QlBmspSR3PO5o7IHtrrNTFSCkmQEobJan6obolE7AAAYDIamGZtJhrMXKVjUgpJfg1c67PKpskFqbYtmSwAAwPEgId54we3wDOsCkl/Ug1KwWrfkbPKp3iM1NhOcAACAEYxSk6R0h5SVbFN2SuTqjqmg1FVru7EyjjlKAACceOLjjBVtCZZuj310MR2UAAAAoimKGQ0AACC2EZQAAABMEJQAAABMEJQAAABMEJQAAABMEJQAAABMEJQAAABMEJQAAABMJES7AV21tLTK1ehWo9sjj9crb3OL2traxb6YAACcOGw2m+Lj42RPSpTDbldqikMZqSlKTIxsdImZnbmPOF2qqXXJ421WelqK0lKSlexIUlJiohIS4mWz2aLdRAAAECE+n0+trW1qbmlRk6dZDe4m1Te45bAnKSc7Q0OyMiLSjqgHperaOh2urlWyPUlDsjOUmZ4WzeYAAIAYVlffoCO1LjV5mzV8aLaGZmdaWl/UgpLb41X511WKi7MpLzdHqSnJ0WgGAAA4DjW6m1RRVaP2dp/yR+QqxWG3pJ6oBKUjTpcOlB9WwYhhGppjbRIEAACDV3VNncq+rtTo/OGWDMdFPChVVNWotq5eY/KHKyXZEcmqAQDAIORu8qi0/LCyM9OVl5sT1rIjGpQqqmpUV9+gwoKREZ+1DgAABq+WllaVlB1SZnpaWMNSxPZROuJ0qbaunpAEAADCLjExQYUFI1VbV68jTlfYyo1IUHJ7vDpQflhj8ocTkgAAgCUSExM0Jn+4DpQfltvjDUuZEQlK5V9XqWDEMOYkAQAAS6UkO1QwYpjKv64KS3mWB6Xq2jrFxdlY3QYAACJiaE6m4uJsqq6tG3BZlgelw9W1YZ+BDgAAcDR5uTk6XF074HIsDUpHnC4l25PYTBIAAERUakqyku1JA57YbWlQqql1aUh2ZN7FAgAAEGxIdoZqamM0KLW0tMrjbebdbQAAICoy09Pk8TarpaW132VYFpRcjW6lp6VYVTwAAMAxpaelyNXo7vf1lgWlRrdHacxN6sbprNN9Sx+R0znwmfgAAODo0lKS1ej29Pt6y3Z/9Hi9GpKVHr7yPF499Ngv9MmWbYFjF3/7Qi1aeGPY6gAAAINLsiNJNXX9n6dkWY+St7lFSYmJYS0zNSVFxU8+otf/9Hv98cVfq6q6Whs2vhnWOgAAwOCRlJgob3NLv6+3rEepra1dCQnxVhUvh8OuSy+ZqY82fypJKl75rF5/6x1J0jlTJunOn94qh8Oukv2luuu+pXK56lWQP1KPLL1PWVmZIeffvOB6lZWVa9rUszVl0lmB3qvJk87SZZfMlMfj1X//8n8058pLVXjSmJBrg8ss2V+qFaue1fii0/XSn17RA/95p6ZMOivk/Nv+/YeWPRMAABAqISFebW3t/b8+jG0J4fP5ZLPZrCo+hNNZp9yhQ/T6n34fCDlvvfuezjt3mlaselbL7r9HhSeNCZzv74V6/U+/Dxzbsm2HPtr8aUdQMsYyjxypkSQdqqiQJI3My9OGjW+qqrpaf3zx13I47NqybYeeLF6pO396qySp/NDXmv5P3wqU3bWu4pXPqqLisJWPAwAAdLDZbPL5fP2+3rKht4E27Ficzjr9z7O/1rSpZysrK1Pfm3O5JKOnafKkszr+7lBaaqpqa50h144aOUJV1dXyBL0wLzs7S1+VlsrprNO+r/ZrzOgClR4ok9NZp9pap8aNO1Uej0eb/u+vuu7aq+Rw2CVJ44tOV2pKSiBM5Y8cofPOnRZo46b/+6sunvkvgXquvWqO8vKGW/ZcAABAp4F23FjWoxQfH6fW1jYlJoavika3W4tuuyPw2T+0JRk9N6tWPx/47uYF18vhsOu2RQt1xz33q6z8UOD8KZPO0sFDX+vKq68LDNONzMvT8Nxc1Tid2vGPXZox/Vy9v+lD1Tid+mjzp5o29WxJUlpqqnKysgL1OBx2paSkqLbWqezszuN+Xc8HAACR09rapvj4/vcLWRaU7EmJam5pCWtQ8k/mDh5Gk4yQVFZW3m24S5KysjK1qvgJOZ11euCRx5WdnaXCk8bosktm6rJLZmrDxje1+vnfatHCGzVu3Kn626dblZKSrJF5eRoyJEd/+3SrJGnsySdJkhoaG1XjdCory3jJr8fjldvt7jEk9XR+jdOphsbGsD0TAABgrrmlRfak/i8us2zozWG3q8nTbFXxIcrKylVQkC/JCC5bt+3o3p5eDMONGjlCf3n//8ntbpLDYdeZ44v0t0+M4JSVlamsrEydPGaMfv3b3weG7Xbt/lyNbrdG5uV1q9N//utv/jlw7PU3/6yG+oZw3j4AADDR5GmWw27v9/WW9SilpjhU3+DW0JxMq6oIuPaqObrjnvu1avXzyshI1+SzviHJmCPkH3aTjOG4KZPOChmm869aczjsGnvySbJJOuvM8ZKMydvp6WkaMiQnUNeihTeqeOWzuvLq6ySFrrDryYLrr9VDj/1CF19xlSRj1VtVdbUlzwEAAIRqcDcN6E0hNp9FM65bWlr1+b4DOvP0QiuKBwAAOKZ/fF6i08eO7vdUIMuG3hITE+SwJ6mOYSYAABAFdfUNctiTBjRf2rKgJEk52Rk6Utv/bcMBAAD660itSznZGQMqw9KgNCQrQ03eZjW6m6ysBgAAIESju0lN3mYNyYrhoCRJw4dmq6KqxupqAAAAAiqqajR8aPaAy7E8KA3NzlR7u0/VNXVWVwUAAKDqmjq1t/s0NHvgK+8tD0qSlD8iV2VfV8rd5IlEdQAA4ATlbvKo7OtK5Y/IDUt5EQlKKQ67RucPV2n5YbW0tEaiSgAAcIJpaWlVaflhjc4frhST/Q37KiJBSTImdmdnpquk7BBhCQAAhFVLS6tKyg4pOzN9wBO4g1m24aSZiqoa1dbVa0z+cKUkOyJZNQAAGITcTR6Vlh9Wdma68nJzjn1BH0Q8KEnSEadLB8oPq2DEsIi84gQAAAxO1TV1Kvu6UqPzh4e1J8kvKkFJktwer8q/rlJcnE15uTlKTUmORjMAAMBxqNHdpIqqGrW3+5Q/Ijdsc5K6ilpQ8quurdPh6lol25M0JDtDmelp0WwOAACIYXX1DTpS61KTt1nDh2aHZQuAo4l6UPI74nSpptYlj7dZ6WkpSktJVrIjSUmJiUpIiJfNZot2EwEAQIT4fD61trapuaVFTZ5mNbibVN/glsOepJzsDEuG2XoSM0HJr6WlVa5GtxrdHnm8XnmbW9TW1q4YayYAALCQzWZTfHyc7EmJctjtSk1xKCM1ZUAvuO1XO2ItKAEAAMSKiO2jBAAAcLwhKAEAAJggKAEAAJggKAEAAJggKAEAAJggKAEAAJggKAEAAJggKAEAAJggKAEAAJggKAEAAJggKAEAAJiI7JvljqGmUXr3c/nxFOMAAAX7SURBVJ/e2yNtPeBTuVNq8Ept7dFuWaf4OCnNLuVnSZNH23T+OOmC023KSY12ywAAQLjFxEtx39jp04r3pQ/3+ZSaJLk80W5R72U4pMZm6dyxNt0yQ/rOBFu0mwQAAMIkqkHp3c99uvtlo+eorilarQifzGSjp+nBy2264HQCEwAAx7uoBaUfrfXp5e0+NXijUbu10uzS5RNt+uU8whIAAMeziAelLyuluc+065BTcjdHsubISkmSRmZJ626K0ynDot0aAADQHxENStvKpEtXtA+KYbbeykyWXrklTpMKot0SAADQVxELSl9WSuc/cWKFJL/MZOm9n9CzBADA8SZi+yjNfebEDEmSMVF97jMxtMcBAADolYgEpR+t9emQMxI1xa5DTuM5AACA44flQendz43VbYN54nZvuJull7f79O7nhCUAAI4Xlgelu18enFsA9EeD13geAADg+GBpUHpjp7GZJDqVO43nAgAAYp+lQWnF+4Njx+1wqmsyngsAAIh9lgWlmkbj3W3o7sN9PtU0RrsVAADgWCwLSu9+brzgFt2lJolJ3QAAHAcSrCr4vT2Sy9OPC+fFyTU16HOTT3f/zKenZdOrD9t0nsunjGXBIcOmTx6WXviZT1oUpwdP7V5k3Rc+FRTLuD658/ieze06Z23P9b+wuF2LetWuvnN5jOfzr1P6cTEAAIgYy3qUth4YQI/JYZ8yFrcbf7qEkboMmz6Z1/NlTxd3XLPYpz0ywk7G4nYVFHe25YM/dZzzJ5/ypsapuEsZxSdJew5Lly3q4YW2Qe16wWXTkp7O6aUBPR8AABARlgUlq1a7bf+7T3nfsOnfB1rQ+9L2JmnMjOCDNk3N8OmFv/qkUTpqHYv2S5kZ/a+e1YAAAMQ+y4KSZXsnHfJpwwB7cyRJM6SJ8unt4BVo82zKOyg9/b60XTZdNMP0aqPnaX//e4XYWwoAgNhnWVBqG8irzYbb5HoqzvhzV/dAtGiZTxWn2vTqUYKMmfOu6Ch3prQ8ZFjPple/IW3f6ZPk09sHpYkTutQd1K6p+3uY39QHA3o+AAAgIiwLSvEDKTl4jtKynnptfDpns3Tet/req2TMUfJpT3KXHqMuPUxP7+xh+K2jXXd/IY07aWA9WgN6PgAAICIs+7lOs1tVcoe1Pn1wlIndR9c9aP37BJsyk2160N+TdYXxuafht6eLjbr706PlZ/nzAQAAA2ZZUMrPsqpkP5+++6YxsTuvP5eHBC2bLhoVtCKu48/dX5j1Wvn03b9L583s/6Ry658PAAAYKMuC0uTRAxiaCp6j9FT3JfwB7/u0wSVl9qsSI+yMmxqn4p4mdssYfqsbbuu5/rU+faD+Tyof0PMBAAARYfP5fJZs6PO/W3y6bZ2vf5tODnIZDunJuTb96xTCEgAAscyyHqULTrepsdmq0o9vjc3G8wEAALHNsqCUkyqdO5Yw0JNzx9qUkxrtVgAAgGOxdJH6LTOkzORjn3ciyUw2ngsAAIh9lgal70ywsbqri/ws47kAAIDYZ/m2hw9ebmPPoA5pduN5AACA44PlQemC0226fKJNKUlW1xTbUpKkyyfamMQNAMBxxLLtAbqa/GC7vqyMRE2x6ZRh0ta7eW8JAADHk4j9cq+7Ke6EndidmWzcPwAAOL5E7Nf7lGHSK7eceGEpM9m471OGRbslAACgryI29Ob3ZaU095l2HXJK7kG8IWVKkjQyy+hJIiQBAHB8inhQ8vvRWp9e3u5TgzcatVsrzW5M3P7lPCZuAwBwPItaUJKkdz/36e6XfSp3SnVN0WpF+GQmG/skPXg5q9sAABgMohqU/N7Y6dOK96UP9/mUmqTj6kW6GQ7j3W3njrXplhlsJgkAwGASE0HJr6bR6GV6b4+09YDR09Tgldrao92yTvFxxtBafpY0ebRN548z9ori3W0AAAw+MRWUAAAAYgmb+wAAAJggKAEAAJggKAEAAJggKAEAAJggKAEAAJggKAEAAJggKAEAAJggKAEAAJggKAEAAJggKAEAAJggKAEAAJggKAEAAJj4/2PTYihVKO3xAAAAAElFTkSuQmCC;" parent="1" vertex="1">
          <mxGeometry x="160" y="170.10000000000002" width="75" height="29.95" as="geometry" />
        </mxCell>
        <mxCell id="ATsu10qYxsgwXxZse8Qx-3" value="Login" style="text;html=1;strokeColor=none;fillColor=none;align=center;verticalAlign=middle;whiteSpace=wrap;rounded=0;fontSize=8;" parent="1" vertex="1">
          <mxGeometry x="170" y="140.0999999999999" width="49.85" height="32.81" as="geometry" />
        </mxCell>
        <mxCell id="ATsu10qYxsgwXxZse8Qx-4" value="Home com solicitaÃ§Ãµes agendadas&amp;nbsp;" style="text;html=1;strokeColor=none;fillColor=none;align=center;verticalAlign=middle;whiteSpace=wrap;rounded=0;fontSize=8;" parent="1" vertex="1">
          <mxGeometry x="290" y="137.54" width="120" height="30" as="geometry" />
        </mxCell>
        <mxCell id="ATsu10qYxsgwXxZse8Qx-5" value="" style="edgeStyle=orthogonalEdgeStyle;html=1;verticalAlign=bottom;endArrow=open;endSize=8;strokeColor=#ff0000;rounded=0;" parent="1" source="ATsu10qYxsgwXxZse8Qx-18" edge="1">
          <mxGeometry relative="1" as="geometry">
            <mxPoint x="160" y="184.67000000000007" as="targetPoint" />
            <mxPoint x="100" y="184.67000000000007" as="sourcePoint" />
          </mxGeometry>
        </mxCell>
        <mxCell id="ATsu10qYxsgwXxZse8Qx-6" value="&lt;font style=&quot;font-size: 22px;&quot;&gt;ConfirmaÃ§Ã£o&lt;/font&gt;" style="text;html=1;align=center;verticalAlign=middle;resizable=0;points=[];autosize=1;strokeColor=none;fillColor=none;" parent="1" vertex="1">
          <mxGeometry x="252.35000000000002" y="60" width="150" height="40" as="geometry" />
        </mxCell>
        <mxCell id="ATsu10qYxsgwXxZse8Qx-7" value="" style="edgeStyle=orthogonalEdgeStyle;rounded=0;orthogonalLoop=1;jettySize=auto;html=1;fontSize=8;" parent="1" edge="1">
          <mxGeometry relative="1" as="geometry">
            <mxPoint x="358.95238095238096" y="202.61" as="sourcePoint" />
            <Array as="points">
              <mxPoint x="359" y="250" />
              <mxPoint x="359" y="250" />
            </Array>
            <mxPoint x="358.9999999999999" y="266.55" as="targetPoint" />
          </mxGeometry>
        </mxCell>
        <mxCell id="ATsu10qYxsgwXxZse8Qx-9" value="" style="edgeStyle=orthogonalEdgeStyle;rounded=0;orthogonalLoop=1;jettySize=auto;html=1;fontSize=8;" parent="1" target="ATsu10qYxsgwXxZse8Qx-11" edge="1">
          <mxGeometry relative="1" as="geometry">
            <mxPoint x="310" y="335.25" as="sourcePoint" />
          </mxGeometry>
        </mxCell>
        <mxCell id="ATsu10qYxsgwXxZse8Qx-11" value="" style="ellipse;html=1;shape=endState;fillColor=#000000;strokeColor=#ff0000;fontSize=8;" parent="1" vertex="1">
          <mxGeometry x="227.34999999999997" y="320" width="30" height="30" as="geometry" />
        </mxCell>
        <mxCell id="ATsu10qYxsgwXxZse8Qx-12" value="" style="ellipse;html=1;shape=endState;fillColor=#000000;strokeColor=#ff0000;fontSize=8;" parent="1" vertex="1">
          <mxGeometry x="479.35" y="280" width="30" height="30" as="geometry" />
        </mxCell>
        <mxCell id="ATsu10qYxsgwXxZse8Qx-13" value="Detalhes" style="text;html=1;align=center;verticalAlign=middle;resizable=0;points=[];autosize=1;strokeColor=none;fillColor=none;fontSize=8;" parent="1" vertex="1">
          <mxGeometry x="297.35" y="250" width="60" height="20" as="geometry" />
        </mxCell>
        <mxCell id="ATsu10qYxsgwXxZse8Qx-18" value="" style="ellipse;html=1;shape=startState;fillColor=#000000;strokeColor=#ff0000;" parent="1" vertex="1">
          <mxGeometry x="85" y="169.67000000000007" width="30" height="30" as="geometry" />
        </mxCell>
        <mxCell id="ATsu10qYxsgwXxZse8Qx-23" value="" style="edgeStyle=orthogonalEdgeStyle;rounded=0;orthogonalLoop=1;jettySize=auto;html=1;" parent="1" edge="1">
          <mxGeometry relative="1" as="geometry">
            <mxPoint x="420" y="190.5" as="sourcePoint" />
            <mxPoint x="456.35" y="190.5" as="targetPoint" />
          </mxGeometry>
        </mxCell>
        <mxCell id="ATsu10qYxsgwXxZse8Qx-25" value="" style="edgeStyle=orthogonalEdgeStyle;rounded=0;orthogonalLoop=1;jettySize=auto;html=1;" parent="1" target="ATsu10qYxsgwXxZse8Qx-12" edge="1">
          <mxGeometry relative="1" as="geometry">
            <mxPoint x="494.35000000000014" y="220.84000000000003" as="sourcePoint" />
          </mxGeometry>
        </mxCell>
        <mxCell id="QvXtY8XGbGtVJBXb9xZ8-1" value="" style="shape=image;verticalLabelPosition=bottom;labelBackgroundColor=default;verticalAlign=top;aspect=fixed;imageAspect=0;image=data:image/png,iVBORw0KGgoAAAANSUhEUgAABB4AAADzCAYAAAAhM9V8AAAgAElEQVR4nOzdf1gU5703/jeSiNVgYgXD8UcbF8o5oscikkMMPSuaEjX1RxoMrUS9Cq5XsPqIJ34l6JFEg1WDjzngow0+2UAvTfCUuG1QGzU0BPfUGJ4C7rEiPRQwPYqHBIwGEuKmwn7/mJnd2d2ZZRd22QXfr+vi0v0xM/fM3Dsz92c+9z1Bd+7csYCIiIiIiIiIyAfuCwoK8ncZiIiIiIiIiGiYYuCBiIiIiIiIiHyGgQciIiIiIiIi8hkGHoiIiIiIiIjIZxh4ICIiIiIiIiKfYeCBiIiIiIiIiHxmhL8LQERERERERETDFwMPREREREREROQz7GpBRERERERERD7DjAciIiIiIiIi8hkGHoiIiIiIiIjIZxh4ICIiIiIiIiKfYeCBiIiIiIiIiHyGgQciIiIiIiIi8hkGHoiIiIiIiIjIZxh4ICIiIiIiIiKfYeDBXzpbUKXPxnLtLGiiY6CJnoWE7Aq0+7tc5Gcm7I6OEetEDHbX+rs8NFDthkzr/tRE70OdvwtERERERDTIGHjwh9ZTWJe8GBn5p1DXZhbfNKP9807hvz3XcXZHOpY8k4J1ehM6e/xW0iHEjHp9JhJiYzBNm4aXDQ2y7daFsy/EQBNbyEYfERERERHRILvP3wVwm/k66iuMKDttQN2fWlBvbbCHIHyaBlF//xgWahdj4aJpCA/2a0ld62nAoTXZOHtLekMo/4RgAGNDAADXfp2NdaUmAED95XQ8+F0j9iaH+qW4Q0Xn6VwszzfCDADdJhzdmoLyU1koyE1B3N1z+HUlgPkxiPJzOYesWy24UHkSvz5lxJUrDWiy1t9QRM2YjMiZizEveS4WPqbB2ED+/RERERER0aAL/MBDTwcuFG3BusJqdCp+wYz2hga0NzTgwrsluPZ3V7Bt9iCX0QPm8wbsb5FeaaA7ZsC22SF232nqMcunwJ27g1W6oaoDVeWnYB6txc63diHJ/D4OvbIPZecLkbGwUPxOCJYmP4axfi3nENTZgLL87Xi5rAFmxS90oelyA5ouN+BsaTVgLEJqxCCXkYiIiIiIAlpgd7VoN2L3M8l4TjXoMPTUXzTYXsxIQ6pD0AEAolJ2YVtiKIAQTE8txOYnme3g2nVcrgTwdBpSZ4Rhyuw07P1NBY7vSEPcOACjw5CUXYpXF3E7esLcWIp1ySnIUQ06kLeY21tQd6oUL69PwaZ3O/xdHCIiIiIirwrcjIfWU1j3jLxLAoBxsVi6Ng1rk+diSngoxo4GYO5CZ/cXuHaxGmfOGDDKX+V1l1nWhHs0Ujn1f/Q06EqqoRusMg15sdjWeAXb5G8FhyEubTuOp233V6GGNHNtIZavOYz6btt7IRFarMpKR2piDCaMCxV6BnV3obOzHU01H6P8lCnwf38BqQPlWxcjxyi8Sprv39IQEREREXlbYAYenMZBAKJS8vHmrsWY4th/PCQUY0NCMX3+ZEyfnzKoxRywYOdsByK/u1WBF+2CDiGI21yCYl2s8/gNo0MxdnQo4hZrELc4bZALSkREREREQ0FABh6u/TpPNg4CEKUrxcnsWLCZTuRrZlw4mI0TsqBD0p6TKE6Z7M9CERERERHREBZ4gYeeBpx4w2R7rcnCv232QtChx4xrplMo+/UpVH1ssj4VIyRiGuIe02LZT55D6uww5Wlr90GzokR8ocVecQC99vMl+IXegKrzLegEMFaTjNQNmdiwaJr9nWG76WX0adDo4TRfteVJ2g2ZSNgq5mUjHccbtyCuswFlr+Vhd6kJnaPDsPlXRqyPVfluTwfqfl2E/UdO4kJLFzA6DHFPpmPzlnTMCZctx931s9vOXWg6dxJlZypwwWk7L8bazOVI0vQx1oI4j6MGAy7U2J6gMFYzDXMeS8FP1qYgaZJDjTBfR92pCpRXnnKeZn4a1q5OQVxfgx7eakHV6VL8+vjHuHC5RRxXJBRRMx7DnOUpWLVYiygvjE7ZXmvAG8WlKD/fgPZuAOM0WJCSiQ2ZizHdk/l3tqCqrAhvHD8n7Ed4uL5KblXgyFFbd6CQxfko8EbQwXwddacMOHLKiAsXxfVGCMKnxWLO/MVY/RP18irX4S7Uny7CwTdOoqqhA2aEIHx2MtZuyIYuUeV3DAj72FCEN05+jLqGDmHsitFhmK6Zhbjl6dicFmsbgLTNgAxtLqoAKP0Orfr4vapSOS5UbdVCs1V6pTA/b/zGiIiIiIgGUeAFHkyncLDV9nLBhjRMH+jj+f56Cjkbc1HW4DxEnrmtARfebcCFdw9jd+IWFBemI66vxl9PB6ryfoaMoy12b3e2VED/QgXKKvJx8jWFbiG+0m3C7tQ06KXidHfgix717+5fkY5D8m3R3YG6d/fhufersfd3RUiN6EDVbtfrV1G4GOEOs0ZjCZak7rMbF0Bi284HXN5B7zSVYN3z+3DhlsJnLQ0427IL5n98EkkptsBDZ2UutJkGxQFIhWlycVZfovgEEQBATxfqSjYiI19pENMuNF2uQNPlChzNn4bUXYXYu7ifDfGe6zi7PRPrDPbbFbdacFafjbOlp7D3d+luzeraqVz8fLvBaVvL1ze1sAh7F3lW1vbKUzhrfTUZGzKSB/wkELWyCk+kqcaJhmqcOJSPOdmH8Xq6QncOR90tOPpCCl6utH/6S3vtKexOr0D5+hIcz3IOVl4zZGHJ1grnfdzdgfrLFai/PBnL0mIR1491HDRe+I0REREREQ22gAs8XGu+IhtBfzGe1g7wzl2rARnLclElu1Afq5mGKaOF/5tbbXfHO8/vw/LUDhz/zRbEjVaboRlNR7Yj52gLQiKmIWn+LOCS/A450Hk6F/sXzkWB9BSFsFisX/+8sH7nD+OElNAxSYtVT08TG3bhiFJdpmsXjm63BR1cuo4j29NxogEInzYNE4Lt1x/dRuT8SykmLDcKQYdxGkyfFAL0tKNJujssrt/B1GTsTHRo2nV1iA0i4e7zsscmCY2/WyYcLZUa9WZUbc3EoZhTWD/NfnJz7T4sX1GCJvmbUhkAoKPFenfXbrpb7bbshOQlWBAtbHfzX404ekp6IkML9GtyMfvDfCwYZzc16vavwHL5BhwdhukaMawiX/fuBpS9sASfmfvTqDOjbr9j0CEUUTMmC9uo+zrqW4zIWXNdecBRmWuGTDy51SiuVwjC56cgdVoogG9w7fxxnDB1AWhBWVYmxk5QCbaoaGo02l5MSkHSDLcndaOsgN06w4xr1t9NFy7kp2H55311q+rEmcJM6CvNGKtJQNJj4Wi/KMtegBn1h7ZD/6R9/TIbd+HJrRXWcoREaJGaIv32utB0+iTOuvUb8iLrcaEL9e+WokoMuE6Zn4al06TjnsNxYYC/MSIiIiIifwi4wEP7J9W2F6MnIXwgt1t7GnBojSzoMFqLncf2YdU0WTCjpwv1pVuwPE9sHLWUIOfoYrz/vNoVezX0JSFIyj2F11dprA0kc2MJ1i3eJ6Zlm3Gi/Bz+dZGYFfDdZGzOSgYA1JllgYfIZGzISnHOHPBIBcr+/TrGLtqOt3ekYfo41989cSoWm8sOY32suA16rqNs/RLkSHePTbuQYQJC5ufh/UMp1qwN8+XDeO6ZQtSJ63e0ohrbErUODcSRmJ6ah72bU5zKsTmtBMsX7xOnb8HB901YPy3W9oVbFXhxjSzoMDoW6w8dwGaHtPnOywaU/Y/jeoVgTlYJ9uoSMMWuQFnYsHgXEjJLxcDBKfz6XDYWPG2bZ+fpXDwnCzpErSrC29u0CJffdW8z4uWfZUJIADGjKu8Azs53DGC4Zq49gH+RLyclH7/csRhRsvK2V+5DxgslqHc1o5ZS/Iu1Ia/BKv2vsFMr20YbMvGT/SvEdWqB/lUDVpWlYYpbpezAtWbZy7+fhAluTaei4TDWyIIOIfO343h+mn13ks4GHM1Os2YvNOm3Q7/EVYPZAH2JBqv0Rrv1bq/cheWZpbgGwLl+daHq3VJb8EObh/cPp9hnJGVth7m1Y3AfG2o9LnSg7E+2wENkciY2p6h1FxnAb4yIiIiIyE9G+LsALsVPdrPBpMz8sQEHrW09DXRvFtoHHQAgOBTTVxWiON12B7vpdQMuuGiBhKQV2gUdACAkOh2bs2R3wSsbxEaQr13HtfDtOP5aX0EHQVzuLlvQAQCCJyN1Q6bDdk7Gq3vsG2YhM36GDfKHFpxrsM9MAIDYLJzc5dwgAgBEp9lNb/5TM9plH9eX7rMNaDhai72/K3UKOgDA2Bkp0CXbvx/+dCHeXu8YdBC/Pz8N22R37asar8s+vY7yklOyhnEe3nQMOgBAhBY738xDkvS6+xTeOH0d7jPjwskSW33QZOHfdtkHHQAgfP4WFOdqXc/nbalhCUzR7cI2rcM2Cg7FnLWZWCC9NhlQ1d87+ZrJAwiKmXHheJGtjmjS8fZrac5jWIydhlWvFUE3SXqjBQePV7sMAMTlHrAPtgAIn5+FzYtkS7erX2Z8Ie9fETlZsRtUyKSwAXcr8bkB/MaIiIiIiPwlsAMPn5vxxQAmrzPK73KmY61qynkI5vzkZ5guvew2ok61sRaCVUsc7/QLov5R3mhsRlObx0Xul1UbUhDl1ngS07AsUeP89owEW0MVANJSFO7mh2C6fP1aO50bhy7LEILJkWq3sU0484atIT9lbRZSJ6l8VYnL5U7ClJkqH7VW44x1HNMQrFqboj4ux6TFWC1r1NXVNCiOKaGox4SPSm0vk9amqI5bEp6cgqUu5vOhdeDHyUhdotIlYVwMHrcGWxpQ+19d7pbUXrfCPnaXXVmBpLXp6t2XRicgNcNWN8yVJueglpUWqckKdRihiImX1S9jiyzwF4aoaNmWKslDjqEBnWrjoASyfv/GiIiIiIj8J+C6Wti53Ir2HrjZqHZknzY+5dEY13dvvxuJOYCY5n4df/mkC3DMjgAAJCBKpVEcMsYfD/zUYvY0d5f7GKK+2/e35sRoBvYUke4ONDU04/onV1B7vRVN5y7ievd11LeoNIDbmmWD5YVgaWL/Gk/mzuto+lMrmv/6Mf7y11bU/bEZnR0tqFcLALW14IL1RTJmf8/V3EMQGZMAQOwKdFFo2E53NYmk/bqsIT0Zs2NcPHVhbLh69wa7+VzH/mUx2O/G4ju7zQD6MVZKSzs+A/qXdeTJOgOI+t5jABqEF63NuN4JlSd8RCJK5YkRD44Ot83DQdzqPCSVZovdrlpQtjUFZVtDEfd0JjYMxadAePobIyIiIiLyo4ALPEyJ1gKQBrirQF3DFswZ4AB3ABAZ1kfSeLB9U7vfjbVBF4nJHuTDh7gRxAkJHtW/orRX41DuFhysHEhf+QRM8fAxkOZGA3Zvz8dR00AaXeF9jicySl5HlDI+3KJBuAdjQwyuMET9YwhgFNfsYyMu3krBlAGX1411vl/+ohNfdANe7fcQsRjFFeE4lL0R+89L9aQLde/uQ8a7+zA2MQuv73kec/rzCNLB5JXfGBERERHR4Aq4wEP4TC2mw2jNPDh43AjdDOWuDZ5o7+4E4OKua4/9ZfyU8KEQdAggtyqwKTnLNk7DOA3mzJ2LuElhmPKPMZjyYDhCruRheV61y9kA7TArPCpQVcNhLFlWaL27LjxpRIuoceH4Xnwkwh+cBPNvn0TG0b5mZEanGXBV0e7I68iMSf1sF3u4fqqmQfdaNua5ERQIecT9ujx9VgoAqV9IBY6casHSVUpdGzzhxjr/Tf5iMib4IjgTnoD1JdXQtZpQ/nYR9pca0S6Wq/N8IZ5beFF4nKwn3XwGk9d+Y0REREREgyvgAg/QaJEaC7ws9r03l2bhxfgKFCx2nartLBQTZGM91tdcQecqjXpj8a/NsrT7aYia7I9uE0OXfHDIkKfzYdyz2GmQxqYrKqMijB4r2y8N+PBiB1Zp3NnfXThRZAs6xGUZ8Pb6aQ6xAzOqjqtMPm4SpkPqXmNE/V/g4vGRZjRfkTXoZnow8KldNo0w5sIqtdT+liuyeujAYTshLAFzHnO3EO4JSUjGqtGlOCruy7q87Tg0qwTrZ3j4exgXLts+Dfjoiot1BtD0l49tL2Zo4MufX8ikWKRmFyF1cxfq383Hv2w1CHWo24iX3zYhNVvpSRDVuNYGQCEjwvzV4OQeDOg3RkRERETkRwE4uORkpG57HlHW12aceOFnyDnlyVMEACAEcfHJtpeni3CwVq2BYMaFX//K9hjDSU8ibqA3ee8pHai/aNs/q55xbhABXbhSo9z/HmMfw3zZEwmqDpbggltZAc24fFr6fwJSn3YMOgDoaUH9OZXJvzsLC613t6/j4EEDrqkNONh6CkdkA0QuTZjlfhZOeCRmy+6inzC8r7Ich3roaOwsPC4b3/PoGaP30+1DErBhhzzDyIT9K9NxyNNuLCGzMFu2T88eLEKd2j7trkZZsa1uTFkwS/b796HgUExPycPOdNtb5kbZkyDsAj1mXLiidAzqQtW7Bq8Wq7lD6VkUA/yNERERERH5UQAGHoCQ2Ezs1clb/i0oe+FJxKZmQ3+qAdduyZpb5i503rqO+koD9men4VCt7aOxyel2j+nTr8nC0QaHBlRPF+qPZiGjRLqoD8HS7DT3Bg0kRWc/dHgcYk8X6o9uwYun1aYIxYLV6bY75K0lyFixD1Wtzs3qzssG6Cs6FOZRjTPnHRqGPR2o2r0F+1tVFhs8DakbbC15c2Uu1uw2ot0xKNBmxMtrclElvdZkYe2TnnTFmYala2V30Y0Ky3Gqh0rCsDBlsTUoYC7NwnOF1c7lleZnyIXepPBZH8KXbMfO+bKwSrcJ+1O1SMjch7LzLWjvlO2X7i50trWg7lQpXs7MxgnrQJ4O+7SlBM+9UIp6xxvynQ04+kIm9NI+Gr0Y21K9/WQGM661KNUZAD0daJcPPjp2rC3oMjYSs2UZMHX5u1D2V/m0Qr3edMq74Z9rH1xEUx9P3PD8N0ZERERE5D+B19UCABCCuM3H8HbIz5BxqMF6gd1pOoXdplPY7WJK3U/ks4nF5v+djqoVJbZU6mUJ2K+Zhinio/3MrQ1oumWbJColH/+6iOM7eCYM02dNBoxCo/laSToSLi5GauIkhKAL9QYDqtomIWn+NFRVKt+RDZm9Ef+mO4fleuE5puaGEmTMK8FY2b5CRwvq28xI2mOEDgAQiRmLAIiNrartS5BQmYLUaaFAdysuvHsKdWYtkrQtqDI6LxMAwp/ejr0VS5BTKdSypqOZSDCEYbpGHLGzpx1NDbKB/EbHYtu//Uz1cZhqpjydDd2RNIirJyznlAbTJwnNXKkeRq1/HnMOHYbakBRjn9yInfMrxPKaUXcoHQklYZie+CSSokMBfINrpo9x4WID2rsB3bE8zwoKAMGTkXroJPBCCnJOS4E6M9orS5BTWeJiQi2m77C9ctqnlbuwJL4QUTMmi417M65dbpE9llSD1H3ZCo9yHaguXNitxdw/SWMijLS+33T6JM5aH507GbrntLIsBw0WPqfFy1vFytNtRE5yAvRS+aX6qNWiyqhSwdwiPu5TGtTTtAtL5hkQFQYAkVj7y3wsjRj4b4yIiIiIyF8CNPAAIDgUc7IMMMYfxqYXCnHhVt+TACFOT20Imb0FJ38Thow1+6zz6GxpUEhnD8H09EIUZ2tdP3aTFE1Pz4fupK1h3Wk6JbvbHooF+UXY1rMLc1UbRSGIyzbg5Lcz8Vx+tbUxqryvbPNdmp2Hd8/lio9JNKO9shSHKsWPR0/D+jcLMe+DWaqBB6mR/eDLWdhUJga5ujtQf1nhDvm4ZOw8mo9V0f0YgGB0LLa9mY9rz2TjrFSXb7WgXlavxy7Kx5sbJuPoocPq8wmejNTXDDBvXYGXpaBAdwfqK0pRX+H45VA82K9H0UrL+T2ma/ORk2eQPe7UtVF2y1Pap11ouqxQB0ZPg+7AYWzTejqWiwduteDCuy0qY2iEYsGeYmybbb9vHQNTjuWPSinEzmUmzB1Q4AGIe247kkqlegyY2xrEx8CG4474nYH/xoiIiIiI/CMgu1rIhSc+j7c/qsb7JXlY/3QCpjsMUDdWMw3Tk9OwbU8J3j//MTYrjAsXMiMdb39kxPE9z2Np4jSEj7Z+gvBpCVi6Pg/HP/wYJ7dqFfpNk1tGx2Lbb95HcfZixEVIjbdQRCWno6D893j96cno+yGdIZiuK4HJWIq96xdjzrQwW9r7OA2mJ6dhZ9EpFDwta5xOSkFxRSn26pIRJd0pHx2GuKe34O0zBmye7UaQIHgyFuwyoPpMEXamJdvXMdlyTR8V9i/oYC3rYrxecQrF2Ysxx7qMUEQlLsa2EiNMhYsxxZ36N1qDVYXVqD4m/iYiZGUap8H0xMXQ7SjC+9XVWK80TqK7xDEQTla/j5Ovbceq5Gn2y0IIwqdNw5yn07HzNQPOmYqw1Clq52Kfjg7D9MTFWL+nFOeqDT4MOoRijk7p+BGKqBnJWCVuq9dTJjtPGjwZqYeMOPlaOhZYyx6C8GnJ0L1mwPFdyZhyv/NkHpuUguIzJdj2dIKtHiMUUYmyjB+v/MaIiIiIiAZfkMVisfi7EESKavdBs6IE0OahWp/CTBQiIiIiIqIhKOAzHohgzEVCwmKs05vQ2cege0RERERERBRYmPFAgavHjM7OLnx2sQQ5mSWoQwhWlXyMnYkD6O5AREREREREg4oZDxS4gkMwdlwYouanYNkMADDjWltXX1MRERERERFRAAncp1rQPa4LdaXF+LD9G1w7fxwnLgOAFgsTffjUAyIiIiIiIvI6Bh4oQJnRVHkYh4wQnyyxHGuzNmJphL/LRURERERERJ7gGA9ERERERERE5DMc44GIiIiIiIiIfIaBByIiIiIiIiLyGQYeiIiIiIiIiMhnGHggIiIiIiIiIp9h4IGIiIiIiIiIfIaBByIiIiIiIiLyGQYeiIiIiIiIiMhnGHggIiIiIiIiIp9h4IGIiIiIiIiIfIaBByIiIiIiIiLyGQYeiIiIiIiIiMhnGHggIiIiIiIiIp9h4IGIiIiIiIiIfIaBByIiIiIiIiLyGQYeiIiIiIiIiMhnGHggIiIiIiIiIp9h4IGIiIiIiIiIfIaBByIiIiIiIiLyGQYeiIiIiIiIiMhnGHggIiIiIiIiIp9h4IGIiIiIiIiIfIaBByIiIiIiIiLyGQYeiIiIiIiIiMhn7vN3AeQ+/fRTXLx4EV1dXf4uikdCQ0Mxa9YsPPzww/4uChERERERDbKh2o6hoWE4tDcDKvBw8eJFzJw5ExMnTvR3UTxy48YNXLx4EQsXLvR3UYiIiIiIaJAN1XYMDQ3Dob0ZUF0turq6huSPdeLEiYxuEhERERHdo4ZqO4aGhuHQ3gyowAMRERERERERDS8MPBARERERERGRzzDwQEREREREREQ+w8ADEREREREREfkMAw9ERERERERE5DNDMPBwAb8ICsIvPnZ4Ny8IQUHCn+Nnw83NE1nIOnFzgHO5hIL4AlzySon85SbKN8ajwOTOdy+hID4L5Z/5ukxEREREREQkN6QCD0JwoRJ4xf79tmMpeBwfwWKxwHLtbdTN+QUuDGA5O3bswO3bt53ev337Nnbu3DmAOfvAZ+XI2liOgYYhhqKbJ17B1YwabIp159szsammEMsm+LpUREREREREJDekAg9zci2wWP4V8+3ebUPlb4G30+cILyen4f97ZTsq+5n1sGPHDuzcuRPz5s2zCz7cvn0b8+bNw44dO7Bjx47+rgJ502MvuRl0ICIiIqKAYipAfHy87e/AYObhMhOWaLANqcCDsqu4+k4cpk62vTM16hnUXW3r19w2bdqE73//+zCZTNbggxR0MJlM+P73v49Nmza5Na9LB+JRcKIcWfHx1q4Rlw7YDrC27hKXUGA98IoHQVOB/QHY8TUgZDs8lYfzH+VhQbzY5cDuIG5/QL15Iku27Kv281KdTqFsSutpkn3PLgND6A6hdFJR2j5267axHJdkZbZ1qRCWteCpBQ7b0WE9DpSjfKNUZlnXEqd5q62vQrmIiIiIyDtWF6OmpgY1NTUoRsYgXncxE5ZosN3n7wIEmoceeghVVVVISkqyBh8AWIMOVVVVeOihh9ye31u/B87W1GA8hIZ2pbYGNRsBoUH+CsofK8QPPn4TV186i5ql420T3nBj5hOWofA9IGsX8NKBZRCm3oSaGjEwYipA/L9fwrKNMwFTARa8MhXFNYWYCSEIsQBThewRUwHidUBxTQ1mAmJAowBTazZh0gmFsimtp64SxTU12CSu5ysnfoDCpUD5xgWo/OFZ1BwQpr90IB5ZJ86iUJyffPs4+SgPb/7wLGpqxlvLdKlmE2ZiJjaJyxICBUdxaekmzPysHFm6q8h9r0Y4kZgKEH8EyO1j3jdPZGGBtJ3U5u3G7iAiIiKi/pmpXYnzxlZA+aqQiIa4YZDx4H1S8EHKfOhv0AEAVmZIAYGbuNoEvKWT7qYvQN5H53H1BjD+O1Nx/pUFbg6S2BdZhoHuLaDpKm4CuPnfV7FSb2tAj1+6BiulKRw+w4RlWLP6LVSa3C+bfPqZP80Ffv8H3EQrriIXL8mCFrbPxOms20fB47JpZWUC5NkbGXgLV3H1MwA3ruL86jW26HXsKuQ+3ve8xz82H4nidlKdNxERERENDnkGqzWT1j6L1nptqprtelP2f8fX8kHWlearlrErTFd+Iks1E5iIlA2DjIepmPpsHa5eB+aI3S2uNv0GccmGAc1VnvkAoF9BB2eJyH1PKa1LyFK4dCAe8TrxO/2a/02Ub1yAqxk1qDkAIUtgl/BJ6yfnge/0Y5axCmXzc1razRNZWPDJGtTUFELKHAGEAEriI5N8Mm8iIiIi8pWbKC9+CyszNgmBBON8awbvzRNZQibtd44iL6oYNQdkeaieZLuqMSnMF+Ox7ECNeD0uZil/Jl0Dv4VKiBm5ROS2YZDxEIH5PwaeKxGfY3G9FP/7pV2Y/9jA5ywFH7wTdK2C6H8AACAASURBVBiPqVHnkffv6gPnzNxYg7MvAZUf3wQmTkXikUrr4y4vGd9yYxmtuPpRIqZOFF7d/LgS56V5a1fireJy2V39NyHNcfx3puItnezRmp+V480jKzFfNnCjXdkUvGWUjd3w73nAD3+A8ZiEqcjDK7L+erbP3PBRJf4gRZJlZWr95LwtwPDZH1D5kbgej80HXjlqWw/TUeR95M6CbNTmTURERERediTDmglc+cOz2BQr3EiyvR+PBa+cx/lPWsVrY4dxIG5cBV56yb1sVzVK8wVkmRS2LGXBSqzpowsyETkbBhkPQMSKQ3g79e8QFAQAz+DtawbM8dK8Bx5wsJm58SxyNy5AfLz0zkoU12zCpBNZWPCKGCJ4PBdnD4wHsAxrVscjI14ID6xcvVJplsCEH2A+FmBBfB5W6muw6iVgwVPxyAOQuHolEqXvxW5CcVQ8FsTnAQASX8rFSly1fnb2pSwssBZMyGywjgXhVDZnK1GJ+PgM4cXqYuuYEMsOFONq/ALES4kDss/69PhUXN0Vj/iP7MuEn+YCT4nzfHwlVkonmAnL8JJ8PVbnIvfxq0pzVjVTbd5ERERE5F2ri1Gz0XkkrcSXbOOB2cxEYc0ysUvseeG69789u85TNGGZ03w3oQDxxVPtx2kb+JKI7mlBFovF4u9CSN555x08++yz/i5Gvwzlsg+UNGimVx9tKXYTsQ2a2a+SoSC+EvNrODgkERERUUCRulQ4Bh6sg567uH6Tpv3pVWQ9dRVrpO+aChCvu2rtGnzpQDzefEQMYnxWjqynKjH/vUIsm6ByjSjO9+wjbwpdbzfOhHA9mQHoa7ApVv3a8l5uC9DgGOp1bFhkPBApuXniTby1eg3ce/gpEREREfmdUyYubFkIOqmj8EoU1whPI3OV7epWJqvJeb7jsQYr4zMQf0R4b+Vqr68l0T2HgQcaRoSItHU0jMdzcfYAcx2IiIiIAk7sJtSoZMuOX1qImqWO78oeGa/63Zso3yjrFCF2o3A2E5tqZtrK4TRf+ePVhWU7TUdEHmHggQZs5sYa73dlmLAMhQc8LonDSYKIiIiIiIj8bRg81YKIiIiIiIiIAlVAZTyEhobixo0bmDhxor+L4pEbN24gNDTU38UgIiIiIrqHjceyA4X+LgQRKQiowMOsWbNw8eJFnD9/3t9F8UhoaChmzZrl72IQERERERERBZyACjw8/PDDWLhwob+LQURERERERERewjEeiIiIiIiIiMhnGHggIiIiIiIaAGmsOiJfGA5jCgZZLBaLvwtBREREREQ0VH366ae4ePEiurq6/F0UGoakMQUffvhhfxel3xh4ICIiIiIiIiKfYVcLIiIiIiIiIvIZBh6IiIiIiIiIyGcYeCAiIiIiIiIin2HggYiIiIiIiIh8hoEHIiIiIiIiIvIZBh6IiIiIiIiIyGcYeCAiIiIiIiIin2HggYiIiIiIiIh8hoEHIiIiIiIiIvIZBh4ooHV29eCLL+76uxg0SO7evYu7d7m/A1FPTw/+9re/+bsYXmGxWHDnzh1/F4MCTG9vL7755ht/F4PuMTzvDT5ucwpkw7l+MvBAAe0/zt+G8aMv/F0MGiS3b9/G7du3/V0MUiDtG4vF4u+iDFhXVxdu3rzJRibZ+eKLL3Dr1i309PT4uyh0D+F5b/Bxm1MgG871c1gEHtoNmdBEx0ATHYPdtfJPOlCmixE/24c6xwlr9wmf5ZsU51uXHwNNdCbK2gC0GZARHQONzoB2H5TbVTmUypxh6IBt/cQyKnLnO4Gp+erXqDN14T//1IWrf/3aq/N22vbWbdoPfdQjck93dze6urrw5Zdf+u5utLSvou2PCy7rg/Tb9/S3Oox8/fXX6OzsxJdffomvv/bub1HitA/EY63dcdj6uv/7w2w249atWzCbzejq6vJqIMWxrO6TjtPiecpnxxQTdlvrfQfKdArnxT7Ytr/jekrzVj5PSvtX+Tg7WOuv7s6dO/jiiy/Q3d2N7u5uL85Z3C79uXaQjj3idpC2vf11jhfIt3ebARkebXf5dVaM4m+Y1Pn6vOfxtc6Afnt9XG/aXb96oL/Tqfj666/R1dWFrq4un53PiPpruNfPYRF4kNN/IDtYtp3DGaPaN03YvaIEumNX0JId6/4CoiMRPpACitoNmUjYakTSHiNaGq+gpdGIvZH9nVskoiLc/45w8eL5BacT8aLIWycDuS+/6sEHH97CHXMvvv66F6fPfo4vv/T+XSjdsStoabyC4zqgaqt2QBd0SZGTB1QW4QJh6AWIvKGnpweff/45ent70dPTg5s3b3r9rmO7IROaFSWy39wVVO/R2H3HZX3QlVqn8+iYMcT19PTg1q1b6O3tRW9vLz7//HOv75u6/BgkbDVat39L4xUcX+RqCi32GsXvHksH9GluNXJ6e3vR2dmJu3fvwmKx4Msvv4TZbPbimnjXQI8pTmor0LTHiJZjwPJoLXKikxHX75kZcea87NhfWwG92lfbDHhxK7DXeAXFKWFuL8Hr66+ip6cHt2/fRk9PD3p7e3H79u0ATnPVImqSd+dY90Ez9hqv4DjSoNHmIuoJT45vYUjVS8dTLQDYjrH6FM+ul3x4TdEvPi7PYJz3JJ5e6wzst+fONal/yLd5b2+vT7c5kafuhfo5jAIPWiRpAegrrA3q9vMVqJLed1QLLGy8gm2z3Zx9RAqKvdjguNZsBKDFwkTpIiwMqSmezls64W9xcfHo+B0TzqheHXpG2L7e12sB/vPSl7jWamsQtP6PGXX/2QVfZXnHPZEOAGj6pB8XGLO3oKXRswtqZx348LRqlGzY6+rqsmsA3rlzB19++aX3FtBmwItbjYCu1G4/haekKP52BlQfhhnHO3FmsxlffOHF7k+1+7BcLzRW5MfjuBQ3Gy2ztwgNHmMu3ujjYvrOnTv46quvrK/v3r2Lzz//PPC6j3jlmKI83+KUMOv8+38+E86rVafPWYM9dR+UAFotkhS+3d4aiVcbi5DqbmPEV+uvoru72+7O0jfffINbt24FXL2Iy76CFk+2o9vzFeYpzN+D6yIv89U1RX/5ujw+P+8p6PPcNqDfnjvXpP7luM2lzDeiQHAv1M9hFHgAFi5KB1CCM7WAtSGnjUSU4xfbDMhYkYblTmlnslTR6Bgs1ztMY5d+5pBeKL3vmMqtkq42JVILwIgcrVLapGPqotpdcIf0VDikIesMaLf7jgm7o9PEu1IlWC6mbKp2+bB2L8mUpZrbUtMTtgoN5aqtWtvdRof1708GwTfmXpi/6cX0aWPwj9MfsP59840Fd+70ej5DN9R9UAIAiHokzHUXGIe0+921UEgDdNh/DtsmQ5epsI+0yDECUp2Q5mWfVu6FLJUA1NvbC4vFggceeMDuT4r4eoN0Aalz806evD7cy6R9MGbMGLt9Y7FYvBaFF7a1PAjrufBHhHQxu4w3BxaLBXfv3sW3vvUtu3UJDg72zVgPLo6fdp9Hx0ATLf3+RX0dU/JNcDxfOZ4nnM8Fzt1UVOffZ+ZVJBYu0gLGCnzYBlgD2tEK59vafUhYkYYEx3OCJ+uvdNx16gLVv+OjVJdHjx5tVy8A+OZOk+p5QGB3/tHm2jV8nbryeLpdlL7vsh45fubhNnb8DegMaFdZnvI1hXrZpG2RYfe72Cf7vovfg7Qe/bjGcbw+6G82xGCc95TYnduU9o/TsUe9Djjug921fVyTriixL4vq8cj1dI712N19IG1zx/OZr7c5kTvulfo5rAIPSEyGDuLFp9jNImlRsv2FUJsBGdpcQEwFFNLOtqOsDajLT4PemsJbCp3qgqSGoizdNztWDGiU2FKypRRgheBDeEoRjosL0K9wPKHK523EXq0ROdq+U/Dr8oVgiTVd2SnNMRbbrOuVjuPinY3wlCJberMOgL7IYVnJeNWaRlmCg4YOhKcU2adV6lMQXrsPGqn7SqMRe7WAfoXnF4OjRo3A/Lnj8NPlE+z+fjhvHL71Le9WWWHb27aby+0h1p0qbR6qG9XuDIl1A+J3jqUDxly8KDsxVkVn2uZtzMUbtWFI1QvbS0ohL04JE/ensJ9ajHlIQgmW32NjCww2pfpg+zBtQAG1oSooKMjfRejbJI3inXY5/62H8/ET6EDZ9lxUQf77VqNyvkEstkldf4x5SIIROUdsYwEonQukO9rS8blqawnq0L9zTlRiMpKk7hZiNwvdE8n2X1I9J3iw/mrHXSkLUTrOWret59Tqhi8zHpzPA7DLzJJ3XVDk6XZRPX+p1aMOlOnSoJf2UWMpdCjB8v4EeIyR2GCth8rLU7ymcFHHxRkjap3sek3fjCijtN6OvwdX51L3r3HkXWSr92hRtVUbOF1DXHB5brPbP3Lu1AEjsMiofD0ky2az1nUZteORy+lcXMMTDVeBln03EPf5uwDeFYuFOkCvr0BZZDOqoMXexMnAads3rKlzW7XQbJXeNaKp1YQmPQBtMuZFyOelsBhp7Ahdpl3Ko9Nd1dnJ0KEE+sZmtCPWKW04LvsKWrKli0ojcrYbME8fKdw5spYjDPMWaQGjEU2trtZdvOOkzcPafqRJyqP7wvYAIPUjlca1eCQSgBFVzdcBON+dlCLp+hUxsr6+zWhqA+ICtL+f0wlYpLQ92j8R9+86Fyng1nFFcpEQnWt9u6r5OvCI8H+p76SU9dL0SQfgVAapS0wJlkfLov0qdWkoGzFiBEaMGOGUYjp+/HiMGDG4sVG1+iB8WHpPje0A2PbNV199ZXfie+ihhwZ937jU2oIq9N0v+f7778etW7fs+u+PGjUK999/v+/KpnT8bGsWzyHiGAsRc7FQC1Qp9bZSOd8I5FlsEI8PcHkukIISgmY0tTme+xzOOWrHbrHMOafPoSy6BEA6Fs4GzsiXpXZO+NM5t9ffel5VOu5KjWnxpdq5yZWgoCAEBweju7vb7q5SaGgo7rvPd5dISucB6zlGvIYIF4M7Sun+nm6Xdrg6fynUI8c6ar0m6sc5Xec4lohSvVU7trr6ruN4F9LYAkIgskqcXv1cKvLoGseWnWXdP/2od4N93nN9blMZ66XtnMs6INzUU89Wc9xecU+kA3rnrAf74xEAF9OpX8ND/VglUjufffvb3x4aAXYa1lzVz4C63hqg4bMmIqH/WjPOnDbKLqScyQcx82efRqFPnHi329iCa4O+fCGNLkEc+MvlHRa3yO7KNfqmP6pveWl7yAciHEhfatndqX4N1jVEPPDAAxg1apT1dUhICEJDQ702f3dS8UnZmDFj7PbNyJEj8eCDD3rtQk1qeNkNVOghd7vGhISEYMyYMdbX9913n18CXN4gpHynQa8r7SNDTySmJ0t3fh3vPnpOClBU4Ewj1BsvSucELxzE6vKFrgjYY+wjY6Rvo0ePxre+9S3r6/vvvx/jxo0bko0RT7eLx/VogDxZnlfLFoDnUl+f9wLaAI9H/b2Gf+CBBxASEmJ9HRISgrFjxw7J3zoNP471c+TIkQgNDR1W9XPoXW31ZXYydDCiyggkLZrrdGKxNkBet/WprDMY0I7JiNLCuc+qkgixH6tDlwQh+i1r3Ijpp0rlqMuX97sUo8paDaaIEWVbOaRBB4W7Seqk8vc1wJr4Peuym9EEWO+mCYNeukfalhLruBVHZONgGIZYQ8/F9lCqO06U6katwY00wDBERctfK+zPNgPKhmmKf3BwMMaPH4/g4GCMGDEC3/72txEcHOy9BczeInabSbNLi203GIbluBneFBwcbN0f0r7x5p3g8JRdYpqt/UjrwnHZDWJaLnSlfV58jhgxAmPHjsX999+PoKAgjBkzxu4kP2isxwlxMGRXT2BSOd9IAxTvXR1rO24BUD0XSFkhe9IRhw40NUof9PecI7vja1QeP0X1nODB+isfd6Xyp2NDSph13fprxIgRGDduHIKDgxEUFISHHnrIt1kwKhwDpK4GN/R0u6idv1TrkZiFYhuw2+SQjdk/6vXW+ZrC1Xfd1/9zqWN5hBtbtiCpp2MHOfL5eW+gBlgHHIPKUoAYgIvjkevp1K/h3RPw25zuaY71c/z48T7NvPOH4Rd4kC6i1NK/Zm+x9ruXBrtafhoAwpC6S+xDqI2BJroITao3u6WxEqTvioN9RaSgWBrXQRoQx2EUfZsS6+CWwgBS6Thu7Ycr9bGVBt3SYq+xr1GCbZkTUl8+5cfLhSF1Xbp1+btbU7BBbJBpomNwsNGDO/yz060NBo3OAEh9Iq194bXIaXZ/dgEhwsX2UKg7zn39FerGigq3Fh232lb/Mgxw3p/a3H5eeA0No0aNwgMPPIDQ0FCMHj3a6/OPy7b1yZXGakjY2uL15QxHo0aNwtixYzFmzBgf7BthJPTjOlldtx6X1ch/X+IjUt3MKho5ciTGjRuHkSNH+vFOVyy2HbMdhzXaCsDD8438eKHZLj/GqJwL5Mfr6O12XSL6d86BrWGiEqQIVz0neLD+isdd+/OY5vXmAWU8AMKdz4ceegijR4+2y4oZVLIAqSY6Bgmnob5enm4XlfOX63ok9emPETIPZNcp/aW+PDhdU0xx9V23Kfwe3D2XOpSnXXyCjnQOkcZ7GEjGrK/PewMzsDogDyo7X0+pH49cT6d2De++UaNGITQ0FA888EAAbnO61w33+hlkGU4jVhDRkCb1vR9uEd7hoKenB729vX65E+xtFosFZrPZLs15+JEPSjnUurz5R29vL+7evYuRI0f6uyi+Iw74eS+OWROoeN4bfNzmFMiGc/0cfmtEREPWcDzIDhfBwcHDJiU1KChomAcdAOlOL3RatwZeI6HLxbAOOgDiHWNA8/rwG6h4qOJ5b/Bxm1MgG871cxh2tSAiIrrXmbA7WoscY99jNdC9o92QKXRPUhh7ioiIyJfY1YKIiIiIiIiIfIYZD0RERERERETkMww8EBEREREREZHPMPBARERERERERD7DwAMRERERERER+QwDD0RERERERETkMww8EBEREREREZHPMPBARERERERERD7DwAMRERERERER+cx9/i6AnCY6xt9FICIiIiIiIgo4LY1X/F2EfguyWCwWfxeCiIiIiIiIiIYndrUgIiIiIiIiIp9h4IGIiIiIiIiIfIaBByIiIiIiIiLyGQYeiIiIiIiIiMhnGHggIiIiIiIiIp8JqMdpEhERERERBbKfl1rwTq0F5rv+LsngCbkPeHZ2EH6ZFqT4+Qvv/RK/qf8Dvun52yCXLDCNDL4fz0z/AV576uf+LkrAYMYDERERERGRG35easFvTfdW0AEAzHeB35os+HmpxemzF977JU7++QKDDjLf9PwNJ/98AS+890t/FyVgMPBARERERETkhndqLfjK7O9S+MdXZmH9Hf2m/g/46ps7fihRYPvqmzv4Tf0f/F2MgMHAAxERERERkRvutUwHR0rrz0wHddw2Ngw8EBEREREREZHPDK3AQ+0+aPJNDm+asFtnQDsAoANluhhoom1/u2ul9zNR1ga0GzLtPpf+MgwdAJw/l96Hy/mrlDVaWKaTNgMy1D4T1eXLlmNdP4XPnMpgwm67dZMvx1X5+163dkOmU1kCHuuM82ce1Zn+1ifb5/bbY7AI5bYrT+0+WVn3oc5hCvl+VCyzfHqF34Hi76OPaRy3od1y2wzIUNjuyvXReX2Ul6G+b1Xrpbcp1WXVfeOnMhIRDUW1+xTPB3X5PH4Skf8NrcCDW7TYa7yClkbhb9ts+0/DU4rEz0qhQzqOi98rTglDuyETCaeTUd1om35Ds9ah4SqbvzEPTSvUL/iTtMCZ884NmLojFYBWrfzChfbBSKO1DC27gA/FE0ZdfgyWo9T2WaMRUa87NpRs69VyLBI52+UNHlfld7XtOvDh6UjoonPxxrA7ebHOuK4zbtYnx23Xdg5notMRtbXERaPY+4QgSwWgs3+/Hbb9VL2nGctl+6jdkImE5kzrehSnhNlP3GZAxopm67oej87Fi9L2EwMELzZHIsndaayuI2rdFWv9itq63RZgOA9skLa7MRlntEK9sdVHaV20SNqTjjjV7aHFmUVG5/3XBix0s156hxgA2d6CKIe6XPeJxvYbOgYs1/mrjG5SDGi6yxbUpOFlQI27NgMyhlpgnwJO3QfN0OmacdBVwH9Axy8iov4bhoGHfmoz4MWtkTiuT0G47O24bCP2NhYpXyRGzMVCbTOaVC4gq6IjFRpdJpxpTMbCaOVp2g1FaNpjtG/4RKQgdTaA2n1Y3piH6uxY2RRhSNWXqjfuZidDZ2zBNaXP+ii/nbZzOBOdjG1PpEP/AU9YAO7NOuPqM8dyna9A1BNbsFBXgjODGKyKy76ClsYtWOjwfvjsWOt+Ck9MRlJjs3iRb8IbWyNx3G4bOWhtQZUuE6kR4jJW5wGnzwnTR6SguPEKildr3J/GKhZxs23/X6gzoqlVLGNKii2YEBGJKMWCCWXf4BgokX1+Rp9u+3x2OvaiAh+2AYiIRVyENH8PjgX9FoZU/RW06NOd1iUuRfYbmqSxBXAGvYxEREOVcK2wdnWywrmGiMj/GHiQtLagSpescNcwDFHRtsaAnbZzOINkzItQ+AwAkOzU6Go3FKFpUSTQqPT9Dnx4GliYqNyIaP+kGUmL5to1cgWTEaV2QV5bAb3ierlTftmyz1cg6olYoeGprwiMu47+di/WGVefOZUrEgtnA3EBGKxqP18BSNulrRlNOg2aFLsjiN//pNl5Jn0EYDyfRggSLJyt8FFbM5q0GkxxfL+2Ak0ush2cp1Opmx4cC3yutQVV0ZHOdTZQyli7D5oVJYA+TVZX7LvMWO96O3W16UCZToscoxE52hjbXcc+u+RQoKvLj8FyPaBfIduHdt2lbNk6dt2l8k3C97S5qDLmIkFWf+Rd5PzTZY2GlNoKNC2ai/CIuVgoBZidvuN8/LLvvhcgWWVENCwNvcCDPs2hb3Ma9HZfEC/oVBoQato/aUZS5GTFz6ZEatH0iXTSl81/O/Cqw91uR3Gr89D0um08gQ9PR2JDivJygOtoMkYiSuXC+lqzEVGPKDUwHRsTJVgubZ8PktFidyfXVfnVtp1wV1VoEMUO+h3sAWOdUfjEkzrjZn2Sb7vaEuREiwGKgAlW2RqHL2KXLUOktQVV+lw0rVPrTiJmSMjWof18Bar6WJrb01gbnRVY2LhFIYjQgbLtuYha51hvOlD2erNq0Mkd1gtON+rl4DBh94pm7F1tq2MBV8bZW9ByLB3QlaKlsQipER0o020Hdtm6zGDFPtSJ+8faFUmfgnCEIVVvxF6t2EUpO1bY/x8k27rOLKpQ6JJDgS4u+wqO6wDdMXFftxmQsR14Vd6FKN8Ea4aV9H52rJA1ZcxDkjYP1WKXtbr8GJx5wtY9buHp7eyeQy7IzwdhmLdIudum8/HLvvte9Z4+umkQEQ3A0As86Ert+jcL/e7l5H3Oi6xpzn0JfyQSVc3XVT+3Nd6k+ZdCZ1SJKMvJI8/yxpgiF3eh4diYdaRF1CTp/2KffGOeXcOn7/KrbDuHu9yBeAfbJdYZlWndrTPu1Cf7bVf3QQl0T0iNx0AJVomp/o1X8Cq2299Z1uZhrZRpoNSdJCIFr+5ptgZgXkQydEoZCP2ZZvYWcfsl44zjAIptBmREC41ax7FHhO5PmXb11dM7pNYLzl3Aix4E3Xyidp8YfLH/DQZUGRVdR5NRHoBLgx7NaGoTgns5Wtd3ENs/abYLjiZsNbo8rtAQ0dpizWDQRMcId5kbm9GOyYjSltjGMVHUgaZGMXsiOgaaaCFLRjGLjghwyggLT/Sku4VtEF8ef7wsbQQ6C+3//pjm3UX8rw0jcG1DEADg4Dbvz99nnirAjZx3xL9foezRAc7v0Zfx55x3cCOnAPsffRl/zinAfq8UlLxp6AUefGWSRqFRBUip7LYGmiQW245FIudIXw3wMKSuE75X94H9nTyl70ZFG5Wj1BAbuoonEhPO6BXueosNH+XotbvlFxqRdlkDK0qAgLiD7Wf3Wp1xWZ8c5y2/aBZTkAMoWBWesss21oF8TAGX09juChU/0gK9UneAAU0Ti23HZEE96x1T5WCYtfuTjDC+hWyAzIhIRNkFUTrQ1Kh1rpsRKXh1j8odssFgveuvlPEh8ncZXZINwCoLwgn7QwgouepCkbTHaB8cdTXeCA0djkFva9aLFEiLcTHIn/3AvUoDHxNJ2s9X2Ae6tLmocudGB0zYHV2EKKmuHUsfjOLeWz61YGxWr/hnARJsgQKX0kagc5sb3xuC9q99Bzeib+GVvc9i4t5nMXGvAYhaN7B5xs7Ap5eexcS9m7D5jzvxD3s3YbOXykvew8CDJCIFG3SOdyHE/rgOdxWtZqdjb2Na36NYz06GTp+G5Y1990+OW50HbNU6PQZwd624POQiwe5CxYTd0Wmq/bzDUzLtRsr3vPxCv3P7i+orOK4rYTrePVhnXNYn67IroFfKMtGrDLg5KDpQVyurr7UlyJHuDkXMxULYntbSbiiyZvgoj1Lv3B2gb/bTWOdba5IFrjpQ9rotU6TuSAUW7lLrWqAW3HIkZJtYf6uy9W6vNcnqrQlvbFUfK8S3OlD2OhQH9wycMroi3MFWPx7GYluj0RbochD+SCSqBvnJLzQIJmmQ5OqYF5GC4sZSlW5oYraMGzcGiKTzgWOgqnoP+q5Dbc1ogu0mRN0HJb4v7j3NgkezLGj7XhAO+rso/vLoy/jRmMt4pWAniqxvnkTqsdf9WCgaLPf5uwDeJ6S85oivkvYYUZzi3pRx2VdQbchEQnSu9b2kPUa0qI4YH4bUdenQrNin0jdbEou1e7TAI270T45IQXFjpJD2Jr2nK0VLtrg8/RVE5cdAI3vCge7YFRSr3gmJxdo9QMJ2A+bp57oofzoUt90jQjeLbQ5Txj2RjqrXz6E9JQD6XA8Y64zzsqU6E+nis7lQ2nYbmkuge2KL03QLdUYcPN+BVNVtu7B2ZwAAE4xJREFU40thwAcx0KyQXqfjeKO0bYWnfFi3nzYP1XrHRrAQrBHGBtFir9GdLjluTDOpGQej06xjPyTtMYr7pQNNjfbbFhD2m3DXUxjbY6Eb3YLisksRFa2FZqvjeldAE23LydQdu+J2NyPvuo4mYwlyouUXvOL2CpgyOpidDN2KNGj0Yjn1pWiybmOIdWguPtRpkWMU3kraY0RxBCD1v07QxiBHV4qW7C2o3pOJhOgY6+xt+5mGkrgn0rF8RQz02jxU61NQfKwFGqdzy3XZcUHY13GAGADVIiE6V9j/2Ubs1Wllx+10HHd5zqB7ltjN4lWHY2N4YjKStlagzjGo63D82qCLwXLx+KvTMePB9yyo/jQICWkASgEkBeHaj4PwoPjpkaxebEgbgc4EAAhCZ2EQzv22F+/PGIFffM82lyNZvdigOP8g/LEwCH8PCNkWuy3C20rLAYTMigTxza8t+NccC/6PN1fXQWbUVOBTgyzo4GgJyjatxg9GiS9vVmLiG0JQYv/adxDfWgnMnI/vyT7bv/YdrBgPYPw7uDGpEhNNE/DnRKCgYCeKHn0Zf04ELn01Az8Y34pjH9zCjxKB3306FSu+Owa4cxmvFHyGFTn28wSAzBW/wkvfHSMWpBXHxCyK/WvfQfyXl/Hwd2cAfz2Cfzh20ifbajgKslgsFn8XgoiIiIiIKNCNzep174tpI9D5iKzxLzq4bQQSPunFozeCcG0hkC819uXfV5kWEMZ1yIYFUw5a7P5/cNsIrH5YCioIAYi23/ZiCdSWA5zcGwSc6cWSvkbMdtBZaJ80P3Hvs25NJwQPnsXc95Q+FYIOMz+1Neb3r30HP/pSeC0EGKQAwDqcy0nApx/8DKl/dJivGGywBh6eELphWD97whYwcDVPucwVv8ImGGzTOGVtuHYj5x03vzm8DcOMByIiIiIiosDUdgPAxCA8+C3gF4VB+IX0wdfA/wIUsg5kmQwA8KnyfP+rWsqEEDMrJgrTKi/Hgr92BmH1j0fgYJVaBoV3/eXLr/CjB5cAUMoSmIyHcRkFsgyCzabL+FFiHDLF7//lkjR2w+uouTkf8e6kXd+5jGPv2b+WlvGXL79C55cfiPO8jk/vJMi+uA7npEwIALhpe8LcXxrdDzqQDQMPREREREREvpYUhGUPA+VVANJg3x1ClS174dEqiBkLHi5XbTm7peyIEegchK4WRV/cxkvRQiAhsBvuUvbDs5j7RwhP4ehzXC3qCweXJCIiIiIi8iVxnIU2KSvhhgVfPByEk309WisJiADwV7E7xEFPgw59LkcY9PIcgvCkO4/5Goj3PsAfMAMvrZU/xWIdzq1dB+A6PsUMbFqxxPrJ/tgZwKd1gx+keHQCHsZtXBO7XOyfxKiDNzDjgYiIiIiIyNseFgaIlJz7rWw8hSoLpkwMQuePR6Dzx8JbX/xFGK8BpRb8V6FtcMnyT4OwunAEVgP4L5VuFqpUlyOM8TD3W7L3PBzrwXMnkVogjJNwI2e++J4wxgIApBZMxrmc1biRs1r46GYlJvpj8MY/7sTvYt/Bipx3sALAX262Dn4ZhiEOLklEREREROQGtweXHMb6O7jkvYqDSwrY1YKIiIiIiIiIfIaBByIiIiIiIiLyGQYeiIiIiIiIiMhnGHggIiIiIiIiIp9h4IGIiIiIiIiIfIaBByIiIiIiIiLyGQYeiIiIiIiI3BByn79L4F9K6z8y+P7BL8gQwW1jw8ADERERERGRG56dHYQxIf4uhX+MCRHW39Ez03+AMSNH+aFEgW3MyFF4ZvoP/F2MgMHAAxERERERkRt+mRaEH8cG3XOZDyH3AT+ODcIv05wDD6899XMs+Yc5vLsvMzL4fiz5hzl47amf+7soASPIYrFY/F0IIiIiIiIiIhqemPFARERERERERD7DwAMRERERERER+QwDD0RERERERETkMww8EBEREREREZHPMPBARERERERERD4TUA+C+fa3v+3vIhAREREREREFnM8//9zfReg3ZjwQERERERERkc8EWSwWi78LQURERERERETDEzMeiIiIiIiIiMhnGHggIiIiIiIiIp8JqMEliYiIiIiIyD/+4z/+A/X19X5b/vTp0/HP//zPfls++Q4DD0RERERERIT6+no8//zzflv+4cOHGXgYptjVgoiIiIiIiAAA0rMH/PUvDU/MeCAiIiIiIiIAQgCAQQfyNgYeiIiIiIiICACDAOQbDDwQERERERERAKC3txdBQUGwWCyD/i8NXxzjgYiIiIiIiKzY1YK8jRkPREREREREBEDIeCDyNmY8EBEREREREQA+1YJ8gxkPREREREREBIBPtSDfYOCBiIiIiIiIADAIQL4RYF0tbqJ8YzziD1xS/PTSAfXPAsNNlG/MQvlnA5yNqaCf63kJBfHxKDANcPmOZdlYjpsuvnLzRFaf33H8ftYJd78t54P1U1rKgfh+lo+IiIiIaGjr7e2FxWLxy780fAVY4AEAEpHYVAmnZvdn5XizKRGJA5jzpQO+b7T6y6UD8YiPrwRW9396521zCQXFU3H2wDKMV5ros3JkxcfjlU+mDmi/uFu+gayfJ2ZurEHhUsU1FvQ7MEREREREQ99FFD3/PIouDsKi2t7DjueLMBiLkutvV4nLRUmYd7jeb10t/ud3O/D8889b/3b87n/cmOoiip7fgffa+vian/bFcBGAgQdgatRVvOlwx/nmx5WY+sP5fipR4Ju5sQY1NZvg1S302SSsUgs6AMCEZSisqUHhT6d6c6mKfLJ+RERERESeuliNttmz0Pbue3CnWStMU4Tn/28/mqwRT2HH4UzM8nzKfuvt7fX879IvMW/ePJyzPAuI2Qv9+fOGv1u6A4cPH8bhwzvwT/9vR58Boov/txzf2bkDT0X0MWM/7IvhJDADD9r5wO//IEvdv4Sjr0zF/O9cxXn5F00FiI+PF//kXRyElHz5+5cOxCPjCPCWLl7sFnAJBfEFKD+RZf3OzRNZsvkVWLMuhGwA2Tzld7vlZTjwB/sVETMCpM/Vsy3ELiZSef/b/lPhbr/wN7AuAPLtYpuX87YRy/7UAixw2BYDX24B7LeSfN0HmJHyWTmyNpaj/ICszPL9Y9cdxL5M5bLuH7bsD4WymQoQr3sLOJJhV7cKTgj7Wj4PxeWqloeIiIiIhoKLf2zDPy1dhn/C/8PFvu6SD0H9ylaYkYnf//73yHwcQMAMMPl3mPVPf4e2G67CQ/+DiKVuBB1owAJzcMmJy7AmKh5HTcuwKRaAqRJXX1qFmThq+46pAPE6oLimBjMBsaFcgKk1mzDpxJu4+tJZ1MjT5TfWoBjxqNTWCPPEJQBvoRJnUVMjfm9pIWqWCv+9eSILr5y4aU25f0tXieKaGmzCJRTEv4nynxZiGcqRpbuK3PdqsGyCWKYjQK61PJWY/14NCicIyyuIz0L5e4XCd2UuHViAvKhi1ByYCaGxuwCImi9+JpS5ZiPEz15B+WPO83DPTGyqqcEmSOU5iktLN2Gm47b5rBxZu4CXamqEbAexa0HNxpn9WObN/7+9+2lpa1vjOP7raxBKdgW5gU4uhdCgNz1o6SAUBAvZ7ewO0g5iucmZeHwBR416X0DbSbOLdVAd3Fm7Ay1YioNylFNvyhYHd1TYRbAJgm+h3sH+k51o1SbZbY5+P1BMuv8t13KynvWsZ8ueKkTGY0ePRgrSbPP30e811cI+eqSd2rQ6eZIkaXNRbsHvr+1HGnmfVa3m/cbemN7U45xOaFPE9kpkXALTqi3Ju6/fHzuSVt9Ja35/7TwZUUHLqtVS4XPHnyRVmxqUvRz5ewEAAMBfjKMPexmZCUPKSNbHuibuGJK8NH9LpjJbFdkNSQlT5fkJGU5FxYojyVGxaMicL2siUdebubJ3nqR0yVIpHdwjo0TVljNckpWrq/xUKs5PyJDkPCuq8tFvSnB/ydsG8FTKDNqyP6ZV6mJlvqu3Wnw9lNSs19A/b7VwVCl+0FCuIbuqY8dAwyVZ/0p7fTm3K9PvQ+dZUfZgWeVhJxwLtY21kSurfMX2x7k5npL8+9lhdkzLsQukLzMeJCl1K6/V9zuSDmQvu8r+0prwf7DrKr8UmaBeNjX5YFXr29LAUFIbC+NnWD3Pa7JlL39zFXx8YUMbn/eaZ4bPSin7YEPuF0lfXGl2tjmJvH5fM6P+5/ZjSun+rLT+Z/sa94HcT3kth5P6AZmFfOSYn4kwMqKRkXEtbvrP7lAzq6OgVblyjyuE+cXVxuain+0w4q3wf3I7XJ3fk6sZzYb9nNL92bHmsc0NLU6MnN6msxqd0f3r3seDXdfPTGgf0z25m9Gxj7Yp4kpSYy8KZ8oyyReCLSnt4ykN5CaVf7GuHQ0oeXVDixPdZpAAAADgZ6i/ttXIpGVIMoYz0pbTst2iXrWlX700f1O2bEdSuiSrlPYmtlYw4bX88yxZVkmqNGsH1Ku7umFZ3iQ4wnlWVEUl/xpL5cyWytHtGw1bu//w7tfNvDYIPHT2T1IX1/eWI7sqZYaN8PuWipExKGsrUw77s6SKVxMiMaFiriH7dV1yKqqopPId48jdm2NdUqJaVvG/N7x7ldJygm04jTcqz20pMx8d6zPUkziH+jPjQfIm8csLsrezWr866WUNnHXCfX1atdq0l+7+cEwzx2QZHOVlMiTf+Kvv24808v7kKw523TM26CR7cjelb1dJOGv7T3dQ/U3jnydVqz1WmG3wLQ+WO8xwaLPv6uReymu5mwyHU4zNrh0tFLlvyx1NavC0iy+belwz/WDNhvJLQbZM51JTNdWmvABXYXTm24U7AQAA0GfqcrakzK/+JDSRVkaWnMaEDD9V38gV/bR9L81/60tdSrdPWhvabdTlzBVlh/9naKghJSQZOfOYwEFd9b20SvPNI8YdU+niBzlKe+cnTJk9WEn/+vWrLl26pMPDw+//eXjYEnj43ut7oV4tq1j1PqdLVmQbRVpmGEBoaFemipGAQjpnyn7qqH7HkHGnqMxcWcVGWiXr+E5tjnVCQwlDQzn/PGNI4V3ru1J4nt+GnN2SKXNR9G3GgzSgm7elxYeLSt46Oi0dGEpq9WFk5Xjf1vMXeWUjE8PUVE1rx2YZHGPflaukkv4Ef+f96ukt/CUrLaw027C9osVN//OVpLSw0FJ3YmVBRzI3vAyK1UgxzQPZy8Gz/RXy//RmfXzv84bG/uZPt/f/0PrmN068ktTYi+fdvxZUki7fVFaLWgmzT3a0shBU6hhUcnT1SCHRXvEyX1aOZhec2KZj7pN7rNpSkIFz6lOVvLqqQqQOyEH1uVYfZCPBlZSma2ua0br+6EUfAwAAIH4NR1uNuuy54K0JZdmNurY+nrnEZERaJcsKV9u9Vfiet7hjHW+16PL6XmgWl+xmS4Mh49RVSnyPPg48+CnqkdT5FtentTbrqhBsB5hYV/aNt3IeLRI5/i4bpvmnbuVbCyhG+Vs1gvutK99+xlGXTc1G2/A+2dxqcdnU46VkyzYCLR2fuZCaWlZyYdw/b0G6nY8cW9PMp+Z2gW4KPab+OSMFz/m3q+Ro5Fi0b460vZuilgMyf5+RG24XWVcy3NYwIPNJ9HfvccHF9r+RsHjlSW2KiBaCfKjm9onrWeUjxSXbtY/Z+Lus1qaC+h3NbTPrt2ep9QAAAPAXUf+4JUUmtZZlyZo3par9na9YTGgo4Xip/GdmyBh0VIlsrai/tuUM3+j5WxY6fSOF9+9QUufX/zgJDcmWFRkDp2pL/jaa+uuy7MGyrJJa+vy7GUNS1YpsrWjf/nFxXDqMv5IH0PeCIp7dbqUAAADAeRTUZWjPTPBqBezetWR+KctSMawH4BWKDL47qhQrchQUlwy++/xCkXrdeo+gaKRXXLKtGOIxxSWDIpSdqlQqunfvXudbLf73XBN/junN5N87uv7ly5cqlUodt7/e3n8hr7jkjZb6F21jEBSXdCoqVuQX6GzWgjhaXDJ4TtvfRvtYhMVFPRe1uCSBB2Df1m8TriZjrDUBAAAA9LtKpaK7d+/+tOe/evWqq8AD+lf/FpcEYrTzZESFF8E3r4AnQQcAAABcdKxLIw4EHnAheW+X+NmtAAAAAPpLV2+16PInzq++Li4JAAAAAPixOn6rRZc/cX6R8QAAAAAAkKQf/HYJXBRkPAAAAAAAJP28bAeyHs43Mh4AAAAAAJK8AABBB/QagQcAAAAAgCSCAIgHgQcAAAAAgCTeaoF4UOMBAAAAABBiqwV6jYwHAAAAAICuXbumt2/f/tTn43y6dEh4CQAAAAAAxIStFgAAAAAAIDYEHgAAAAAAQGwIPAAAAAAAgNgQeAAAAAAAALEh8AAAAAAAAGJD4AEAAAAAAMSGwAMAAAAAAIgNgQcAAAAAABAbAg8AAAAAACA2BB4AAAAAAEBsCDwAAAAAAIDYEHgAAAAAAACxIfAAAAAAAABiQ+ABAAAAAADEhsADAAAAAACIDYEHAAAAAAAQGwIPAAAAAAAgNgQeAAAAAABAbAg8AAAAAACA2BB4AAAAAAAAsSHwAAAAAAAAYkPgAQAAAAAAxIbAAwAAAAAAiA2BBwAAAAAAEBsCDwAAAAAAIDYEHgAAAAAAQGwIPAAAAAAAgNgQeAAAAAAAALEh8AAAAAAAAGJD4AEAAAAAAMSGwAMAAAAAAIgNgQcAAAAAABCb/wMxCqlK0qr46AAAAABJRU5ErkJggg==;" parent="1" vertex="1">
          <mxGeometry x="278.65" y="172.07" width="141.35" height="32.59" as="geometry" />
        </mxCell>
        <mxCell id="QvXtY8XGbGtVJBXb9xZ8-2" value="" style="shape=image;verticalLabelPosition=bottom;labelBackgroundColor=default;verticalAlign=top;aspect=fixed;imageAspect=0;image=data:image/png,iVBORw0KGgoAAAANSUhEUgAAAZ0AAAJTCAYAAADT1cv7AAAgAElEQVR4nOy9f2wbZ5rn+enL4DTIID4EKw00sIx2SIa7ljO3amnv1GkfykoMdSSsOx0stRpIvTGWCg3T17527/okS1rppnulSLKE9HQa7rUa5pgDZyPBgjjX3fGs1REcy4V1J7ozaeI6lnc5JJFeyxsh5EzQDjYYLSbg/VE/WCSL+mWHsqnnAwg2q956663iy/q+z/O+5PcrmUwmgyAIgiCUgP9huxsgCIIg7BxEdARBEISSIaIjCIIglAwRHUEQBKFkiOgIgiAIJUNERxDKiZU7vH9jkdsrD6GuLz4jHl7k/XCS+188hPoEARGd8mAlRJe7Foe7FocvRGqj+8qIVMivXaO7Fsd4dLub8yUSZcS4TvcEEeuuT+f5fouH73i9fEvp5K3fPtiZbgc6+GaHl+90HKZxZJHVB6tOEAD4ve1uQCmIjNfSFiiy88lK9jucOP+XZl78lsJL+2qoeKKkzRMeZ774jPj1d5iZm+f9D6LcXjEezU/heq6W2oOHOXrEw/6nS9CW3y7xq8+NF1HupoGvbrWyNIlbSfPV6m+XuU8jVQ/Wwi+ZVeJTg3xn/DIpKqn/ppdT3+3k+a9WQPRNDrb/BS/P3OJU3Xa3c2ezI0RnTT5Pc/vDNLc/XOSXQeDpOl7tGeTUK/vY9ZDFZzWVJKK+w6XZe7z4Z+O8XP1w6xdKy2psiu+/OsyvPrXb+xnxDxeJf7jIH/5vHvY3lKBBf+zhx+0q359J4mof59UHerhW8tKJbp6/NcH7NNL//cOFgvP5MrffU5m5MsUfdl3mu6W4xrX48C947QeX9Wg+TeTnE3zn5xPZ/U928o1929Q2wWTHiU79K8d4frfx6r9zN/oBiUQyO0L9NMpbfR5+oY7zzo8Os+ehCU+aX/QdplcFUPjGw6pW2B7uhTjePsyCGVlUULVPoeVFB7uA1XtRFq4vErcVpC+JJ2p4aTjEneGHU13Fc17eXvQW3R85+00zg+DrejjnfBBS//kWd/Fw7uYQL/3BKnc/mOKNQIiFG0lWqxVO/btunq/Y7lYKO090/uQkp2xGZKv3FnlrZIiReS2lcP9KD6/truGdnjqknwq5rPL+BYvgODq58BcDNOVFrv1frHL3g0kWJF1bEqo8kyQ9xqsK9hzw8uMDxUVT2B5kIYFOxe5GfD8NMetzmNvigQECd7axUcIjyh1+HcpOq7/a310gOAA8UcGeAycfMM0lCOXFjot01qaC+lM/4Yc3D/OnUYAkZ2cX8Q02FkY7K1FmLgZ567Kqp+aewnXgIO2+HnwHKi3lQnQpgyzkHKzSq9TSq79qGlW54Mkecz+p8ouLIWZu3SJ+J62tGnrawfMHPRz1t9HkeOrBLnNlkcCPJpnR0z8V1XW8dOQk/8bbSFWxUfkXaSI/D3L+4jss6G3a5Wikqc1f/Lj7SRYuT3Hp0rvmMTztYP8/+TpHT3Tz8r5NxpB57eZpBy95/Jw6cZj/ab1jP02ycGWKS7O3iCTvkPoczPfsVT/tBx2bmsNb/Xz9MuvyxWfEr89y9q3LvH/L0qbnvk7Td7wcfaWu+PthS5QRdydaxsvLbKybertiq8tELk9z/u3rvP9hkvugLaj52tdp8vZwStH6Yirkp7FPBax91HqOLIGO2uw23xTJnqzSPlB/3mBbs2VDXLyssrR0R09tamnPbx9Z535+scrd6GXeujDFwk3rsXU8/y0vJ9oVXLuKN1PYOCI6+Tzh4NtHmvnT6DwAq6EPuD3YmPPhvRs6ybf65rUPgMlnxG9cZuTGZWZ8QWZPNW5pIULkp420vflZ4Y5Pk7z/8wne/3kI33SI/oatJf1+9+HPOP4v3iRieWiurkT55biXX90cR520mTD+bYjj7YMFE+b3k4v8cnyRX856eXumm+ctH8rVD3/Gd/LOY1zH7fkkP3/RvynRuXtlkNdOhojn1fWrQA+/eu8OY3+yxsHRn1HX/mbe+wW579nUJlKpThoOQ+Cy9uqtkZ/QUpd7/evy28v0HuthJpm/4zPiH84T75sncN7DuT8f4qXddhVsjfvRn9H1L23el8/T3L5xmdv7OnMf5A/Ig/TnTbU1dZnjzT2W1XsGq6TuzBPom+et+SHe/amncJ72fpSfHvPyRjh/UfgqqTuL/PLOIr88W8epfx/ku89Jsv1BEdGxYVdtI/uZ5zbA53eIr0C9nj5J/dzPN/tUfbTWyKnBHl4+UMXq0rsEhoaZSUI84Of77nkuvFIJTzdyIhjkKCmuvdFD4EOAffh+1MML+jLair2Wkd5/+wyerKTpFT+vNNdS66yBex+wcGFSn29KEnhtghcWBzY/Kfq384z8Hyq3v3qY7x45zDeeTnHtrXECN7SHwup7g5y90cwPD1gqXrlM17cH9fmLp3j+5CD9hw/yh18sMXd+iD8NJSEZpKtnX1awVhcZMQWngnrvACe+1Uh95X8nnlgi8ospwptp952f5QjOrrrDvPonh/lG9X3i8yHemArSO7rG8V/c5z4VVL3o4cThZvbXOtnDMu+/F+Ts+DxxIB7wMnLgg9xrL8pTNB05huvyz7Q2JYN8p3kJ32APJ1o3sOrxXshyT6GiWqHdf5iWr+7i7h2VX5yf4v1PgWSI46/tYvYvu6l/cgPNWofV8ARtHUHzPlZUK7QfaeaFfTVUfJrg17+J8v66IaOT9mCQF4DbM15GrmhbX+oLcsStF6lyZotvsT9vuq1frLL6uaVv/EMH+5/6jMjNy5wdChL5XOvf/+pSI7OdNdnjPo8y0t5JwBD/p+t4udPDK/+khvu/VXnv0hS/vLMKn0d541+cpOqvJml/iIOAHUlmBxA+sy/zzLPa3+s3N3DA797NnHzWOOZY5tLH+va/fTdz8h/r2//xscyl5bzjcvaPZ8J/b92Zylx6zabO/La+83bmw9/Z7Pj7RObiPzeOr8u9jo9nM16jva/NZj7JFNn37L7MM6+9nfkvf1+s3n2Zf/TjW5ad9zNz/6rOPKd39m5eo3L3m226OZ49X+/1zN/ZXejf2220437mF9/Ltq/5zAeZ3+Ud+3c3xzPN1ms8cyu3wK13MheX7tvW/tcXO7LXnn/cOvyX/zCQe95n92We+V87MifPf5D5pOj1We/Zvkzzv71eWPbv72YuHcuWUc4uWS8m87p5vvFMOPdCi+/7u1uZ15v2rX3ePD6ZPWaW986mCvZv5HO1pf68hbZmPrmeuXS1sI2ZTCbzd9eHMv+oyOfjw8l/mn3/j72d+ev/lt/O+5lfn8mWeeZ772TsLkfYOLKQwI5dVfyhzebUeyF+qY9O95/sKRzxPN3Mnxhpns+nuPabzZ+6/nAn++3SNE84eP5bxpcMVol/lN585dRw6vuduemFJxx823vYfLl6Zzn7qwUr73Lpsp5yeO579L9iGSEC8BQvtXeabXrrP9r8EkAqxSd2P6Gy0dTjyrv8XB9N82QnPzxZmLasaPgeP3x1jQil7jCv7rOfN3AdOMx+/f+rscSmfrFhT+sQ71weot2aJvxUS1U2fsPLTz+weY+s9/TJTvpPKYXzDE/U0P6vv2e26+6sqkXdD8D996YI3NNfKEP8eb/Neb8EttKft9TWKoX2F+3TghWNCu3GCzXJXeP/X0T5xTkjxKmjv6cTV35E+cRTPH+iJ3v8FZX3C/O0wiaQ9JodK4ncuQMAVrn9G1X/fw0tX3cUlABwuRVA1con0lC3tfz46m/vEEkscfs3y9yNqUQSy9xO2uTGN0Uzzz9XuHXXH+2mArSU4d9n89qrsTvmAog9L30dl90Hf6+DJmABWP1NghR1VD2n8OqTQd76HFAH+eY/W+TUyc1P1ue3gT9pLpJSrMBV24h239fg82Vu30py+84t7i4nWfj/Etw1Jqe3SIXbw9hfHua7H0zxxpuT/DKqv0efLvLGkWbCgyHOveow54ryr6epWNrM/XVadsPte8C9W9xegf0P8GXi29HL5v9fPfIwv3+2MTbTnx+oratp4h8mWPrPH/DXv71H5P9NEE/esR9M/HaJ9405oK97aLL/SMOTX+OFwzBzGeAy4b8e56Xt/iLsY4yIjh0ry7xvvnCypwrgMz5ZNrYt88a3a3njSzj1/WiQ73/vJyysfAm/dKU42GO3vbqG5yFvhR3cT5kXzN03PDg2esEVjfT/+TEir/2M25/D6p3LjPgvM/JkJU2dPZzyH7Yf/dpgbcPzzi0m0+9HCfR8jzfeS385vx/2RPY7If/2wxAj/2aYmTurwCoLQx5GvvoBP1Q02bFeT5PbWaRCgCptauQewCJ3V4Ati06auwnj/43sd5ZuMnzz/XmLbf1imV8O9fB/TUU3Poj49F42gnzOaf/ZAOApqiz3Pn43DQ0Pb7HFTkPSazbcvvFX2YfT4Tr2l2hUuBp9k7b2Cf0D+hT1rxxjbDLI7JxK9OYtro8qpWnIQ6Ci4STvqCF+7FOoMkbzn6dZCPTwLaWTn364+cd/xRO/v/mGrEZ5o72TEV1wdtUd5rujk7w9fZnFxUXuXBuiafO1FmXXcx7G/vIdxl40YxveOhvKpnS2RBW//9B0omLjqc0H5MH780bbmuaX3/0W39cFp6Ja4dUfjPN2MMT1xUXu3JnC98BXk2VXhaxgexAk0snn03nOnzdGoxW86lEwBuW/b96tOvr/8mfrr2J5cjPfp/mMhYv6aihq8F18h/6v53bu331R4t/5tXzg6/tCXCiY08kv/z+SE8Ds2sfLPZO8fEr/PsqbP8muBPo//4Kmvzq2KUF/f3kZsB9h/l2Re3P/vSl+qqft93iDvNuX952rz3n40c8TNbT3dPPWe8PaSDqqcivVyZ4qqHgye4cWYgmKXQ+kSJkjfgd7HnBgne27KvGPeICoaaNsvT9vuq13Qrzxnl6XMsS7P8tbFl3sc/PkLvaANiD4MMFd6opEO5+RMq0iKtjzRw/4PbkdjkQ6Vj5P8lZfj7lYAGUAn/lBqcT5NeOhGyX8Eex6+qm1/zY1IEoQNlPZCt/4Wv7BqySWFrd2XVuk6h9+zfwQRqIJWO96i13wE0/hetHLj6cn8RlCnbzF7Q3M2lc592XnQ36+yG1bX5fPuHXD/t7Ef5OdH2g6UPg9nNXEHUsq9ctiF8bgeNc/rDMXCPCuSqSY4iVvcc2YTH9OofaBft65ktoD2V+6fGtOLYFNwVb78+bbmlq6ZUaS+w9+rXAO6LcJ+/fYsS8b5X4wz/vFPIg+v8Wv3zNeeGiQHw19IER0QPs28o0gx//ZYf7UGDE9qTD2w9wR0/4XOnDp///VG2+ysGVzGpXbsbU+SreI53mhrIZ/wsjUVs+3RfY186oxuXrlJ7zx3gZXzBUz/HpyN67iifMibfg67UZ67t6bvHFpuaDI3VA3p68UbC4gkriXu+HzKG9s6aZGCQxMEblX5D38YpmZ8YnsfEFdHbVGgOP4Jq8aWaV7QXrfXCw0SNOPN7xymr7zTbPfbRWX4jG/4Lw6dZLjM4X3kS+Wmbm8NS+i95cKvuVqYXP9+UHaentpOVek8t8LKxWNfNtnDCRV/vQHIe4WvBef8f7ZcW1RDLDHd1h+NPQB2XHptcilN3njP+ovPresbrF+k9lR5Jvg7k7GfCHaAkm4N0VX87s0dZ7kyIGa7Aj60wTX1Mt88o2f8ONXrDmRp/hDS3bqrW4/fzjop54lfl3xLU41W7/lfoeR752EE53sfxpSd0KcPzsPjhpI2nwAvzQcvPq6l5mOIHGWecvfzNyLnZxqV9hjXnCKuKryi5TCuR/pXw6NTlB3JpX9kt7u3+eT5BLv/99vMvKBUXWj+YXbNalo5NVTdbw1pD1gFn7wLRpVvQ0s8+vLUwQuJ9lft49ItPCH8lx/fBjQhty3R7/H8S/8HNlXBZ8ucen8T/gVDvaQ3PScyyczw7TNDJs/69Pk1lIu92Mqczes/amCV094LGmbStp/OMTcP9W+HBoPeGm8cRjfkcN8o7qC1G/nufSm/uVQoOLFIX74ykOYtP5qJ2ODl/nmUBRYZWHgm9TNGl+yrSB1J8TF85eJeKZoP7xubQDs+qN9gHbPb7/RTe8TJ/l2dYprK076Ox+gP2+yrVW1X2MPqvYehk7ynV0DnFBqqFhd1r78/PFuXCRtVqRWUH9iHN972pdDV98b5OA3LvPqSQ8tX61ideUDfn7xL7SUMIDDy5+dkB8AflB2nuj8/Ge5bos5PMXzvgnGTilFlmlWUH9qkh/f8/D9K5/pE+ODLNgYxDU1Fh7b9CcncU29qXX+Txd5419r6YWm0W8BT/HSqSGa3tO/qZ6cZ+Rfz5tHu3xT/DvnJN/sK6XoQEVDN38+vsy3eua5zyqp94L0vhcsLKjkXvD96GV+Gr3MT+0qfbqZH/+5d8Ojd1fnOOeW/BwPJaGgDRXs/26QsZpJvmkjOru++T3GXpyn971VIMmvxnv4lbHT4WX2Jw7OHh7c+kS//rM+t+ftdjpo/9GkuXLNZLeHc//+Pl2vTfD+p9rqvp/2Fd6rXa0DzI7a/GzLFnG9GuSdz720vRFllXXeo43Ud9jPy2+c1NLRn99h5gd+ZgB8U/Q/YH/eVFv3/Uv+zPeONhhklUhwkC6jezypMPZXXuIveG1EB3iyjv4/f5P7/3uPtuLw00Xe+sEib+UVq9jn5Vzg4fwyxE5nx6fXdjn2sb+5kx/+KMT13yzydk8xwdF5ooaX31xkcXoIX/O+7MosoKI6W9cZu9HpvmPM/mKIVxsqzdHSLkczDXv1V7s9XJgLcspS7y5HM74fhZg9Vbf+j1p+Sex55U2i6hRjvmb2V1seoE9Wsv+5Zl79wTjvDHuyv9nmOMzYdw/z/L7sdfJkJfsPHOa7o1Ms/vpNXt7M6ucnanhpeJp3fuTlJbPOp3AdOEx/cJ53Tq5xb56oof2n87x90tL2px285BvnnZlu6rf0I451nLoW4sc/8PLygX259+RpB/sPHMb3g0nevXmZscP2iy8qnvPytvoub/+gk5eec2QXYDztYH+zl7FpleibNl9WfCAq2H9sisW5SX7YaX0vK6ja18yrPwhy/eQmfhL76WZ+PBfkVHO2/RXVdbxcq/f9B+rPm2lrBfWnpnlntJPnjR8PfbKS+le6eXtukvbd68Qmu5sZ+0uVd350jJcPWD7Tep/tn7zM4l920/Ro26Y+Nnwlk8lktrsRgiAIa2H84rVveol++WLmY82Oj3QEQXh8CHR8jUb/z3h/y4t4hO1GIh1BEB59Vj/j/ue/4/03uzg+tUzFq0Gidj5XwiOPRDqCIDz6VDzFrqdraHpRW2++ei/1QL+ZJ2wfO271miAIjxufEb+xROrTJS6e1b7cU6/UFZoNCo8Fkl4TBOERJ2uRvcvRyLeP9nDqlQ2Y5QmPJCI6giAIQsmQOR1BEAShZIjoCIIgCCVDREcQBEEoGSI6giAIQskQ0REEQRBKhoiOIAiCUDJEdARBEISSIaIjCIIglAwRHUEQBKFklPVvr32w+P9sdxMEQRAEC/IzOIIgCELJkPSaIAiCUDJEdARBEISSIaIjCIIglAwRHUEQBKFkiOgIgiAIJUNERxAEQSgZIjqCIAhCyRDREQRBEEqGiI4gCIJQMkR0BEEQhJIhoiMIgiCUDBEdQRAEoWSI6OQTnsDhrqUrlN7ulgiCIJQd5S06KyG63LU43LU4xqOWHWlmfHbbo4x0BPFNL3HBU1lQXWS8Fod7goh5/ASRh9nGgvYUkgr5cbhrGQnn/n+9suY1r1P/moQncLj9zKxsvYrHlpUQXfn3Ljxh3k+tb2T/jPdnJIw5kMn90/tO/j7LOYz3z1pnIVFGiuxLhfw4fCFSxa7H9rxafQXt3MwxlnPmX0POYC488XA+Q8JjRVn76eQQmCfSU0c9wMp15lSbMis1HI0tUbVuZZW0B5Zof+BGRRlRBlnwTZHsqQPSzISWN3x0lWeSpGej+5eJq4B7661NfZTY+sFlj8KYOkl7dXZL6iP9Pw3dJGPdQJQRX4KjAY/Wx8ITODpgNrak9Ut08Ro3+gP4ppfob0B74CsTRGLdZtnsqRXiV6PQUGfZmObaFRVoLmyq5bwXcnZEGXF3wvQSyQZLWfcEs8Z5rX3VpzAS1tunDLGoX1dkvJbToYPmwM28hjwiV4M0KQpnQ2nbQZ5QnpR3pKPTpChAkDl9NJi6Mc+CotBkLbQSoktRaMwbVVpHsG0Bo3B+pGOJnCyjudzRr82IbiVBPGdDJe2eumx7io0QdfIjnZxRpS/EfzL3aw+TAECgUxuJFhm1GnV0+bJ1GaP2xj4VUOlV9HPm1VEs4hLsSDNzLohvOldE6ntUxmKThdFk9UFalARxuyjT7ecEeceEg8y1DuGzPW+CMbVQvFKhSQK+qVyBaOhmcTTB2YL+V8kLrQrxjwr7Zf0hLwuJ9QZPUeZiQ5wZboYr1+2jMaEs2RGiQ2szPiBwNYoxAmxqbcZlFtAiDkZVkrElZn0Q6JggEp6gLQBNoyrJmMqYYle5NuLrVb3MxpZIxrTUXCrkpy2gjfK0Y4O05ac6qg/SoqAJQc5DW4+AlCEWY0skp70s9ClrPtQNUdDOt0Qy4OEfmHvr6I9NaQ8g3xTJgIeqag8X9PYujioQ6Mytv3WYpH5M4FwIPJNaORTG1CX6G4rcs42/K48f+vtk/nUELTs1Mdb2bSQFuUxc9dJSEAFU4nKrxO/lbV65zhzNvFCdXx6IJdhzyEnvRSPdlWbmHJzwOAvLrlHP3YSK71BdwfaqvU4bEUlz7Qq0HLBJQ18N5tQT6LAZmITnibcepKr6IC3Mc20npmx3KDtDdDhIiw8txbZynTlVoeWA5QMZnicALPQplogmwXu/DAKK/sGqxGWbmtLTVr5my8jRSG0YDxVtVIia/+HS0nTaw1z/cI5HzfY0tR7U0jANVtG0527Cer6NouXitQgmF9feSqAGl63QUvSe2Y7EywXflCboxt+017JTE2NtX26a7UEwH9gDcMZIy9nR4GUsNq+J/sp15tzNhWm4h9IgQ3gHYNhyneqgmSWYO5SbTjMHQrHs9sjVhPm5eqEV5m7Iwp2dwg4RHS3khyBnB+ZZUOxHek36qN14cLz4BwBOXGs9QApSZJunyjOZjaQC81uIFtLEY5s7Qkuj6fn7nIfn5si/Zw/rYVv+1OCyTZeliccUXLu1V2akzCDn10xfVvJCq5YGi1ycp+VIYcQCQLUTl5rkrs2uPU77dFnqowRNzhq9QVN6dIwlskKb09GFOHCuyOIFg5UQZwPZyLCxT2VBUmw7hh0jOjR4GVNgQVWzEYS5T4sksh0/zUwoagqVNhcUZS5QUKslRWYVCz2yMUf+euSTL3YrIUbyc+WKgz1Ge4yUhh5V2KU+cs+XnbdaD2tktKUFAkXumbBRKmk/7qRXyU1JRsYVet3+PPGupD0wBeukL6s8flxXBjgbK5KGA6COo6OJvFRvlJHxqHZ8fho3PEFjn5MTeRP9VZ5JZuksTPk2dLPYOs/pNb5ykLoxb6Zljb9Z93qiKpQLO2f1mpniMvLQ1hx1Hf3qEHFlkEb3oLbJN0W7p5tZX5C2jlrs9Maotz0wRdzdSZtby/E3japc8Ewym6ilTamlFwAvs7HC9Ei8T8HRZ7xSGFO1Mlp7OnHoJ24aVelvsKyIyqPKOJ/RVmWI/9BqLVHH0VGFQF8njtgQi8e9EAjS5g7qCy3Wp8rjx9fXSa9SS3x6yf6ebaimckQbuffqr5pGVc6sd0hDN8lpbcm0QdOoStJ2JVcd/dPzOHwhc5WYXZmjrXB+7xppOLS+sog/+77hZTbWDUB/bEpb/mwUVoZYtOm3APU9U8y5/cyo/rz6h2nxKYzsXeIoWorQ/Pz4/h1jMWgZzr3G+kNe2q5G6W8oNrASyoWvZDKZzHY3QhAEQdgZ7Jz0miAIgrDtiOgIgiAIJUNERxAEQSgZIjqCIAhCyRDREQRBEEqGiI4gCIJQMkR0BEEQhJIhoiMIgiCUDBEdQRAEoWSI6AiCIAglQ0RHEARBKBkiOoIgCELJENERBEEQSsaOEJ3IeG2OzXBXKA3hiVzrYWN7Tvk822HzmI3YEQvlSCrk19xdDVZCdBl9yOJRk9Pnxgt9hiLj2f5mOLiuVV4QyoUyF500M75a2gJeZk3DqClaLCUMK93FUYWFvoE8MVFzbHQjV4OlarjwyKEJw+mEkybL1sgNOKP3Lat5WX2P0d9UxmJ5ZmcrIeZieR5GVivsHvGUEcqX8hadcJBeFXzT3Ra/+DrabUyyqvY6AZX4PWOLQpNidcbUnEM3angmlBt19MeWuHDEkbO13pM1ONP6kB2aQ6tGmpmBJC3Hi5UVhPKmrEVHi0yyfvPrl7U+HJy0tCqgznNtBd0y2ktLa/E6hJ1MmplzCd2VFkvabQCGs4OeyLhC/Lh1EASsJIgHOiV1K+wIylp0NJy4ivrFa1a6DnctbUyRjOU+DFwHmmnSU2yRq0HwNfPCl95e4fEjzYxPIX58knajr1V7uBBbIhkbhoFaRsLafNBZp2Y7noNZdomk2sycMkGk1JcgCCWirEVnj1MBgsyFi5fxTS+RnPZCoLNwArf6IC0KLFwZ4GwAfIck1y7kE2XEPQDDS4ViAkAlL7QqxD+6zvk+lYU+RYtoOoIs9CmWxQQ6ep8ThHKlrEWnyuPHBwQ6LCPHlRAj+R/0hm5mfUAgb8KXStqPe0FVWchJvQkCaBHOPC0xS4RjU+baFRXX3oP0m4tZtIFO06jKhfz5xXCQXhzs+bKbLgjbRFmLjjb5qzKmBGkzlqMqg8RtStYfGaIJTaBi1h0NzfgAfM25eXhBYJm4aulb5rJp6xJohblWm5SaFevy/Q6YDWQXJwhCufGVTCaT2e5GCIIgCDuDMo90BEEQhEcJER1BEAShZIjoCIIgCCVDREcQBEEoGSI6giAIQskQ0REEQRBKhoiOIAiCUDJEdARBEISSIaIjCIIglAwRHUEQBFzm4OMAACAASURBVKFkiOgIgiAIJUNER9gimhW4wxcitRKiK98WQhAEwYYdITqRccuvALtr6QqlSYX8ONy1eVYGXybZXx4u8FApRnjiwZwkdfdK7Rp1kXA/JIOwlevMuadIHk/SqAzi2iFeQ6mQP9d3yXQINX5hWiOnz9kIcmR8E/1AEMqIMhcd7UHbFvAya3qZTNGyHU0JzxPQ/7tw5br5cFqL1EeJBzvnvSQL5otK2gNLBe6oW6baw4WeOmjoJhkrZmBWTmiDhtMJJ02WrZEbcEbvW4ut85zWhaS+x+hvKmOxPJ+mlRBzMXFqE3Ym5S064SC9KvimrQ/aOtotxlnxc35zRDoSJnfkao5S9SjFHMnqr6371oliIleDgJexUQXUea7p0YsWcRnRTPY8/ynkp7FPBVR6Ffu2jYQxvVi6fP7cNoQncHQEAc2SuysUK4h0jGjPHKVbfV1yrsWIkrLbc6NHSzSW18byGc3X0R9b4sIRR87Wek/W+6Zqr7PIsVYDwDQzA0lajhcrKwhlTqaMCZ/Zl3nm2WOZSx8X7vtk9ljmmWf3ZbyzqUwmcyvz+rP7Ms+8Npv5xKbM6zfz6ro5rm9PZS69ti/zzJlblvJ259PrP3Mrk/l4NuM1z5t/TG477PYZx2ntGc+E9bZobdDb8+x4JpyxtjNTsM96bWvfu7w6C7C2Oe8+5py/TPh4NuPV3+9cUplLr1nee/19zu8P4TP6/bg5br6XgrCTKO9IBwAnrqJWwuDaWwnU4MrJdmgRhxZpaNQf8gIq8XvZqKVl93XmVCDQicMsr5XJQU+t+Q7VQbUTFxtPseXXsdCn4HDX0hYASBD/G213k7MGqMTl3lh1dxMq2Flw65FKm5ELZJm4iq1zqhYpdZppQ6ONTa0HtdG/7roauFruiwzSzPgU4sctttXVHi7ElkjGhmFAi0pTIT9nneu4iApCmVPWorPHqQBB5jaxWOBv9Acp05qPvYn5AJ1gLkDuQ9g3pefvl2znNzSR0tJc5kPakmLbDE2jquVck7T/g83XAWniscKtkfFaHMo8LeoSi6O6CqcSNvbeuihfaWYxpjK2o6cnooy4B2C42LxWJS+0KsQ/us75PtUcNDg6giz0KWWUfhSEjVHWolPl8WtC0WFZsbUSYmSND/p/tUQAuRP5dbT4gEDQErUcpEUBAvNm/ZFQKC+CieoiZRGmaS1qmrthtEOPjlbsHvA6uuhlI6Q0M6GtRhDagzBXkHUhUpp5odqIhICqwms02qlFNHokZG1jYll7bY3wypI0M755WmKWCMemzLUrKq69B+m3DEyS016aRlUuWOYXBWEnUNaio03+qowpQdqMyW1lsPiDHfjjQ15AK3/6Su4+LcUG2bRUJe2BKXxk62/LOyYVmtRSTs6a7EaLgGAKYy2OgfmcYzXRNBYS1NGvDtGkDtLorsXhVuhdb3Fbg5cxxVhI8Ld5dU8y6zOir1ocvuv8z60K6PWfNVdXFV5j140/pkUxUn2TxM1IR2+jnm50dARpGi3ndNIycdXSt8zFJtbFJQpzreV8DwRhc3wlk8lktrsRwmPCSoguJcmJh7XsWhCEHUeZRzrCQ2MlRJcyyILiYM92t0UQhMcWiXQEQRCEkiGRjiAIglAyRHQEQRCEkiGiIwiCIJQMER1BEAShZIjoCIIgCCVDREcQBEEoGSI6giAIQskQ0REEQRBKhoiOIAiCUDJEdARBEISSUd6ik289vSX75Hyr6q21YWQTnj7CI8hKiK7xPCuJ8IRuWU6efXfWtM1qKZ77p9tt5O+znCPHTrxoH9L6p92+VMhfvN/a2rJn6yto52aOsZwz/xpyPn/hidz6hR1BeYuOjmF8tjiqsNA3wMymzNPqNB+UgEdzw9ws95IsbOU44TFDYUwtYuTX0K1vn8KnDLEYWyIZ66Y+PIGjA2YtPjuzdOYIj29a36cOEe8o8oBWFOIF7qyaj48t4QkcSpITVn+fnjo08dANDE3fH2izCoPpC6UyFuvMip15XUvMugc5bREXn6U+q39Q5GqQJiXBWTGy21HsCNExqNrrRDNMSzPjKzKayxl5ThDJj3TyRnvWkWyXz587ogtP4OjIuoZqo7zcUaE4R+5U0sycC+KbzrWJqO9RGYtNFg6Mqg/SoiSI2w2Y3H5OkHdMOMhc6xA+2/MmGFML7SlSoUkCvqkCwVwctRMGwxG1sP/WH/JmjfyKEmUuNsSZ4WbYrHW78Fizo0RHcwJVcO2upD2QHUE2EaRtPGqKRNYSOv+DGWVEGQR9v2aClhWsBbdfGwEqsNAXJNLQbVpe+6aXuOCBGV8nAX20uLXIS9g2DHM6408fUGhoZnvaPv8G3tNl4qphBmilEpdbd5K1snKdOTRX1wJiCfYcctJ70Yh20sycgxMeZ2HZNeq5m1BtXV6r9jptRCTNtSvQcqDQ+TRyNZhTj2kUaE0DhueJtx6kqvogLWzNul14PPm97W5AKVjoU3D0af/3TS+Z1sKR8VraAtlyhijZfZAA034ZS32QIP432odbcwetxOUG7DIbK9eZUwG1E4flvPF7QFG7Y+GRwTelp6F0whM4rhovFMbUXNvqhzF6D3TUan1OGWJxrRRvg5exc0Ei1FG/cp05dzMXgLmH0IbcBhl9N+961UEa3YOA9hmzRkv5rwEiVxO0HNE+Zy+0wukbadrFuntHsCMinWzkond+PUXWxpSWZ9fL3U0UyYGvUV8yNkn7P9hkg8y8uE3+X9gh1OCyTZeliccUXLu1V9p8iMoYg5xfczFKJS+0ammwyMV5Wo4URiwAVDtxqUnu2uza47RPl6U+SmTt1s0oHUtkRXZOZ9pL4Nw6i25WQpwNZCPDxj6VBUmx7Rh2hOgUoE/u+w7VwUqCuL65/pAXUJm7UWSepaEZH1g+IGlmQvkTuGtQfZAWBQjMmym5SGiLq+KEx5xK2o876VVyFwdExhV63f6ciAkqaQ9MQbGFBDpVHj+uKwOcjRVJwwFQx9HRBG05q9qijIxHteP7lNyVcOEJGvucnMiLQqo8k8zSWbhqrqGbxdb5nIUE+aRuzJsp6qRl8cHaoiqUCztTdHTxCHTU4hiYt2zv1udZlMIFBgDU0a8O0aQO0uiuxeFW6E2sdy4vY4qxkADaA1P4CNKm57jbrjz0qxO2BeuczgYXiDR066vDsseddaq5KTyTOvqnyROLwjJHW8F1fO2VllWeSRZb5/U+XIvDPU9LT512jtgUWOZgHOccLBbMbWrU90xBR+H8VZVnmJYrWfGyzuk4xhds54LqD3kJFKzAE8oRsasWBEEQSsbOjHQEQRCEbUFERxAEQSgZIjqCIAhCyRDREQRBEEqGiI4gCIJQMkR0BEEQhJIhoiMIgiCUDBEdQRAEoWSI6AiCIAglQ0RHEARBKBkiOoIgCELJENERBEEQSoaIjiAIglAydoToRMZrc2yGu0JpzfXRnbtd+yn2NDO+3O2OcfnJdUEjFfLn9IdUyJ/tJ3m2A9Z9Bb4zupGg3XGEJwq2WfvwmnVZrbLtzpFTtsj5TaKMFJSxbLNriyCsR6asSWUuvbYv88yz45mwue1W5tJsKpO5OZ555tl9mddvalvDZ4xy+jGvzWY+2aZWC48itzKvP7sv4z0znvGeuWVbInxmX8Y7m9Je3Bxfow/dyrz+7LHMpY/zj9P73pnxzOuWYz+ZPZZ5xjjnx7MZb05/zsNy3vBsbh1m2yx8MnvM/AwUXo9dGy2s1xZBsKG8I51wkF4VfNNWE6o6Wy/2PU4FsLMPFgTQDM6WuHDEsUYZRTcnSzNzLsHYcBEztZUEcSXr7ll/ZAgSy2gOoUske5pzit9NqJrLLUC1hxO+tftpU+tBqoB6T/b8VXudNiWjnL/SzFFbu/Qoc2QdTOuPDIGdpbSv2dbgTRCKUdaiE7kaBLJ+82txN6ECTlyGza/pDrpBF0hhh5JNN80dmtQf0svEcRIfMNJQeQ601U5c6jzXdOFI3ZhnIZYo6gi6x6lYXDWjzAVU4vdyy5jpt6vNXCgYVGkimO/WmQpNQjGXUYuNu9lm8zg9bTgAZ2xdTgWhOGUtOhoWIbHBsNJtCyiMqZaISBliUfdvL/wQC4KBFgElY0u0XLUMUNQgHNe2J6ehLWdesI7+aadpb3064aTJ7SxqMV3lGWYs1mlaS+MrHEjV9+jnOjSfN0eTZsanED8+aUYtGlHO9zlpsY1y1qbKM6mdaxhOF1i6C8LalLXoaCmzIHNrTHb6pvUPayz/QykIm6P+kJeFxLL+ypt9oDc048sv3NCt97slLhwCnDVr1Kyn3WJLJGNeXLE1BlINzfjUJHcBLQobgOEl+vPFJTxPwJoasy4wGI/mRDba/rzIB6D6IC2KpKSFzVHWolPl8eMDAh2W0dhKiBFJlwlfApGrQZqcNUAdLT7LYCc8T9xZo61KK1gJGWWkozD1VYxUaIBedzP1pJnxWVaqGYTnCSgO9pBmxjdPS5HBVORqMDtPBFDt4YIugsmeOqAGV2zSrD9ycRD0uSKTlevMqWtnEgQhn9/b7gZ8udTRH1Nx+RTa3EFza9Oouo1tEsoHLXXVa3Qn3xRJPRVb3zPFnLsWB2ip2kAlWCLuyHgtbQH9sOmltaPslRBdyiALZl11QHbglAr5aewzGuFlNuahiihxNUivpd9rx3qoIk08puA6sta1VdI+3EyXUkuv9drCEzg6jDoVxtRJWUggbIqvZDKZzHY3QhAEQdgZlHV6TRAEQXi0ENERBEEQSoaIjiAIglAyRHQEQRCEkiGiIwiCIJQMER1BEAShZIjoCIIgCCVDREcQBEEoGSI6giAIQskQ0REEQRBKhoiOIAiCUDJEdARBEISSUd6iY/UIsXqFWDAdF4vsFwSNNDM+o59YLAXCEzn9ZyTHuynrKpr9M2w2LPtM0zXrOWrzzNgK6xvJ+9Xqwu3W+tYzW9PKjqzhPSUID4VMOfPxbMb77L6Mdzalvb45nnnm2X2Z129mMpnMrczrz+7LPPPseCZsHnAr8/qZW9vSVOER5+Zs5tLH+v8/ns14X5vNfJLJZDI3x/X+tJE6xs2+GD5zzKwvfMboo6nMpTN6vevx8WzGa/Tdm+OZZ8x+m8pcek3b/snsMbNtn8wes5QpbNczzx7LvH7m2MavRRC2SHlHOvnsdtAExD9KkwpNEiDPopo6+sXzXbCjwZP1vMl31dwQaWbOwQlPJRBlDr9ZX/2RIbhyPS+q2QCG8+duB02xRPZ4t2bidi3RzFHdMbTK48cXmLePdhq6ScYmOerc9EUJwqbZUaKTujHPAgotB+DaFRUQ10Nh86RCk8R1F83URwkCHcXSYRbCQeZavZpI5Fs/myK2TDwwSKNtqs44t1871wCcMQZI1R4uHE/qxw3AEQ9VLBOPWY+swaU82HULwsNgR4jOQp+Cw11L45VmFq32vYqDPZCXl18v9y3sZFIhP40JPxd0h9Aqz6Rm8RxbYrF1nkbbOcE0M+c2YkldR79hGR2bgo5CO2rzfMNw2uir4QkcV5v14/zEFenDwqPLjhCdplGVpDpEkzpIoy9EikpcbkCd59oKenphiVnfdrdUeJSJjNdymmGSRVKwVQeaabLbsXKdOZp5oVh6Lj/yAaCOlrX6Y/VBWpQE8RWIXA3iO1RnOS7IXLhG6+Mmy8RV2NziAkF4+OwI0QGg2sOZUQXUQU6H0tQfGaIJld6BNVIigqCTCvmZO7RkRjh2RC4OgrMGbZVZ9oGeujEPejpOowZXbNKMYiIXB/P2Ayshzga09G8q5KcrlM492cp15lRt/x6nQuCqEWFFmQsouHZX4mKQ82Gj/ZMEfM3UU0l7wIimrPOZglAafm+7G1BKqjx+fH0qgb4BZtRJLsScjLg7aXQPZgsZKTdBsHA3oRLoqyVgblEYUydxXaylzdjomyLpqQSWC451HbKKVSXtw810KbX0Wo9bCdGlDLJgqb8esoOi8ASOjmDO+esBPMOM+RQcemTTNKrSXw30TDHnrsUBoAyxGJBFMsL285VMJpPZ7kYIgiAIO4Odk14TBEEQth0RHUEQBKFkiOgIgiAIJUNERxAEQSgZIjqCIAhCyRDREQRBEEqGiI4gCIJQMkR0BEEQhJIhoiMIgiCUDBEdQRAEoWSI6AiCIAglQ0RHEARBKBnlLTorIbpMc7YNuDvmHWfn3LiZ8xb8HH0xTBM5q79JlBF3LQ5bU7DNYbhNbvl6NoTu0/IQ2vtIktOXrOZq6/jThCf0fqC/nzl90HqsXd9MM+PT6oyMZ8tZ30fTSdS63dpWS53WOuzfJ2t7NnGNtsdZrreoQWKxeu3ulVA2ZMqZj2cz3mf3ZbyzKX3Drczrz+7LPPPseCa81nE3xzPPPLsv8/rNh3XeddDP94xdW8/c2mIjSs3j1t4H4OZ45pnXZjOfZDKZT2aPmf3kk9ljedefylx67Vjm0seZTPiM9m8mk8mEzxjvcypz6YxWT9HznLmVyXw8m7lk9sVbmdeN/vvxbMZrnO/j2YxX3x6ezdb5yewxm36Yylx6zaZ/35w125j5eDbj3dA1Fj8u/1ry21GsXvt7JZQL5R3pFFBH/7QXCDIXJs+mWo9MLJ4lgQ7Ltvxy+VhHl6YnioZ1NLqWW2OTorDQN1BgUVwwIjbryB1NaiPd3LJdoXROpGP8v8uXbVPX+ES27eNZM7CRgmvWt/n8eSPpKCPuTs1rJtBpjk5zRtZl5lLZ1HqQKtJcSzRztEHbVuXx4wvMZ69z5Tpzbj/t1VHm8Js26fVHhuDK9XVH8JGrCcaO1EG1h/YGY2sNLkX7X+pGkpYjukdOtYcTPq1f13s8piFc1V5nkdq9tDTkbWrwZK3cTXfTYtcYZcSIamyPs5Jm5hyc8FSCeVzxerdyr4THhx0mOsBuB01A/KO0aVNtWFUv9A0ws7ub5LQXAN+07hRpVy5HGNLMDAyygJfZ2JJ5PADhCRr7YEzVfO99BGkrkoJyHR9mTLFzM7W4PapDNOl1RMY7CaDodS/R35BmxqfQq+rtiK3hdNk6rNcFCzEHZwy77sA8EdLM+DoJ+KZIxpZYHM0TQ9XJCX076iDnw3X0x6bwgWZIFvBAyE9bQLuHyZjKmBKk7TFPlZgierVZv6/LxGPWEllBAM0x1HWortCO2nwwLxMPDNJokzaDKHMxi8W1QThIr7uZeuBuIpGza49TySucZuZcgpYDeh8wB0YDMLy2a2gqNEm89SBVa16j5lxqf1xum+davZbzOXFVF6m36L0SyoWdJzr56B/EtsADlFu5zpwK+LSHgSFsoPnXg0qvUovDiAZiiSIP30raj3t1S+1Ewd7IeG4UpT1ktLq1B9YycWs71sC1tzL7gXY7qTLrSxD/jX49gU4c7loa+1RAJX5PP1h3Vy0+ik5z7YpKdjRdyQutCqjzXCuI4h4f6nt04T80v4G5hijnr2RH8vbU0R8zrKOnoCM7j5IKTcJxT97DewLHOQeLPRtxANUGIPHjk5YoxMOF2BLJ2DAMFJ/jS4X8NCb8a1pza23PFS774/KEz+Y4YWex80TnXpIFtIeu9hCfp0XVR+1F2Gi5JmdNkT3ZaCQZWyIZyHuYWGno1qOpwaw1siF4TOnRkkaVZ9KMqgIdtTj+dCF3lPig6JGO8de/5gN0B9HQjE9NcpcaXG7rDl30AcLz2RF//mg9fzQPQB0txhtLmmtXnDnpr1TIj+Nqc07f2ePMFf27CePkUUbcAzBc7D3TBgHxjwrTxJHxWk4zTNIUtjWucc3jjGu9zhw2EVuxejd0r4THmZ0lOishujqCoAxxtCGthfeK9oHIfmDz2UC56oO0KLCg555TN+bNaKT+kBdQmbuRNtsws84qsvqerLAAplD67FI1Dd1ZIfqDOloU9BTZA1B1sKCeSGgzqTE9siFBfAXMyEexe/g8hoTnCSgO9lCJi0HO6+9nKjRJwNdMfc4cBkANrtikGcVELg5CfgpqJcTZgJ6uyk9HhSdsH+hVe6H3YtRyvJeWhjQzvnlaYpYIpwDt/XDtzY1kUiE/c4fyU7LFrjHKiD5PZ3+cXv7GfN61GscVq3cD90p4rPm97W5AKVjoU3D06S98U+aH94VWBfoGaXQP0qRYIpgGL2NKkN6OWuKjKmeKlTOppH14iDlFK5NDQzeLowkaLW3wTXvWabG24CGgL2igoRkfQQIdtQQUJZu6G7em+7zM9jRRzxRxdydtbu3YplGVM+vfosLrCeTWgzLE4prNruPoqEKgrxNHbIjFwCSziVralFp6jfbF1ojwHnFSIb+eZgTrtVT1TDHnrsUB2j0K1MFKiDl3MxfMoytpH26my7gXvimSnkptEGSmSxXG1Enq0RYQtBzJPsBTHyVy+zDaXFl/QzezV2txuK3HR5lTg/Qa75vZLifnjfQuWr+4kBcF3U2oBPpqsxG2Xme73TUSXf84fZDmOmSfpqu3rRf7eyWUDV/JZDKZ7W6EIJQTkXE/8SNrRRprsBKi66KTCxuatxGExw8RHUEQBKFk7Kw5HUEQBGFbEdERBEEQSoaIjiAIglAyRHQEQRCEkiGiIwiCIJQMER1BEAShZIjoCIIgCCVDREcQBEEoGSI6giAIQskQ0XmoPDyLaUEQhHJEfgbnIRIZ1+0H5HezBEEQbJFI56GRZs+RpcdIcCQqEwSh9OwI0TFthvW/rlCheZUtunnamuXDE7rVcCVV1dbzTaztaaMft+G2FEUXD+Nvg5bQkXHdjtpWJNPM+DZe104iFfLnCrVpAV3kfoUnLNtz36tizp2CUM6UuehoD8+2gJdZiy1wy3Y3C3TzNXvjq42TZsbXSUAZYlG/vtnWjR33eEVljwKaYJxOOE0/I4DIDTij3/vF1nlO5wwi0sxcTVjKW+yp1SHiHesMTAShDClv0QkH6VXBN231ZK+j3VNpRhoF0Y915GoabG0VPWJw++nyGefSHzT5kU5Oe7KOjNltftNNMUuhdXC9RzMXy43ujGONlNoyVdXZ+rURt9HWWhxuhV5rvdZ7smNH6JpgXDjiyNlq3G+Aqr259tGp0ADxQ/5c+2UrvmZLvxSEnUFZi07kahBQcO222alHGsnYErM+WOgbYGYlzczAIAvokdG096G1pWXYqC/I2fyUWngCR0eQplFVb1M39eEJGvtUc9usT6VXyR8Z19HiA9RBGvNSdfU92cjOh0rvwNqpslRoQBfopaz9NQBRRpRBMNsBARmh25Bm5lyClgN65BqeoDHhpz/PndMcSAzAGYk0hR1IWYuOhu47b4c+gjctn1PXmVPJjkB3O3JSKQ/chiL1pT5KAEr2gUVWMI1t9Yc0wZrLizLqe7LiuNCn5MwraA+4TouNcDHSXLuiAl5aGgBqcBmu3OF5Akbd5r1KEC+IunYyaWZ8CvHjulvoSoiucw4WbUSlyjOpDQaG4fR6836CUIaUtejscSrYPahBTz8p87SoSyyOKjn7mpw1D3DWNPEYoDjYs8Ej7ibU9QuthR61zfoAdZ5rK1oarfFKM4sxlTFl3Ro01mhzNgpbIhnbohVzWRJlxD0Aw0tmVBO5OMiCHn063J0E1EEa8xcZVB+kRRHxFnYeZS06VR4/PvLSQSshRkIxXRiaeaHa8tCvOkiLAgtXrpMCUjfms3M65iq1vJM0NGvnuKqvaFrRoqWm1oNmrn89tChGZe5GumBb/J72Wot8jEjEIMpIwZJnJy4SxDHaUDjvQyxBCqvYVfJCq6ILVvYarNdn3BNIMxOSZdYaaWZ887TkiXA2tamnKpUhFgOe3P6wcp05dY0oXBDKlN/b7gZ8udTRH1Nx+RTa3EFza9OoytFWBfoGaXQP0qQYoUAl7cNDzCna9g2fQx0irnTiMPJYvimSnkpgg8uhG7pZHE3Q2Kfg6APwMhvTt3XU6ukxhTG1u3DiOWA5L/qiieo0LQr09ik4+hSazEinjqOjCoGc69bUpcozzNgVhV6lll7b67PcE98U7Ru7sjJnmbgapNfSt7ATGAN97k4vyJg6KQsJhB2H/CKBIAiCUDLKOr0mCIIgPFqI6AiCIAglQ0RHEARBKBkiOoIgCELJENERBEEQSoaIjiAIglAyRHQEQRCEkiGiIwiCIJQMER1BEAShZIjoCIIgCCVDREcQBEEoGSI6giAIQskoY9Gx2i/n/tnaLefbRxchayFtZx8tlC/W/pT/3mv7cvqV1eK7wFivdkN9DTTfJ2s5qw25dj7dgjznT7fyKNIGQdhOylh0KmkPZO2oMSyoY0sFFsIbJ8r5PlWzLhAjs51F+DoM6x45ajNzhv13eAKHe4C42+qUF2VENwhMxpaYdQ9yOpTWLKyvNLOo++y4+gbWHrishJiLZetNhfy0MaW3YYh4xwQR6uiPWfx7pr00jXqpJ83MQLYNyeNJrQ2CsM2UseisgXUEWCTysY5ItZFjlBHD+jnQaY4mc8sZI2BjVOyny5c3+rStW3jkafBkBxnVTlzm9m6SsUmOOi1lVxLEdYNAgPojQ5BYJvVRwmLuV8fRUUyTvkLSzAwkaTmerfhuQsV3SLfArvZwwpfvPJpm5hyc8FQClbjcak79rr2VCMJ2swNFJ8qIMgi6/fKsL89ZFLQRaR+MqbrzI0HaxqE/NoUP9Einm/rwBI19qmnlPOtT6VVy62oZ1kafEOSsMdotqFucOB8nUqFJ4ms5w1Y7cRkurOgOtLEE7HXmOLBeu6IS/8g++oiMK8SP55r27XEqWYdaoswFckWFcJC5Vq95TH2PiuucPri52vwAEb4gPDx2nuiE5wkAC30KDnctbQGABPG/yRbRrKFVehXd4x5Mi2crWjmFlgPaCFKzmA4yZ0ZOuh3xbgdNm6xbeDRJhfw0Jvxc8KwVNdTRP+3U3+NaTiecNLmdVDV0M+sepNFda6bk7KKPVMjPWadaIBJVnmHGYp16hDwPPgXXbmNvmplzCbMvatH2gJkSXHRObmgOSRC+JFVFYAAAIABJREFUbMrcrro4TaNq7oMjPJFn06zZCefO2zysiMSubuFRJzJey1mnSrJnA2mqhm6SsW7t/+EJuj6qAaC+Z4lkj1Gfn/hucmysm0bP4epTWcCwLgcI0oXWX9sDS7pVeJoZX1Ab1ACsXGeOZs4UeV11oBkGrpPyFLHSFoQSsfMinYZmfJCT5pgJ5YqJFrGozN3QR4YrIWZs5n2MckaKQ4tivLSskcbYaN3Co0Uq5Gfu0NI6EY4dUUY6rBGITniCtpg+79PQbS4EuOA5aLMwQC04byo0QK+72UylpW7MgzXlZ5ficztFcIRtZwdGOnX0q0PElUEa3YPaJt8U7XstRRq6WRxN0NiXHW36pj2FVRnlOmq1NBkKY2o39aSJFzv9RusWHinuJlQCfcb7DOtFq5FxI3ULvuklvZxlMQpeZmObjDpWQnQpgywAKEMsBupy2uc6ZBUmLcXnUGr1CN7LbKwOQdhuvpLJZDLb3QhBEARhZ7Dz0muCIAjCtiGiIwiCIJQMER1BEAShZIjoCIIgCCVDREcQBEEoGSI6giAIQskQ0REEQRBKhoiOIAiCUDJEdARBEISSIaIjCIIglAwRHUEQBKFkiOgIgiAIJWNHiE5kvNZiD127hpmVYTO9joV0eGKdeoSyZCVEly9EyuwnVotyA22faYEensjrJ1FG7KzKrRbqvlChYeB4bn+z9mntXNZ617NCL9IGc1/uNRWea+3tgrAWZS462gOgLeBl1vQomaJlu5slPJZELs7TMuyhKnzddORMqs3MDegiEZ4wHUFNGro5kRjQH+JpZnydMK27eY4mdKvyKCPKPC2qtn3WPchpq1CthJiLZetMhfy0MaWff4h4xwQR6mx8eLw5dtfmdYxn25BUHZzV7dJTIb/uSGopvBIifij72cGwdg9PZNsQU3GdW2egJgg65S064SC9KvimrV7zdbTrhlg5EVDB6FIfzfqsDxSb6MY6QnXX4sj5ABcbDQuPH1Hm8Gu+OA2erI9OtROXUaShm2RskqPO3CPrjzQTv5EGlomrWZO/Ko8fXyxBaiVBXNEN3YD6I0OQWNaPTjMzkKTleLbSuwkV3yHdG6fawwlfgnh+tHUOThQxnNvjVIh/lO3HLmeN3p5JkrHu3EFZtYd205SwBpehfbsdNFlt1t0O9tieTRByKWvR0Zw8rT7yWVIhfzYCUodoUgc5HfrbzZ+k2sOFmDFyVSDQmZNqaBpVScbEmvqxJzxPXH84W0mFJolbHTvtqHbCleukqMGlBJkzU2/zBNQkd+1cPvUHemRcIX68Oydi2eNUCFw13G6jzAWy7rVavUHmWu2jHNDE5URC0QZEA3B0o26o4WDWrbTaw4XjSRrdtTjcA3BEbLCFjVHWoqPhzPrIm6S5dkUFgrS5a3HobowLif+6xXNoOfLGPrVgj2vvZu2NhUeV/PcyFfLTmPBvwMK6BpcboJL24SHiHXoEfBV8ioM9ustnr6JtP51w0uR2QsjPWadKf579eZVnmLFYpx5Fz4PPOrBKM3POxh7bQmS8ljkjZXY8SeN4tGhZk/AEjnMOFnvqsq+vNuvpNT9xRdJrwsYoa9HZ41QAy8iyAOtczxLJnuc2fQ4tjabnyKe9D9Jc4TEiMl7LaYZJ9mzSAtoSGSePOIi7nVqE0NBt9sMLhwDn7zjfp7LQp0ckHUEW+hQ9vVtJe8Dot15cMcvAauU6c2RTdeQsepggQpS5QDbFR0MzvsD8moKRCvk1gQlko5nI1WA2xUcdLb61PmeCkKWsRafK48cHBDpyVwmNhOCF1jxBCofs513UJHeB1EcJ23PcTaiA9iEuVkYoD4x5kFTIz9yhpQ1EOAbLxGP529LMDAziOpQvWlFGOhK0HDhoszBALThnKjSQTXmhpebISfdZBaqbersUn7LGfEx4wlZcC1N89mlsQcinrEUH6uiPqYwpehpNT6XF0fLasz4IGKmOjvm8YytpP+7FSMGdvmJ/hvpD65cRyoCGZlz65P7dhJrtNxtZKLKSMIUgu8BEYa41mzrLLmrphOl15gAti1carzRnU15629ZO6eal+DoSjA0Xn49JfZTIRluW5dG5Kb5O4qPDMm8pbIivZDKZzHY3QhAeByLjE9DTXXSCvvhxfuJHZDGJIEDZRzqC8PCoP+LgrM0XN9ckPEGbsdRaEASJdARBEITSIZGOIAiCUDJEdARBEISSIaIjCIIglAwRHUEQBKFkiOgIgiAIJUNERxAEQSgZIjqCIAhCyRDREQRBEEqGiI4gCIJQMkR0BEEQhJIhoiMIgiCUjPIWHctPwFt/lv3B0FxCHb4QqZz/C2XNSoiufIfN8AQOfVvWmiDbz1Ihv9bfwhM5+7KGajb7LOfI2iDk91293xl/Zv8rtt2+Ps0QLo/89tj27bzzGNYOKyG6itg8RMZzr80wl8tvQ2TcOD7KyHqfq/zP93jW32fE7l6bx2y0jcKXQXmLjk7TqGqaYeVb/26eOs1cKyCe8IIVhTF1yb6fma6gU/iUIRYNQ7XwBI4OctxrZ+nMefD5pvV96hBxqxmhWc8Si63zWctpy/ZZ9yCnQ1njucYrzea+ZEyl5YqS89CPjNdaLKj1v2E4bX1Ir4Tock/islxrMpa1bXApMHcjX8yizAXyNq1cZw4F+oJbs7kOT+BQkpzIcf6tQxMc3cnXNMCDNovwbLiNwpfCjhCdfIwRX5cvO/LrGp/IjppsR6+WEZhEN8IDk2bmXBDfdK4/T32PylhssnAkXn2QFiVB3GaEXnWgmSabM9Qf8rKQWAainO8jz6ytkvbAFC7joR+eoI0pkj112X7v8zNy4yAX1GbmLuqfiYuDuNYymWv103IlV0hSoUkYHcppY+rGPK7jk5zYks11mplzCcbUQm+jVGiSgG+qQPQXRxOcNQR2g20Uvhx2hOhknQ/zwurWYZKq1tEWYg7OxJaY9QG6Z3x9z1J2hIpK74AIzY4m0JmbeuoIWnaq9CobdBIFYJm4qtmc51KJy60Sv5e3eeU6czTzgs3DPnJxEJw1hduvBvEdqoOVBHHF7tgaXLqQRa4mGDtSB+EJzjpVPYIC9lZqghebJ0KUuYBdm7PEE/BCq+UBT5TzV5o5esBaKs21K05aGjRhzNpeb5A17sXdhKpdcx5Ve526AG+0jcKXxY4QnWx6LXeE5tpbCdVOXABuJ1Vo3u+QHVFqUVEn/397dxTaxrbmC/7vw365L6ehx2I8sxNIJEXNFqfB2Ay+zYaKg3Ff+WGYARmD/RBa3rWJAmnOkxPbbT/ZsR17Xg4nEEPqWk0eHGJU3MttGGuuMFEKMnNNb3l7Zi6mj1pSZ0hyorulOXDPy7ydmoe1qlQllWTZOynb0v8HZsdVq6qWSiV961tV2x8zb4K66556eplwrHROr32+KqF2Wewl4IlzStdYxogMfpPYxU68v2l5Zuws08khhAdE8Il9K/YVuBFqv4nj/o/zXmkgnkR4/40YoOWzKMpS3bbKG2Qi4yJLGR6HKgd5fjq1j/TF9ETQOR8xjSbmwQ1sKBfdH+ou9SzDrYZiQUH4a/GbuKdjYAPLeO6chnLcuxH3MhqWv0xAeyYz84EQwkYZ75v68AFFQwQba6B1PQSZZYnpPwCOINHQZ3mvKq027ncQscgynudr2HsGPLAConT0Yhk5O2ucgYYzTrG1fD1i0Fh81/yARPVdCaOubLB9H+nLYdBppVpCEcDoxG0E8AFF46I7RN2lH1P3Q5hXtlyj/KNNBfORxvLW4v4Lprc6zwiG53A4kZUPEgzi+/USJl33IWvYU2dQXE9gCMDQWAiZtzUEvh1HcTqKYGQJuL8i/q2U8eDhYMs+exm6u4Lis6V6RmMTU3TOhyfKxgqKzzqYurafFvR6PcdY2zwWGcyC4n5KNb+FkYVQU2Bp3Uf6kr666A74IbegILgg/j26buBJJxsFbiOmAPMLCoILCkaZ6VBb4p7OvPyto+tseA7ll2KKyjK6bqDsOeoexOLLLIKqjkPtlGkvKRBfRUxVsHbjBIvxbRwiiZHIsr1efXmCHWv6bTiB2DMFszCwUzix20wV4qf2GeouysMAnFnbQBwPIlkU7zbcX8lnoanjWHQuG7iNGJbwuhIXU90WY9nR3wTSL52vrfH1JJAuzAEAFgu74mEfq7GygsOCx9OmrfpIX1SfaZrmRXeCiC6Ho80oJl03MMWXOTMB+lwYdIiIyDe8p0NERL5h0CEiIt8w6BARkW8YdIiIyDcMOkRE5BsGHSIi8g2DDhER+YZBh4iIfMOgQ0REvmHQISIi3zDoEBGRb7o76FT0eglqj2JTpxFle8/w5+SpezVeS5tWtctjrDWWLrf/BL9z23bVRGUJdOvH2l9Fx6y1n5bHP/0Y3mXXf07fW/TXVsOeGsWs3lzXpomjEJzr8+l8vfb+3cdt/1lu1UeP19ymT42voaonm8+91/bOY3jtz/V+dlJptnt0d9CR6pVDz1JJkaiBXTnUwEZhpuMBTPVtFlCA+RdtvqwcRdkOJ7IY8fpia3N872OIL3+r/LSoXTOOjNL5l1zLvjv6m44sy7o9UuUNMlCAhVRHAzZRqM75+TzGmpJFzGjc/yAWnTV4Tqsv1NDH5x29X8dYexaU2+0ivLAkz5UIYo9KIYy23b6GvYOSo02L/Q3EsWNXoA1hfqmDekJdoieCTiNRgjqKWTXZNGpyjgonG2pUu0aMqo6q/FA3jqaa2wFoaCtGPA2jsdNGUHRJ9OPOhHeFymY1vN4P4YGW7Lgsc+Db8VO+2BqP3+IY+RTmsYInzvo8A3HsvAy1D4Bn7PvQWAK50gf79+rbLML3t/FAPWNFUEulhKIyjjuykN3Q3RXAsX+b2mnxNXc11rbyWeC+VXtnEN+vA5m39YC3czfYdvOqvoTiWLJeF6jl/txGe6hcdk8EndyC4p3GTqyiXNiFCojSvvktTGpWZuQuUV3Vk5i0Kh4aKxg1lvFI/4Ncq2DDOEFZiwOe7QrYUxXMG/WKiTtxYE+dgQZHW22msykJumA1vN4HYt92UOLYLvU8iFiHX8JHL5YBV2nlU47f4hjVdyXvL7OvgxgtlE4fWXfY96ODFNQxqxCaCFSxYRGMtIP2wa36rgRtumGANhBC2MjitfysVt9mkZP9tQaMwSXgycNTiq8ZyxiJRBGMKMhMrDZUY23dH6fAjc4K5gEQFUpLSddsSrv92YPTg3Hs9FC57J4IOvXptW3XhRe+0Q9Rq178/n8fpAAo8sPcj3DEalnD630DQAqTkSiCyjJyAHKl38v1Vp35Vu3+T1Hu2jkyq7xBxrlsQFQqze2/6Zk0+8rRZuTgZQlY3e7sS+xtFmH5hdz2S9j+goxiErveX0Itjt/xMc6o7X4d/c2MOaat7UAFYHj81OwuEN+2p9bq04qDWHwZwrwi9v+oFMJoJISAs/0q8Oi0+62O6bUnWPqyA7qKjtlnQRyeFggdhh7K6bWxrMd9se7VE+Wqz8YKIF4aqyjWsKd20K6iY1bzakdXirqL8sNBVPUkRl4cY8r6gjHKeA94TI8c4/mCAQ1RON/+o4eDzdNCygoONY+Syqcev80xboSQO/gAoCGAfSwjFxkXxzpv363+5rcQfKbje9n3oxfLyGlA0LlRfg5DHdxLDXw7jlErMRieQ1mWn0Z+C7PvGjK/gduIKVkUK8BQB8E/8O04sPQG1Xj7zKUxs2nMVFo5erGMnAFXOXBNBQ7vd7C/4XGoRrbF+9B9eiLT6dRfjiUAWNMIx8jYHxwxh15fByCve9yMbdEOIouBc9QnMxtY0xwy8+mlud2rKhDfRhrWjfxrCCspPNXr91f2nsnppnwWmn3zX47m10uOtp/h+O2OMZzARqFhyraiY3a6hI27g5+n78NzOJzIyhv9x8ho9Slk+4b/s85G8d7TisdYmy41T2VW3iBjtBsgulXfZoFOPltfBx39Pcbzhc6mUe2sRT4woFpBuZP95bPQlCCud/ZSrryeCDr1ezqnPMY5PIe0CjnHPOMa4QXi2451UQSns5678G7XjyltF6o17RaJYlaHWGZNUyjLyKktplXo0hl6uAtMJ7FXEe9t2L7GFGQmDCwON97rEALfjgOfYQrVOv7/8h/aHaMfU5qB2H79+g8qy8C6dX/j8/Q9EF9FbF/B2m4WWuPN/YHbiCGL1xXvR5VdD+44phXry2eAl3Iq0fl4tZJFzBCzCVU96f0koWMKcGR/vP5AhWN50/8SMRDHk4msXO849nm12J99byoSRXAaSJ+W5XaRPtM0zYvuRE+p6JhVynjgmqYj8ktNPtQiHlX27X8hqOiYfRHCzhnueXTqaDOJ4t2fGRzINz2R6VwaFR2zyjJyPZRK02XTjyntAv6ftY9l+6GEz6uGIuqPV9Plx0yHiIh8w0yHiIh8w6BDRES+YdAhIiLfMOgQEZFvGHSIiMg3DDpEROQbBh0iIvINgw4REfmGQYeIiHzDoENERL7piaDjKh992l+a/tmsstSnFJj6UvJbzRVS6WdrvIbsEucVHbNNpcktx1jje0Hk0uVBRwSASVeNj13ELrpbX1CnRafobLzqpXw/DBy9BZ44Kl8+kgMa8afrs4BnkT+i3tXdQSefkn/C3VlGYBBTTTU7nJnJMdYiUQTVZH0EG9nCmt1WjlxlbY9ZNXlKBiX352rT4THQUHdD9tFa5jz2Wl4sH1kwABiYV+RIvOH4wc3PU8q4l1X1beC+qH8yFK/XQXFWnRRllee6eoBDdB5dHXSODlIAFIS/bl5X1ZOY1ERNkXLBwIaSwqRzesQI4UHhBGkVAFLAmKiCOAoDmbf14JKLJGVVRQW5haWGqZQa9tQZuwJjU5vTjpHfwsgCsGHI0TVSmHQGjYlVuRzQnulAfBuH6woABRvGCRaH5fEhMz1jBaPazBeeXux2x3i+P47vm8oC1LD3zKPCJRG5fHXRHfjyvEra1vB63wCQQGwYsMtML2TxuiJHq1bNm5ACACJwDYQQBqCVPgA3RLNRWV5XjHJTKH4EwtZhZAlqGDOumvHFj8mOjnFUSgEA5pUo5q2NCyX8v7KL4RviCy6stHjp1vGtao6yRPb8/htU471TqfBzqurbKE6sNpw7URiteP8Ei6zrQtRWVwed6yEFQAqZ/ByG/CxY1UjdRdlVMfEYax1vrGDDcFdFrOrepbLpS6vh9T4QW3VmM8dYi2wjbDDgEHWiq6fXAvGkmHqadjxJVtGxpkNkNiihWAHszEc5ewXCXOkDAGsqz8qcJJlZQMvaxz/Sm+vEtzI0lgCc03kVHXteteBbsY5fKIljysxndOI2s5zzqLxBxlWlsoY9NYtYgaWSiTrV1ZkOMIjFgoGwqmAykrKXjq4bCMS3kS5FMWlPXSWQLsQRwBlvtGv1qTPxwEINRXtlP6a0XRQjM/XjKys4jHe47+E5HK6XMLKgILhgHSOOO202CcSTUBdmMK9EUXx5gkV5/JHIstzBLspx3nc4l49l5CLjjoD9AUUjhXnHtQVlBYcapy6JWmG56vPKbyE4ncLouoEdfokTEXWkq6fXiIjocmGmQ0REvmGmQ0REvmHQISIi3zDoEBGRbxh0iIjINww6RETkGwYdIiLyDYMOERH5hkGHiIh8w6BDRES+YdAhIiLfMOgQEZFveiLoHG1GEYzUf2b1Gqp6EsFIFGtN9Wlq2FOjCKqd170R+3fU7KHuU9Ex67iGglbZ8IqO2Z/x3lf1pMc12L795yw3frQZZfly8lWX19MRZYTnjQTShTlRshnH2NOBQHwb5U7r2hABjgqw4rpay59gcTiOncJFd+z8hh6eYOeiO0E9pbsznXwK84ZVXM0yiKl4f0OmI7ObSBTBiIJ5w2rrXO7OZpzZ06TmPOgx1hqyKuo2/bgzoaD4rgbgGGtW1tNwvbR67+vXThLPS44V+a0zXTfOa9Bun9/CrK7Xr8HNelFC65p3ZvhVfQt7FYiMbVN3ZfnO9mfJ/Ina6eqgI0pIKwh/3b5dVV+SwekE5cIuVHtNP6a0E5QLJygbKxhFCpObx0B+C5OaqEBaLhjYUKz2NeypM9DUXZQLJzhcV5BbWBIfauoiNbzeB2Lfuov3HW0qyEwY4nop7CLs9d7ntzBZWMFh4QTlwirCBTnCqeiYPRiX257gQen062boobw2CwZi+yl7QJRbKCMml28UtsV+8lt4hFW7ffiZx5SglgVWT1DW4gjktzCyPy77eYJ0ZBmPOICiz6DLp9cAIIRw2/r1NbzeNwAkEBsGgGsIK+4WR5vubMYKZtaXTjgCwABQeYOMAcCol7AGgOJHAG37QFeCXZpcwYaxjSnXe3qMjJbAg4IViAbx/TrwvOG9PzpIQb1/IstZy4wJQPVtFjlt2XXdqGNof91UdMwqy8hB9qkCDAEYXU/IzL4fdyZCeC2Pm9NSdtlzq/115/7UpP2a3P0Ehu6uAC8+AGCVXPp5ujrTuR5SAKSQ6eRGrRJ0fwAB++bxJHYbMiCgbTCTmY71szh89r7TJWRnsMD8i+PT25+RyJw7vW6OsaaU8cDKRNR2bQWRyVs/jUGTyB9dHXQC8SRUANq0YyqhomPNNU0gRpswsnhdQT1bAYCPZeQAqGODQKWEolw8NJZAPZgdI2ONTgduI6YA0LL1ez8658K7TSC+jTRmGp46G0RMTeGpfW0d4/kCmqZ2r4cUaAf1e0AiywYCN0LILaROfQrufclA+Ea/uB7tgZLjGmzhekiB9qzza3FoLOFqf/RiGQhd63Brota6fHptEIsFA2FVwWQkZS8dXTdcrQLxVWzsK5hXoph3rhgeh4oUtOkoNEXBqL18Dmk1hcnpKNyf9X5MabsoRmbqx1NWcMin5LrO0MNdZCJJ7BlJ17JwRLGnsNSXJ03ZRCC+ig1VQTACAApUVc7lDs/hcD2JkUhUtnQ+cQnxkMF0SmRbwwAQx4NIFCORZQAJqKdkOoH4NtIlqz3Edam1uTCH55COONqruyjHObVGP1+faZrmRXeCiIh6Q1dPrxER0eXCoENERL5h0CEiIt8w6BARkW8YdIiIyDcMOkRE5BsGHSIi8g2DDhER+YZBh4iIfMOgQ0REvmHQISIi3zDoEBGRb7o76Mh6OEHHz1qr2jr5LQQjybNV+ZTlhVvuk7pH47VklYGu6JiNeFTh7FBVT57p+qnqyc9aAv1o82eWVK/omFV1VBvKtDeVt7baVXTMbn7+WkR0dXR30JGcxbFaFcaqvit5ryCy2MX5DGwUZD2dgTh2nCUIrpihhyfY+RklC45eZBFbjYsKo8rK6eWtB+J4EtrmQK2H9UTQaeIatSbxb3eSGFkwABiYV0TmcrTpzJAcGZDMboKRqKhv4uDe5vyjX7rsZJnpdzUAx1jbrBdl21Pr10CrDKJ+nSTx3DnWcVxbnWQfzuvNbp/fwqyu17MOR1ZR1ZNNGX9V3xLXdkXH7KYu+i+zFGf7pswFAHCMDJKeFUiHxhLIlT549jsQTwIHzHZ6VU8EndyC4ggeNewtLSOHBNKybO93s9s4XFcAKNgwRDY09NAq67sLFQbml+QUwnTKHtGJbYSqnsSkZpUENrChpDDp+UGlq6+G1/tA7Ft3hnC0qSAzYdjXTXhhqXm6Nr+FyYKVEawiXJAFBSs6Zg/G7Yz8Qclj2wb1a9RAbL9edTS3UEbMzsi2xX7yW3iEVbt9+JnHoEjLAqsnKGtxBPJbGNkfb5+55LMotqgmenSQEhV3PV1DuJDloKxH9UTQqU+vbWNqoB/hCACkMHnKPRwx0pupVwfNZ6EBGJ24jQBEiWHBKjucQGwYaCqBTd1Bm5GDlyVgdbthhH+MjJbAA3uqahDfrwPFj+5dHB2koN6X01HWdQKg+jaLnL3/KCY1o2nbJnbGrmDeKKEor7XR9YSc7uvHnYmQfdz64Mvd3qbWsxZ3P4GhuyuAR+YSvuEIvMYyRmT/M2Otp7IB6zNIvagngk6joYdWliKm05qnMsRNUTHSM7ChuNe6PmjUO+Q9ncN1YP7F558ect57bHf/UTjGmlLGAysTOaVcNWBl4SeOAdjn6rlk3dN5mYD2jFk+eevJoAOImvFlYwWjXisrJRRhZTQfUJQzIBgehwpAk/PRRwfWPR1rxGqNHmXmo4zjzuf+YNOFC8S3kcZMw83wQcTUFJ7aA5hjPF8Awl+7t70eUuzrp54hi6w5t5A6dcrpfckQg55KCUUliOvyWBmt/XbXQ8qZAsHQmDtwHL1YBjym0sR9rQbDczicyLqn4z6WkYuEZOZUQ7HQYUeo63x10R3wQ25BQXBB/Ht0/d8jtv8/Y94KJMoKDuP9CCAJdWEG80oUxZcGYgowv6AguKBg1M50BrH4MgFtegbBhg95IL6NdCmKSSWKeQBAAulCfXqCusvQw11kIknsGUnXsnCkfq2pL0+asolAfBUbqoJgBAAUqKq8uIbncLiexEgkKlsmkHY+FZffEg+uqLsoDwNAHA8iUYxElgEkoJ6S6VjXp2gPcd1r8dYbDM8hHXG0V3dRbnzKbXgc4YMPAJoz/0B8FTFVwdqNXWB6BhoSSBesezwfUIyMY6p9l6lL9ZmmaV50J4joajra3AIenu2R8aqexPMb26dMH1K36tnpNSL6+YbuBvH0LE9pVnQ82h/H9ww4PYuZDhER+YaZDhER+YZBh4iIfMOgQ0REvmHQISIi3zDoEBGRbxh0iIjINww6RETkGwYdIiLyDYMOERH5hkGHiIh80xNBx11GurNSwERuzlLUjcX/xDq71IGrHLqz3LO7nHW9BPRxvbx0Q4np0/vQsC1LpdNlZ3a1qvnqu2/Mm7c2zby97EfzVbp6gX2iK+mHtPnqk/z3p7SZ+C5t/mSapvnDpnnz1j3z8ZN75uMfvDf9KW2tq5qvnsjtXH40Hz/58fx9cLXZNBO8vukS6+5MJ5/CvAGoL51/en0QU7IuiCsDco1Ek5hVOWokh+F4vTY715IRAAAgAElEQVTOQAhhe/kcyoVtfB9qsR2O8fxz/VXlVn2w1bD3DI6S2USXT1cHHVHZU2mq3giImh6TWgLpwomoIGos45H+B3t9bPUE5cIuVKQw2XK6g3pRVd9GceJ2RwX6qvo2cN8q5vcBRW0ZI3KgU5+OK6GozbSYujtDH/IpZCYSZ6ptQ+S3rg46QgjhppLRVpngFCYjUQSVZeQA5Eq/b9jmGsIKgEKJ9d4JgBisjJSS2OkomzjG84UQYnaWM4jFwgnKBTGgwbQMMANx7FjLjXFklPbZtXcfath7VkLsW2Y5dLl1ddC5HlIApJDJt2ohMx3r5+GvfOwdXTVHm1E8wirKDwdPbwwA+Sw0dbxF5jGImFeJ6YHbiCn14zVmPy37UHmDDMZxp2mARXS5dHXQCcSTUAFo046RY0XHmg7cmWgISHndMa1RQrEC8UE2gNEOp1Koe1X1JDJjJx1mOMLRQQrqWIsAVdHxVPPIwvMpzCOI6wCGHloDom1MDbTvQ/VtFuB1SlfAVxfdgS9rEIsFA2FVwWQkZS8dXTcQiG8jXYpicjoKDQCgYMO4LVsYmFeimAcAZQWHvDHb896XDGgL1rUCiOtlu35jv0kNxYKC8F3HooqOWTmVa20/BAD5LQSnreszgXQh7hk82vXhfclAeIzXKV1+LFftUsOeqmDeSCBdmOMNWSKiz6yrp9eIiOhyYaZDRES+YaZDRES+YdAhIiLfMOgQEZFvGHSIiMg3DDpEROQbBh0iIvINgw4REfmGQYeIiHzDoENERL5h0CEiIt8w6BARkW96IujUi2GJn1m9Jv6cvFUyuKJjNuJuE1R1VgulJlU9iaCzfLnz2nFcM65rjuXOiWxdHnRq2FOjmNScFUJ3EWvRenTdsNuoxjJGIu3LBlMvOcZaJIpHpRBGHUuP3gJP5LV1OJHFI70GwFmAzcBGYUYMboioy4NOPoV5A1BfOmvjDGLq1KJsg1h8mUD7UtfUWwaxWDjBzt2ga+lQvF5wLXAj1GLbBGLDX7RzRFdGVwedo4MUAAXhr8+x8ddBjAIovqt95l5Rd6ph71kJsW/lgMaedlsCVlkQkMjS1UFH8KhDT/RZiYqzxfuO8tUDcewUTlAurAJLUU6vEUldHXSuhxSce4rsYxk5AOEbrDtP7RxjLbIErJ5g0XMKrR93JhRmzERSVwedQDwJFYA27XggoKJjTT/lC6CiY3Y6BSgr+J5z8dRSDXtqFrGCI8PxaPN63+DghUj66qI78GUNYrFgIKwqmIyk7KWj64Zn69yCguCC/EXdRfnhoA99pKvrA4pGCvOOawvKCg61EJ5HZqDJRaPrBnY4eCECAPSZpmledCeIiKg3dPX0GhERXS4MOkRE5BsGHSIi8g2DDhER+YZBh4iIfMOgQ0REvmHQISIi3zDoEBGRbxh0iIjINww6RETkGwYdIiLyDYOOr0T57KCqo1rRMbt5/OWPxZLbRHSJdHfQkdUbZ08rZeDiCAyf+4u78gaZyC7K98sYUZYRHuv8r1gfbUYRjEQRjCSxV3GsyG95Lq/qS5jHCg4LHlUrXeflGGsR6/VSa8dYO8c5qupJFnAjcujy0gY/Vz+mtBNMfa7dDcSx8xAABlEuzJ1zJwYyb2uYiov6LKIkt4dvV1GOd1LDZRCLhRMsnrM3RERn0d2ZjouVtSQxq1pZg5XBWOuiCEYUzBuN23i1E5lCPQNpzDZkBiF/1vJo3VZmHs79elMwqgC5/TdyxH2MjAaMKoqr1dFmFCOKIvZnjc6dx1CWkbNbN2Y6jf12v+benK47xlpkBpqxjBH7fXOcJ69zp+r4Jz2JkQUD2nQUQWsq1c5Mz5qBE3UJs5t9SpuJW9+YiXTVNM2q+eq7b8ybt+6Zrz6ZpvnDpnlTrvspfc+8eesb8/EPpmmaP5qPb31j3vwubf5kb7Np5l3/9uLczvnvM7aV/RJ9qcs/Ecd+lb7X8Brcy8RrkX20X//v3H13vPYz9Vvu7+aTH8/+Xlx5P5qP7fNSNV9957gOftg0E+mqmX/S/L79lL5XX/YpbSYc5y7/RL6PRD2kB6fXQggPAEAQowCAP+D1vgEggdgwAFxDWPHa7gOKBgB1vOkeSVWOaG2VEooARiduI3Ba23wWmrPt8DhUpKAdHGNxuPmeT/jbcYxiGZm3NYRLKUDdxR2U5NqafC2Gq1Iq/q//FXD2/WvrtTdo0++jzSgmNa+NelDlDTJGCjnnOVbHsTOWwOR0EmHDu3x19W0WOW0ZQcd5VMcAtCx1TdR9emh67RRKENfbrZdfyG5iOmVkfxyHBQMbVrD6WHZMX53S9qwGbiOmALn9JTzVANXzYYQE0oUTlK2f++KVjYautd+3V7/ltNwkdlEu7EI9Z7e7jrKCQ+c5fjgIDM+hXFgFllo/mDG6btS3KZxgkWWsqccw6ODPcWdCAYwsXlcgR7EezeSXPbRs/Z6GKzOQmRAgsxXnvZcO2pY+iN9l5uMdTACgH1P3E4BhIGdnZ/V1dyYUAClkrCem8jr2YAUq0Z/q26xHUGzRbxmI1LHBFoG3Bw2EEDaW8dzzqbR+TGkGNlDG+4Y1gRsh5BZSPXhPjKiOQQdAIL6KDcXAvNJ4k92pH1PaLlSkMGndCH77l+LLfEFBMLKNop29DGLRWMGosYwR64b8x9vt22oz4gbzdAqj60b7EbAMDl5TfYH4NtIqxM3rSBTB6azo+2q9P67pPRePfkMcS5uOIriU7eR0dqlBxCLWgwTiPBWnWz0ooiAzkcAQgMC346Ld5jEwPIfD9ZJ9/fTmQxnU6/pM0zQvuhNdLb+F4LMgDrV4030SIqJew0znS8pvITidAiIhBhwiIjDTISIiHzHTISIi3zDoEBGRbxh0iIjINww6RETkGwYdIiLyDYMOERH5hkGHiIh8w6BDRES+YdAhIiLfMOj4SlbhVHVUKzpmrWqSREQ9oruDjqwFc7aywI7A0FSu+uf25w0ykV2U75cxoiwj3LJ8QQNHiWPXT4uaLV6ONs/W/nO76OP/fMdYO0f/q3oSa54lEIh6Uw9WDj2LfkxpJ5j6XLsbiGPnIQAMolyY63y74TnRvqJjVlkG1g3sxPvPcOAaioUz9vWzuujjE9Fl0d2ZjouVtSQxqzbWM7HWiVoo80bjNl7tRAZVr6Ei9r1XsbYVlUK96600tJUZmXO/HWnIgNby7v6Jftewp8rXZCxjxF7W2K6+v1k1WV+3uVV/HY6Rvuu1uLLCxvPrdXyRAXift8voGGuRGWiGVU/HWtZ4XtzL/kmWJtesejqA6z07WwZO1CXMbvYpbSZufWMm0lXTNKvmq+++MW/eume++mSa5g+b5k257qf0PfPmrW/Mxz+Ypmn+aD6+9Y1587u0+ZO9zaaZd/3bi3M757/P2Fb2S/Sl3eupt7355MeWbcU62Xev/jjbufYn+yVfrzhH4tyJf8vzYPfpdy3Pb9PxXetMM/+k3Xm9LH40H9vnr2q++s7R3x82zUS6auafNL9vP6Xv1Zd9SpsJx3uVfyLPFVEP6cHptRDCAwAQxCgA4A94vW8AdunnawgrXtvJEtMe1TqrckRrc5WmPqWtLE9ttx0eh4oUtINjLA53ds9nNHTN9fvRZhST2unbtWpn7U+chyCuQ5RaBlIofqwB+wYAA5ORVH2j0u8RA9B8fj2Oe5ACoCD2rZgiHBpLAFoKmfwchtpVTL0sKm+QMVLIOV+/Oo6dsQQmp5MIG9uYGmjerPo2i5y2jKDjnKtjADzaEnWrHppeO4UivlxbkoHETUynjOyP47BgYMMKVh/LHiWvW7T9nOQ03SR2US7sipLWP6ddWwmkCycoWz8Pf3Xubl9JygoOXa9/UN57WwWWWj80Mbpu1LcpnLQvS07UhRh08Oe4M6EARhavK5CjWI9mA7cRUwBo2fqTbK6MRmZCgMxWgNz+m/oXz2ltSx/E7zLzUTt9ss1JBjt1bLBFkDxjO0/94nwhhYz1VFZeP9M9maGxBAADxY/id5H5WJnmFTAQQthYxnPPp9L6MaUZ2EAZ7xvWBG6EkFtIfZ4nIYmuKAYdAIH4KjYUA/NKFEFl2SNLAcSXyS5UpDBp3Qh++5eIKUBuQUEwso2inb0MYtFYwaixjBHrJv/H2+3bajPiBvN0CqPrxvlGwDKAadNRBJey7r7fT9Rv5Lds15lAfBtpVW4fiSI4fdo+Go8/h8N1xd5+UlOwYcw1TVteLoOIRawHCcR7VpyOwvtBEQWZiQSGAAS+HRftNo+B4Tkcrpfs6+ezPYpPdIWwXPWXlt9C8FkQh1q86f4OEVGvYabzJeW3EJxOAZEQAw4REZjpEBGRj5jpEBGRbxh0iIjINww6RETkGwYdIiLyDYMOERH5hkGHiIh8w6BDRES+YdAhIiLfMOgQEZFvGHSIiMg3DDpEROSb7g46slhZ0PHTqi59VU/af6L+LFpvV8Oe2rqYlxfxp/H55+4vtfxW03tU1bdkPaEa9lS+f0TtdHfQkaxqjYfrCnILS54FxwLx7XNVcjzvdnQ1HR2kMKqU8LTF4IWI2uuJoGMJ3AhBVKyUWYiVAak6/qkhY6kX5HJmH6dt51yvYN6uQNqwnWOk7DzOpObur6sPZ8iY6Es5Rqawgier44CzKiwA8R4rmDdEkb+1PBoybWZARECPBZ3quxIABeGvrSUKNowTlLU4/htnOz2JSQ1QX56gXDCwoaQw6frSb7XdEuYNa7tdqPaafkxpJygXTlA2VjCKFCY3j4H8FiY1KxMzsKE09iGBtLWNsYxHHF1frHwWxYnbCAzcRgyyvLlNlqlWxHu2OAxgII6dgnzfX4LZERGAry66A37ILSgILoh/qy9PMDVQwx4AIITwQGPrGl7vGwASiA0DQD/uTCjAQhavK7dlm062u4aw4m5xtOnOZo4OUgAUxL7tBwCEIwAM574MTEZS9Q1KHwD0n/HV0+dydFBC7K44/3cmgEdva5iKt38/XO+5Og6+f9TreiLojK4b2Dnly+GzUYK43risomNWWUZO3UW5AKxFZlCPPV4BzJJAujCHoS/UVTqDio6nmoGcFsW8tUx5g2o83nKTqp7E05CBcqFfXAMvfOkp0aXWU9NrnZGZDUooyieSXu8bgDKOOy2Dg2M7Q067VN4gY93T+VhGDoA6NghUSijKxUNjCQApZPIAcIyM1rAvex2AvO75AAT5o/o2C8gHUqyfdGQZz9s87fi+ZCB8o9/ePudTX4kus57IdM4qEN9GuhTFpGKNahNIF+IIoP2cfCC+io19BfOKYzQMAMPjUJGCNh2FpigYtZfPIa2mMDkdhda0L9kHe52CDaP1qJq+pBpe7wOxVXe2PDSWwOTBMb4PWUv6cWeihJFIFOrLEyzeXcFTJYoggFE1UX/fiXpYn2ma5kV3goiIegOn14iIyDcMOkRE5BsGHSIi8g2DDhER+YZBh4iIfMOgQ0REvmHQISIi3zDoEBGRbxh0iIjINww6RETkGwYdIiLyDYMOERH5pruDjqtc8BnKPsvt1tr82XpvjrLUm8fn6/N5jndBpayPNs9/7KqevFolnF3XUtJRZsJZitzj9eS3MKvXABxjrekabC5/3lwCW+zTWbrceV1WZbl013JnXx37dJU/b3N9VvWke31+y/UZ8vpcePbjtHPTcr3XuaKuYXazT2kzcesbM5GuygU/mo9vfWPevLVp5ttt98OmefPWN+bjH853vJudHOOzqJqvvvvGvPld2vzpix/r8x37p/Q9H8/RF/DDpv26f0rfs6+Tn9L3zJtPfnQ0rJqvvrtnvvpkmvkn4r+maZr5J9Y1WTVfPWlz/n7YFPv7lDZf2dfij+Zj67x9SpsJ63if0mZCLs+n6/v8KX3Pcf07++V1fYvPR+LJZn2/sh9tPwst+tH+3LRe732uqFt0d6bTZBCLLx2F0xpGcLN6TSybFiWitWnHssZ2HkShLgUb687ibIJrlOkaLTtGdfa+5TI16TFidY4OFcxbheIaR83WyFH2fVZNOka5W54jSVcfVR1Ve59JzLpGpDXsqfLYxjJGrGM1ZJae5ym/hZGFEFT1Z7yNl8DoxG0EUMPr0ji+HxbLAvEkVC1bH7FX3iATSWJq4BgZJDEliwAO3V0B9t+cOoI/Oihh4+4gMBDH1LC1tF4Gvfq2jNjdQfHLQBwPVHHNDcXjCMjWgRsheLPKqjsNYrFwgp27wVNfv7hGxTXs3Y9W58barvX685wrujp6LOgA+DqIUQDFdzVgeK5eBVIFcgtL2Pt6DuWXCQCA+vJElLn2atdUxdNRYTQ+DhWAdiCnKPJbmNRE2exywcCGUt9mT52Bpu6iXDjB4bri3rcRwgO5HIaoUlnVlzBviL6VC7uof3f3Y0qTVS2NFYwihUnHFEkukqy314CYvV9R6bSqJzGpJZC2tjeW8Uj/g719bPVEnpcUnurAlCZfh7KCw8IchnCMNWUZOWUFhwXRNregNE/FDM+hXJhD7Pzv4IWxg/LBuCx//gHFgrNFPSAAYhASbqgWCwAYCCEMiO21ZYx4TlsdI1PwqFabT2E+Mo4hAO9LJdeq6yGloXENe89KiH0ri8/Zg4IlYLXzMujVdyVo017TXaLUunc/2p2bEMIDLda3PFfULXov6DSSH8TJxtKdZ20ny1OLEbD8AMlR79FBCoAiP/xWKWoAVVnSWptBMBLFyIIBwEDxo9ynEsR1OEerMrDZo1T3lxwgvxiV5abSyKOha/X2rv0aKH609pvCZKS+fa70e7m1+HKxAranfBYarNcPWS3VEXi7wNBDGdTHsh3cazjG8/36SN6byCzEgGYXmK7fK6rq28D9esYCQGStz4I4fDjYQW9FNlq8v21nDRiIY6dwgnJhFVjq/J5lIL5tD7oOJ7IY2TyWfe88cNWddzvqFr0XdD6WkQMQvtEvv6CziBly1N9CJ+3E1BqQW1Ac017OKTb5xe1FZjrWz2LbLyrYQcPFCorYbciAzkJmOtbPw1+day9db3gcqlHGe1xDOOJc8QFFa7ozn0XRCsCNo/XG0TwAYBAx+02r4fV+yDX9VdWTCB6Mo6zVA9H1kHvq7H3JOvgx1iJLwGqra0kMfIrv2pdf9xL4drxp4OHdjzbnBmi9vqNzRVdZbwWdio7Z6RSgrOD74ZpI7xUxhVH/wDbqpJ01tSanluwpLjHSHxpz3uOxsgoAgduIOTIiADjS242gZZYkp8Ss7AqAHUxVr+mcU1nZlyNI5nWPKcQ2ZGaTK32Q24vMRx3rZFR+xeSz0JQgrqMfYYhpT0BkJ5o6jiHUsPcMeBCX01q4hnBh2z6fRy+WASsgWSo6nmpyYJJPITORqGcD+S08wirKDRlO4AYw/+LYsX0CseEa9tQsYgVHhtNEXIPhG/2tGrR09GIZCF2DCGziXp53P1qdG2u7Vus7OFd0pX110R3wQ25BQXBB/qLu2h/eOxMKsLCMkcgyRhVHBjOcwIaSwvx0FMV1A09atbPkUyKzUUP1D8eACCg5LYujh3NIqylMTkfFFJSiQGQ+/RjSdlGMzGAyIh5egLKCw3jr1xKIr2JjX8G8EsW8c8XwOFSkoE1HoSlK62mwlvvdRroUtfsIKNgwbrfZoh9T9xOYn17GSKSMdGEOi8YKisoMgnIKcnTdOD1ruyKqelJOfwIiIxQZR+DhLjKRKIKAeO+0QaCiIxMZx469dT+mVscxa71n6i7K8X4xCLKnQhVsGNsYgniAIHa3HhCq70ruaxjint7i8BzSB1EEI87tj5ExUpi3rie7XyE8j8zAmh0eXTew0+F7c7TpmFa2+o4P9Qae/QDgdW5Qn24d8lwP73NFXaPPNE3zojvRW+STX1jBoRbnCK4LHW0mUbzbLtNoo6Jj9kUIOx3dtyG6ehh0/OAa0UKO6hhwiKj3MOgQEZFveutBAiIiulAMOkRE5BsGHSIi8g2DDhER+YZBh4iIfMOgQ0REvmHQISIi3zDoEBGRbxh0iIjINww6RETkm+4OOg3lk5srH7bfrtMiV3WOktGbfhQvk8fr5DV9AUebZz92VU+63o+zn+ML4rqWkg1lH8T74Pla8lvuEuQtS497ncsa9lRRPsBZStx5HOf5tJc7+9qqHHmb67OqJ5vXO0q2e5Uh9+yH6/Vt1ct447T1XueKukV3Bx1JlImW5Z2NZYx4fgAcZG2aM3PWt3HUyOlOtYZyw515j3FZc0iUu9amT3kvLgu76uYJyi9DmF+SX4b5LQQjSyhGvIr71ctFH21uI2zIkueRZTyyvrgjjhpMjX8E1ipNXdFRHHNWGJXnrKLjUSlp128qyuVHb4Enjkqf1rHsyqcFAxuFGY8gKb7sH5VC7tIYFR2z07AL/O00lhpo0Y+qvoTifdmP9ZKrfDrarG95rqgr9ETQqRvE4ktHQTXH6M0eweW3EJwWtUi0aceyxnYeRPVQBRvrzqJtgmuU6RotO0Z19r7lMjXpMWJ1jg6tCqWNyx0jR9n3WdWRYWxueY4kXX1UdVTtfSYx6xqRyvIMBgBnEG/ILL3O01Dc+mLtb6gcebXUy3LPoVzYxvchj0aVN8hEkpgaOEYGSbvUwdDdFWD/zakj+KODEjbuDgIDcUzZtW/qJcqrb8uI3ZUlEAbieKCKa65+jp2lzhslXJVJBVE+e+du0N2PF8sIv2wsMX2MNXkNe/ejhtelernuQDwJVcviyN6u9frznCu6Onos6AD4OohRQJTqHZ6zSzOnVSC3sIS9r+dQfpkAIApl7cT7vds1VdW0qoeO405cVNHUDuTILr+FSc3KuMQI39pmT52BJstVH64r7n0bITyQy2GIKotVfQnzhuibuyx1P6Y0Z9XSlGtkmYsk6+01IGbvV1QhrepJTGqyXLWxglFjGY/0P9jbx1ZP5HlJ4akOTGnydSgrOCzMiYqQyjJyVvXUlwnkFpTW02cVHU81AOp4w5fZ5WUH5YPx5tG+h+rbLMJelVztkswfUNSWMeI51XiMTEFUq3Wxsh8A70sl16rrocZsq55pAXAMCpaA1cYg0koNxUICOPCaWhSVTr378aEhE64HS7Fdi/UtzxV1i94LOo3kB9GujHjednJqTYyA5QdITrEdHaQAKPLDb5WGBlCV03HaDIKRqKxMaaD4Ue5TCeI6nKNVq9S1NUp1fpCFo80ogs7aPdJo6Fq9vWu/Boofrf2mMBmpb58r/V5uLcsoy4DtSZanrmcADYHX1XZLHENZweEVKlZmT0+NZTu413CM5/v1kbw3kVnUp83qX+hVfRu43zjdtoXgs2CH50xko8X7jmJy9hThKrB0lvtpKRRDcoraGEdmSUcVg1gsdBq4nM67HXWL3gs68n5N+Ea//ILOImbIUX8LnbQTU2uyNLY97eWcYpNf3F5kpmP9nFriWQYNFysoYrchAzqLhD1vXy6coPzwV+faS1vW9KW623wP46oYHodqlPG+XZt8FkUrADeO1htH8wCAQcTsN62G1/sh1/RXVU8ieDDuOmfXQ+6ps/cla671GGuRJWC11bUkBj7Fd53eK1Hq2dLAbcQapkW9+3GtYfr0A4qG8/cW6zs6V3SV9VbQqeiYnU4Bygq+H5Y3whUxhVH/wDbqpJ01tea4KWysYBRipD805rzHY2UVAAK3EXNkRABwpLcbQcssSU6JuR5ckMFU9ZrOOZWVfTmCZF73mEJsQ2Y2udIHub3IfNQx56i8hr1n4vxfpQynST4LzSvw22rYewY8sKfgriFc2LbP59GLZcAKSJaKjqeaHJjkU8hMJOrZQH4Lj7CKcsM5C9wA5l8cO7ZPIDZcw56aRazQrly2uAbDN06fIhTXBpB5KwNU5Q0yCCGAY6zJe3ne/ehHGGJKGBCZm6aOi2nYyBaO0Gp9B+eKrrSeCDoi+5DTRvYI2/oCF3PqTwuODGY4IZ+simJWR+t2lnxKZDaRUP3DMeAIKMNzSKtif8GIggwUiMynH1PaLlRrWisSxeR++9cSiK9iQzEwrzRMo1nTWdNRBJeyZz5Hgfi2o49RBKdP20c/pu4nHA8SDGLRWMGonCoMTqcwum40jLTlaNao38fwfpT28nE96j0NpNtlaZU3yESc96r6MbU6jowi32PsintCzgcvlCxihph2Ojpw3IcBUH1Xql/Dzvs/w3NIY6Zh+w8oGvXrqf5QiPOBFQWZicb3prVAfBWxfeszVMaDxgGDZz+AoYe7gLyeRvbHmwYa3utbnCvqGixX7Tv55BdWcHhVp5eoraPNJIp322UabVR0zL4IYecqZ4JEbTDo+KGiY9aZlSgMOETUmxh0iIjINz1xT4eIiC4HBh0iIvINgw4REfmGQYeIiHzDoENERL5h0CEiIt8w6BARkW8YdIiIyDcMOkRE5BsGHSIi8g2DDhER+aa7g47zT8e7/sx7Z9t1XlnRUsOeKo+z6VEx87OTx+vkNX0BR5tnP7arRICr9PHl5+y7+9oQ74Pn9ZLfwqxeA5ylBVznzHHNNJV5qGFPFcvsUtkNx/bsk/O6dxzLuY9212dVTzrWO0sitC5H4X1u2r22dutbnSvqCmY3+5Q2E7e+MRPpqlzwo/n41jfmzVubZr7ddj9smjdvfWM+/uF8x7vZyTE+i6r56rtvzJvfpc2fvvixPs+xf/rhR9levhdPfvwy3fvcPqXNhNXXT2kzYb2/P2yaN2/dMx8/uedxvVTNV9/dM199Ms38E/Ff0zTN/JP6Nen8d5MfNsX5+ZQ2X9n7/tF8bB27RZ/y6fp78lP6nsf+xXvX3F/xniSebNb369Gnpv216MdP6fo5+Sl9r+m9brW+1bmi7tDdmU6TQSy+dFTxzG+5RnCzeq1eThlWEbeadzsPomS1go11Z6VQwTXKdI3y3SNJ16hYTXqMWJ2jQ6ssduNyx8hR9n1WdWQYm1ueI0lXH1UdVXufScy6RqSyJpBdkE0eqyGz9DpPgeHBK1nSofq2jNhdWeNmII4Hqnx/hwxGUZQAAAjCSURBVOdQLmzj+5DHRpU3yESSmBo4RgZJu77O0N0VYP8NqhUdTwsreNKiSNnRQQkbdweBgTim7IJr1xBW2vdpKF4vmxG44dUxAEi4ymELg1gsnGDnbrDFNs6KqMdYk9ewdz9qeF0ax/fyGIF4EqqWxZG9Xev1nueqRY/o6umxoAPg6yBGAVEffnhOlJYunCCtArmFJex9PYfyywQAQH15IqoWerVrmhaySlaP405cVvE8kFMU+S1MasDouoFywcCGUt9mT52Bpu6iXDjB4bri3rcRwgO5HIYo7VvVlzBviL6VC7tQ7eP3Y0pzlspOYdIxhZKLJOvtNSBm71eUvq7qSUxqCaSt7Y1lPNL/YG8fWz2R5yWFpzowpcnXoazgsDAnyhAry8hZJbtfJpBbUDymnKwgO4PiutFUgvmyel8quX6/HvKoINug+jaLsFf58IEQwgDwsQxEynjkOeV1jExBlEh3yacwL6uSnt6nGvaeOaqQ2oOCJWB1zlHZtEONZbQhymt79+ODKPNuqwdLsV2L9a3OFXWN3gs6jeQHcVL7me0qb5AxgNGJ2whYHyAtK+bjD1IAFPnhl2WyAaAqtoEs8TyyYAAwUPwo96kEcR3O0aoMbPYo1flBFo42G8pYS6Oha/X2rv0aKH609ivLHMvtc6Xfy63Fl4sVsD3ls9BgvX7Uy2cfNN47EKPpcmEX4QWli+fsj/F8vz6SbyWnAQ+sAQ1m7CBd1beB+w2F/vJbCD4LNpV99iay0eJ9RwXTgTh2CicoF1aBpbPes2wIYBjEYuEcgevc21G36L2g87GMHIDwjX75BZ1FzJCj/hY6aSem1iBr2VvTXs4pNvnF7UVmOtbPqbXrZdBwsYIidhsyoLOQmY718/BX59pLZwYRUwEYZbz/gkf5XK6H3NNU70tGi5ZSPouiFYAbR+vO0bw6bn8BD40l5L9qeL0fck1/VfUkggfjKDsqzrbu0zHWIkvAaqtrSQx8iu+8p4k9Vd4gA4/Mq2U/riEccS79gKLrlLVY3+5cUVforaBT0TE7nQKUFXw/XBPpvSI+SK2/RDppZ02tyakle4pLjPTFl4kVgKysAkDgNmKOjAgAjvR2I3+ZJckpMSu7AmAHU9VrOudUVvblCJJ5/WxPlsnMJlf6ILcXmY865hyV17Cn15+KymjwDqCXUOAGMP9C9r2i46nmdU/E4rz3AQDXEC5s2+fz6MUyMHEbgeFxeR9DLj8oIfw1mqex8lt4hNWmqUjvPtWwp2YRKzgyHI/+vd43EL7hfS/JS/VtVvTZXnKMNXkvz7sf/QhDTAkDInPT1HExDRvZwhFarW9xrjruKV12X110B/yQW1AQXJC/qLv2h/fOhAIsLGMksoxRxZHBDCewoaQwPx1Fcd3Ak1btLPmUyGzUUP3DMSACSk7L4ujhHNJqCpPTUTEFpSgQmU8/hrRdFCMzmIyIhxegrOAw3vq1BOKr2NhXMK9EMe9cMTwOFSlo01FoitJ6GqzlfreRLkXtPgIKNozbbbbox9T9BOanlzESKSNdmMOisYKiMoOgnIIcXTeaR9r7M/X3AgmktfjV+EIZnkP6IIpgBBDnZrv1FFHlDTKRcezYC/oxtTqOWes9U3dRjoup1sWXWQQjUQDifO0MAEcvSojdrQeE6ruS+xqGuKe36NmnY2SMFOat6wkQ15QWwvPIDKzZ4dF1AzunZdQO70sGwmMtglSrc/NwF5lIFEG7D4MA6tOtQ57r0eJcUbfoM03TvOhO9Bb55BdWcHhVvnDpTI42kyjebZdptFHRMfsihJ0r8oAF0Vkx6PihomPWeXNfYcAhot7EoENERL7prQcJiIjoQjHoEBGRbxh0iIjINww6RETkGwYdIiLyDYMOERH5hkGHiIh8w6BDRES+YdAhIiLfMOgQEZFvGHSIiMg3DDpEROQbBh0iIvINgw4REfmGQYeIiHzDoENERL756qI78CV9+q/A3/y9if/0LyYue6m6vj7gX9/sw9//TR/+uz+76N4QEX0ZXV059N/8xsT/Ub5aL++vgn34337dd9HdICL6Irp6eu0//cvVCjjA1ewzEVGnujroXMUc7ir2mYioU10ddIiI6HJh0CEiIt8w6BARkW8YdIiIyDcMOkRE5JueDzpPF3+Bf5xpWDjzC/xxsfX/K/N08Rd4CgDowz9u9OFvv2D/iIi6SVf/RYJOPHgH/PFGH4D6s8pPbwBv/nc+u0xE9Ln1fNDBronf/aYPT2HiAQCgDyO/NPEiB5HxjNSbvvj1n2Qb0e4ff9OHvwDw+Dd9+Ot/9yf8x1/9Ao9vydX/xcQv10xg5hd4/+cmKrf68BfWMiKiHtXz02uAicP/AozIKba/fdCHgQ/Ab0f78H5EBJpf/vpP+Lt/Bu66ptxM/A+/NvG7/8/E3/36T/gfc8Bvn4q2v/z1n/ACffiHUdHyz2714fDXf2LAIaKex0wHzik24K+vAccZE3/7q18A/2zamc1vn5q4u4FT7t/Usx8A+N1/L/77Xx37ISLqZcx0ADHF9t/24ekoMAgT/zF3np304R82+lD5d/XMiIiI3Bh0AFhTbP9TrA/4APwWwG//swnc6pNPqYlpt7/4o1jXysC/Av6fHAD04a+vffFOExFdOQw60oN3wJ/9K+D4P8v7LjkTm/8M3P3NL/DH3/wCj6+Z+LumezImDv/Yh8e/+QX+YdTEC7t9Hwb+6PtLICK69Lq6ns4vf/2ni+7CufzxNxwLEFF34rcbERH5hkGHiIh8w6BDRES+YdAhIiLfMOgQEZFvujro9LX+Q9GX1lXsMxFRp7o66Pzrm1fvG/wq9pmIqFNdHXT+/m/68FfBviuRPfT1AX8V7MPf/80V6CwR0Tl19f8cSkREl0tXZzpERHS5MOgQEZFvGHSIiMg3DDpEROQbBh0iIvINgw4REfmGQYeIiHzDoENERL5h0CEiIt8w6BARkW8YdIiIyDcMOkRE5Juv/uX9p4vuAxER9Yj/H6kzLqZY/2RwAAAAAElFTkSuQmCC;" parent="1" vertex="1">
          <mxGeometry x="312.32" y="270" width="75.35" height="108.55" as="geometry" />
        </mxCell>
        <mxCell id="QvXtY8XGbGtVJBXb9xZ8-3" value="" style="shape=image;verticalLabelPosition=bottom;labelBackgroundColor=default;verticalAlign=top;aspect=fixed;imageAspect=0;image=data:image/png,iVBORw0KGgoAAAANSUhEUgAAAWUAAAFuCAYAAABZQgl4AAAgAElEQVR4nO3df1BV973/++eiNnzTjGRaf9SkmoOoePyRakwTxU4IJJPETMWcFr/eK97a7IQ0ZIIh1RuPP+LpOV8FEcd8g9KprUxJzEAmjFybQCYmjmVLbkBiUDwSM/6AkGgigtyOZJqU1LLuH2vtX7ARMMT9AV+PGafw4fP5rM9aNK/13p+1Acu2bRsRETFCVKQXICIiAQplERGDKJRFRAyiUBYRMYhCWUTEICM+Pns+0msQERGX9eWXX+otcSIihhhhWVak1yAiIi6FsoiIQUZERelZn4iIKVQpi4gYRKEsImIQhbKIiEEUyiIiBtFTPhERgyiURUQMou0LERGDqFIWETGIQllExCAKZRERg1yXodxRX8RTC+YSFz+dx/58kbY/ZzAtfi45hzojvTS5krqtzves7GKkVyLyrTEilDuaqihc7eHBudOJi59OXPxcHvTkU9PxLRyspYxnl2zlbR7kv3bm8W9jgBHRRH9vPDf/j2/heIPlswqemjudaY9soLThIm1vbeDeP3w0ePN31vLb2c71f6rii8GbV0QGZERkD9/Jh3/wsHhbPZ2MZPIDaTwdPxK+/Iwjhz6j7UsgZpAP2dyEF/jluuf5ZWK025hP/cJBPs4g+7BiOzf/ZxXvjH2H361/gDUtibz4/0wbtPk7P9hP6ZfRRH+vk7d3l3N2YRoTBm3269gn+/lt3k4uPfAHXvy30ZFejQwBEQ3ljrc2sHhbPdz3POV5acwY7AAOo+2zRgCib4ruo6dZZjz5DrkApJH7epr78WD5grdLS+ic+Twv/ryMZzdW4P0kjV/+y6Ae5Pp0sZ5X9n9E0n2RXogMFRHcvviIV/Iq6PyRhz+90Hcgt71XxLNLE5nm2954eitvnAraA/bvNzZxpmwTi+c6/Rb/537O/hPgIqXp05m7tgqAwqXTiYvPoLQF2soyiIufTk5dt7mKKijMcI6ZUxd6jA8LM5g7ezpxsxN5tqSJzn9epOZ3gbbHCj8isLov+LBsq38fO252Iov/s4wzX4aeY8dHZfzWs5DZ/i2cEs70d/w/v+DDim59VhdR09aPb0XLO/z5LZjw0B0s+mkqM6insCLM1sgnFfzW/R5MS0wjp6qe0vTpxMVv5UjIfLX87mn3PHqstZ6c+OnEpZdx5lQZv13irHf2kk28/Vno+RwpWe3/Pj64uoQzl3ouqaOhjBzfseLvYO7STZT6/39x0b++ms/2Bx1rK9426LzS8QfhPI7kTSduaREA3rWJofvh3+T7JcNa5EL5sxNUfwYT/s+FJHzvyl3PlmWQ6NmK93+k8F87i/jT5sWM+aCIZ5dkUdrtP6TGXc+x5mgcmZs3kn7n1xwpyeI3r50DRpKQWcSLHucl/0NriyguyiDh+70f17t5J62PvslHp06w7s7QY+T8bSEvbsoiIfoib/xnBk89/Rw55xPZ8sLzLBl3EW9eGjnv+cKhkX2725j8xFaKi4p40TOeD0s2kLKt1h/cbRVZJD6ygdL/bzq/3LyT4p2rSYr+go5+je/kyLalpKws4dz0DF4sKuLFzHl0vrOVZb/cypFu4d/j+v6lDC/jWZI4DeLmsWQmnN1TxYf/DOr01/08+8hqXvloDA+tzuNPqx+gdduT/PaDbpN9VsZjCzzs+jKF/1VURPGmVPjzBlJWVhCSN41F/Ob5eiZnbCXXM5vO+hKe+k0JZ90vf1i4lMX/WcGZ6R5yd24lffR+lq0s6bH2MwdKaI338GJREcUvPMqEj0pYs2QrNSHPbA/y2+ermJyxlf9aMo3O+iIeW5vBU+kVjF2+nRef7nn8wTiPyf9WRPHaBwCY4cmjuKiIzHkjv/H3S4Y5O1I+yLMnTplme/a0Xbnf3w/Z/zFrmj3xfxbbpy8HtR/faSdOmWb/65ajIfP9628P2n/39Tm/x/ZMmWZP/M079iW3qXXPk/bEKdPs7A8CU/Voc+eaGDxXcPuaQPvfD2502v5nsf1pUL9/nTLNTtx5IjA2eO12o73759PsiUk77Ybgc3woz677Wy/X4Urjm4vt1O7nbtv2pfJn+r7Gl0/YBUlBc9m23bDzAXvilNn2f/y/gdlO7/6FPXHKA3Z2TdAR/nbQWfeUPLvOuRp29f+a7cwVtF5n7C/s3Y22bdtH7ewp0+yJszbalf5zbbNfe3yaPXHKc/a+S7Zt//2g/R9Ten7PT+9e2vN8Qq5LYJ0FJ4Ln/YW962S3axdyft2OP1jnYdvh/3/+Tb5fMuxFbk/5ezFMANq+7ACu8ADko0OUfgkJixOZ/J2g9plzeQgoPNVIG7MZ4zYn3D4d/27xuElMBrwdHVzNm92SgucKbv9JoN23Nz0jZV7gwdiP4kgAvJcCR22rL+P1d2qpPNxI22cfceavAO66murxfgkzlqUyp5dXDVca33a0iiNA+oLEkPXG/CSRJPbjbTxHr9f4oypKP4MJWYnMcJtmJKYyYVs+r+yvZd1PE4nmCxqPfgR4SL4r6Ajfm86MnwBV/smoLuuEL/NJmZbf41Bn/xr0yU+mMcN/rqOZHA9UdXDpS6DpKKX0/J5Pnn4HUN/9wlBasZ/q9w7ReP4cHzY57xy5FFJtzmNOvP+qEP0DgFSSf+I7l27Hjxmk8+hlS+4bfb9k2ItcKMdNIwl4pXg/H6Y9yYzv9DnCaGO+1/umeNufM0hcXcsMz/Nkrkpj/KRoalan8ttDbocvOzgLJETfcHXjr1onNXt3Oi/Z81OJ654/JWW8nZXIou93csl9e2J0yPfp7/B1txm/BOY9T3l+So93b0T390HuP7+mE4j+Th/vUWyp4LEFq6mZ5uG/nljN8thJRL/3HCkba/txkGhirvCsd1DOQ+QqRG5POTqRJavioCmf3+RU0fbPXvrFTechoOadWveBnevUUWqACXdM91fJZrpIZUUVnaSxbm0qST+dzeQxnZz976AuU2azCKjZU8WZHteh7/Fjpt7BBODtytqQVwSdJ+rxAg9NnxR+aZ217HulE743myVPP8nTQf9+ed94YD9//stFnAowGthPTUPQ+M9q2RdyY5jEnQuBQ1V8+OVIYr4f+i+6vzfe25wbtrfqEMFvVf/w0P6Qbm3vVeD9En75fz/HkvvmMiduNJ3nu1XSV2WQzqMXV/39kutCRN8SNyN9J7lHU1jzSgZzy0Yz58EUEn50A/y1Ce/RaJ74Qx6Lxj3AE6un8XbeBlLSm1j3y0TG/rWKXXlFfPj9VH6fNnjv1f12RHNzDMAedhXOZfm0Do68UoL3+4DvJXbMAzyxKo43tm0i5Rf1rHoilRk0sq/iCx7Zmdb3+GlprEv9E08VZbC47RmeSJ0OH5Wxq6CC6GnPkfnwyLAr69hfxivAhCc2kPt0t+v4yRg+/MsmvK+9w9nUNOakZDC5MJ9t/1calzZkMJ9aduUfpXMm4A/qkSQtf5LJFX9gzS88nFntIXlcNG2f7OfPXyzkT0/O7t8lG3Mv/8fCaLwVq1l8uY3MtEn8vWonrx8dDZwLXFn31Unp7iLm/306HfVF7P7LmJA+V2eQzgPg+z9iBuDdlc8r358N/7yXXz5wdd8vuT5E9if6vjOeJb+rovwFDw/9C3z45yJ+97s/UPiXc8RMnc0k950RM9JLKH/BQ8L5PazJ8PDYxnI6732O4oqNPHSFd0+YYSQPrd1J+p3RePMyeGxtBdGZm0jvVgzNeLKMd17wkNR5kJyVHpZtLOHMuDgm9Gv8SB7a9CbFqx8g+oPtPOvx8OyuE4xPy6P8VU8vW0PneH33fmA26QvD3Nj+JYXlDwP1L/FGAzDtSYp3Z5EU8xGFazN49rVOHincxJIfhA6Lnp3FntLnWRTXyCtrM1jmySD7tTYmTxs/sGu2qYzctNm07t/Ks08/z76YLF5ceUdIr5gHV/On9NlEH9zKY08/x5+js8h9Im4Ax+nd4JwHEJdK7upExrSU8duV+Zz5TjRX9/2S64Vl27Yd6UVIsHpy4ncyuWonS8ZFei19qWfb7DR+95ON1BamGr6NJDI0GPG7LyTYaO70xPDKI6n8rt7sX5DUWVVB4ZdDYV9fZOiI8O++kJ7G89DajUR33sFTBz/i6dkD2L/8NrVU8OzGembel8iMcR2c2V/GtpJaOr+XyKpU0/f1RYYOhbJh2t7awGP573A2Jo0X/7chgQzwvfFMoYhdG0ucXxT1/TgS/u05Mld6SDB+m0Vk6NCesoiIQbSnLCJiEIWyiIhBFMoiIgZRKIuIGEShLCJiEIWyiIhBFMoiIgZRKIuIGEShLCJikIj9mPWh2vcjdWgREWPpx6xFRAyi7QsREYMolEVEDKJQFhExiEJZRMQgCmUREYMolEVEDKJQFhExiEJZRMQgCmUREYMolEVEDKJQFhExiEJZRMQgCmUREYNEMJTryYmfTlzQv8fKLvYx5iKl6Vs5MtBD1W0lLv4qxg3YVa4vUses20pcehltg70kEblqka2UEzdSe+oETadO0HSqigVvJRKXVz/ohzlyoIikxEYK+gz968VFStOnE3cA0iO9FBEJYdD2xWiWFJaQXriT0hZoK8sIVNF59ThBksiaqiIWx08npy5cn3Dq2XdqI1s2PQBvHQypCo/k+ar0DHLyMsipc79Qt7VH9X4kL4PSskC7v29wxZ9exBnCtMdnUNoCvqq21LfuvHpoKeOxkD6+fr6xbhXcUsZjeWWB9vQy2sJcE+h2XcJWwqNZUniCptUPDPi7JCLfMjtijtrZj++xW7u11m150n7tfG9tbfZrj+fZdWFmCzfOtm3b/iDP9uxpc8cG9fkgz57oP36b/drj0+zsD2zbPr/H9mw52mPeui3T7Im+9vN7bI87tm7LNHd+t31KmPX553SO4+tft2VaYA0f5PnnDzkX39jze2zPlEB73RZ3vd2vSch5dVtfD+G/ByISORH7c1B9qycnPo1C97P0+4FxA+9z5EAjC5aPBiD5Yfj39y6yJHU0Rw4Ukf7UCcYAMJrkhxM5A7S9tx9v4QbiCgNzpN8Pk0kkd/lsp2HcvSyIPwjUs6/QQ+ap0YH2xCb/uLayDOaurXI+SdxIG+MBD5mpTv8JkxJJvz/VWcOdD5B+AHfOKgoLp7PGN1HiRqfaTc9giXt+c+73sC/MVQs9L5izfCPsPgeMDtNbRExjWCjXs69wEgtWX6Q0fSeTq07QNM4Jt109+vajT0sZBYVVeEMC7iBtqalXXEXS5ir+lBoaYkcODPBU6rYytzGDplM7gXpy0hsHMNjDnlPPMSe4qaVsgAsQkaHIoD1lp+o9s9nDHM5xpmoSk8cBXKTyraow/fvu0/befthc5T5IdP7tid/ArjqnSi084NuHDowfEzsJ79qifr6bYTyTE4vY59tfbjnIPncZbc2NJE0a73xSt5/CsON7n/NqH0rOud9D4e8D+8hHdm8A3zpExHiRDeWqDcz1PwxLg1dPuBXqbJ7Y3Mji+OnExT/PmfhEd8Bokh9udB9q9dbH5yKVb8GCn4ZWvHPu91B4oJ4xqZvIPZXmHjto/J3PUeufd3ofb6UbzZJNGzmz1O37fBOT3WnGpGYweW2i0z6gdzk4Dzz9Y/t8q2DwNXHWvyc+cF0XU9Kj6hcRc+mvWQPOVsjzsGmnf89WRCQSDNtTvobqthK3tMj/afqrJ1inQBaRCFOlLCJiEIMe9ImISMS2L/5x+TKfft5Kxxd/i9QSRGQYiBl5E7fdOpbvjhgeu7ER275o/PRzbhgxgujoGyJxeBEZJjo7v+bry5eZdNutkV7KoIjY9kXHF39TIIvINxYdfcOwesWtPWUREYMolEVEDKJQFhExiEJZRMQgCmUREYMolEVEDGJ4KDewPWE+89x/248FvtJesSpsOwCt5awsaOi937Ed/raw44/tYGVFe2g/d77u41dWtPtWxBsrfXOu4o3Wnuuct7KcdnrTwPagcaHz9TVWRIYLw0N5Js/UVHOopppDr6+lOWMHxwFay8lu9vRsdx0v3UzsPTOv2C9tpztvTTXPzAo+ZjtvvNxM0t3wxtlkf59d/NoN7wa2vxzLmzXVHKr5I7HZOU6QHquGNb61JuHNdUJ01MJtgTniNpNd0TNaneCuhGXdvhC31j1ONYdeSGFUmCsU/uYUHOih10ZEzGZ4KHezLJnbgfb3m0laMtNpG5uCZ9mrVPoDqYHKprUsm9VXv160VuON87Bo7CgWLZzpb741NsH54Fgl/MoXkDNZth6877fDrBQWjXU7j51IbNjJE0i6u2e0OsG9guQ+L4Abwr6qvZebTntFDs2/csL8zfXNPBFc5YuI0YwPZX8lmAvrM52Q/Ly5OaSPPzABjlXSfN98Rl2hX/vZZkoywm8LtL/vdarsEA0UZ8eSPMsZG2zUhJ7x215R5F9D8BZM5T3bAsHdp/M0F2/mZ2G2WObH3uKuNdxNp533mpNY5lb/oxZ6SCuuVLUsMkQYH8r+l/9rILvPl+LtvPEyeBaGe6EfZs6aat68z8vP/JVkA8V/CQSar217QhGxr6/g9n6st71iFT9r9vCCfw2BLZjkd4P3oPsStHVT80fIcPabRy3c5p87/E3nPM1Nwa23EHzPEhGzGR/KfmPnk5TQzMetcGtsaHX6eXON80FrNd64ZH949tovyKi7k5jv+ySoynbmK2dlQiXJNYEKt3tlHFw5Hy+YTzbrOJTZvdJ23H7PUqqbz/dxouHMJLn7frOIDEtDJ5Rbq/HWxDJxLIyaADmlgX3VouKlJM+C46XewMt5eu8X7HjpZoi9hZ5VdgPbc2F9TbcK+ZZYml/2bXk0UJwNSXePor1iFZX3VAdVyD0df/dV/9bDwM69nKJi59zbK1b5q+3wN51biI0Lbj1PmHuRiBjK7F9AemwH8zJedT9JYN3r25yAnLWCXe/OZ15CcHsD25uSWBa8Zxu2n1PRPlHs9ln2Rw4tHAWt5XjjklnkG9v6Mc01m/lZwubAfMv+yKHMFNbft8rfnrazmkVj4XhzDSXZ8ynxd05g3evrIDeFnJpux+qP1nJWPrKZ6m7nHrz54bvpLMqc6b/peDJHwbubKT6WwjOznP3tkmUenunfUUUkwiL2+5SPfniaH40bM2jztVesonjCtm5vb+u/4wWr+HjJQB7EmSFwg3GC21l/A9sTfu3cIBLW8mYvb6cTGS4+a2njjhlTIr2MQTFsQllErl/DKZSHzp6yiMh1QKEsImIQhbKIiEEUyiIiBlEoi4gYJGKhHDPyJjo7v47U4UVkmOjs/JqYkTdFehmDJmJvifvH5ct8+nnrsPrT4CJy7cWMvInbbh3Ld0eY/bNw/RWxUD5/CR59yebQxzaRWcHwZlkwb6LFS49a3HJzpFcjIv0VsVB+KN+mpklp/G1LiLN4O8uK9DJEpJ8itqd86GMF8rWg6ywytEQslLVlcW3oOosMLXpLnIiIQRTKIiIGUSiLiBhEoSwiYhCFsoiIQQwPZYvD+VF0BP0rGIw517nv202L4mzmYLyHt+c6+57X4nCuxYoBHmlFZhQd6/S+Y5HhyvyfS/zKZv0amx2RXkdfQtZpUZ5r0bEOYnIG6z1pFofzLcZdgEuDNKOImMf8UA4nLYqOuc6Hl07bTCiwQ9q4YBOTY7MiM4ps31+IuUK4H86PYmrQOCBk7MnaLu4qcYKWc3DvFDi4t4sUb28LtElZA4fzLcqTbN6ZGbSOCzYxOc7XpgLZ+RYP7u0K06d7mNvclWVDksXZ+QO5WCIylBi+fQHcaJHt2xbItViBxeG5sDuri5isLieQkyzOBrXF5DghnT3eZr3btrvDYnWYLYWbp1jUZnURk2VzMMaiPAlIi2I1tjNXlk3LjwPbJrPd9t4D2cem9oLz0Y4Cd11ZXezGCeq7smxOfuWsL8Ubrs8gXkMRGTLMr5TDVLhTL1gsz7U46bavmGnBaZvMoD4FsXDyvwPjMqttHglTYV7yj7N555zFg+7Ym39o0ZEfCPGDbki+XnA12xGWvzIGOHnr1fYRkeHO/Eo5jMycLmL2wep+PVC7OidrA5Vr/yrj7izm/hA+8TrbHi17nXnWnw7ft+8+InI9GJKhDIDXZsJeG2JgR4MNU6yQd2ZkNsPUHwfe3VAw34KO/k19siN07MC5D+XcKnzcjfCJ12l/cHz4Ef3pIyLDn/nbFzdaZOdbZLufHtxrM+7ngZf5B/d2gRfyZjp7z8vBfVDWxe7YqMDYCzYxBTbQd2W9o6CLqeuCxn5ls37NwNZ5sraLCSXOx7tPB9Z28oJvgE1tR5T/QV/4PiJyvYnY71OOyeqKxGGvSx35Q/cFkcj1Rv+1iogYRKEsImIQhbKIiEEUyiIiBlEoi4gYJGKhbOkXnV0Tus4iQ0vEQnneRKXFtaDrLDK0RCyUX3rUIiHOUiX3LbEsSIizeOlRXWCRoSRiPzwiIiI96UGfiIhBFMoiIgZRKIuIGEShLCJiEIWyiIhBFMoiIgZRKIuIGEShLCJiEIWyiIhBFMoiIgZRKIuIGEShLCJiEIWyiIhBFMoiIgZRKIuIGEShLCJiEIWyiIhBFMoiIgZRKIuIGCSCoVxPTvx04oL+PVZ2sY8xFylN38qRgR6qbitx8VcxbsCucn0ROOaRvMB1z6n7VhYmIlchspVy4kZqT52g6dQJmk5VseCtROLy6gf9MEcOFJGU2EhBn6F/nWgp48z9vuteAkuv9Y1ERHpj0PbFaJYUlpBeuJPSFmgrywhU0Xn1OBVhImuqiljsVnc9+4RTz75TG9my6QF46yBtQV8JVIsZ5ORlBCrGuq09qvcjeRmUlm0NU10GVfzpRZwhTHt8BqUt4KtqS33rzquHljIeC+nj6+cb6wZmSxmP5ZUF2tPLaAtzTaDbdUkvCzlnAMalsuRO3yfjmZw4kO+TiHyr7Ig5amc/vsdu7dZat+VJ+7XzvbW12a89nmfXhZkt3Djbtm37gzzbs6fNHRvU54M8e6L/+G32a49Ps7M/sG37/B7bs+Voj3nrtkyzJ/raz++xPe7Yui3T3Pnd9ilh1uef0zmOr3/dlmmBNXyQ558/5Fx8Y8/vsT1TAu11W9z1dr8mIefVbX3hBB1XRCJvRKRvCr2rJyc+jUL3s/T7gXED73PkQCMLlo8GIPlh+Pf3LrIkdTRHDhSR/tQJxgAwmuSHEzkDtL23H2/hBuIKA3Ok3w+TSSR3+WynYdy9LIg/CNSzr9BD5qnRgfbEJv+4trIM5q6tcj5J3Egb4wEPmalO/wmTEkm/P9VZw50PkH4Ad84qCguns8Y3UeJGp9pNz2CJe35z7vewL8xVCz0vmLN8I+w+B4zu2bluK3G/j6O2cHaYmUQkEgwL5Xr2FU5iweqLlKbvZHLVCZrGOeG2q0fffvRpKaOgsApvSMAdpC019YqrSNpcxZ9SQ0PsyIEBnkrdVuY2ZtB0aidQT0564wAGe9hz6jnmBDe1lA1wAVfWVpbhrE+BLGIUg/aUnar3zGYPczjHmapJTB4HcJHKt6rC9O+7T9t7+2FzlftAy/m3J34Du+qcKrXwgG8fOjB+TOwkvGuL+vngazyTE4vY59tfbjnIPncZbc2NJE0a73xSt5/CsON7n/NqH0rOud9D4e8D+8hHdm8A3zp86rby72yiabUCWcQ0kQ3lqg3M9T8MS4NXT7gV6mye2NzI4vjpxMU/z5l435Oo0SQ/3Og+1Oqtj89FKt+CBT8NrXjn3O+h8EA9Y1I3kXsqzT120Pg7n6PWP+/0Pt5KN5olmzZyZqnb9/km/0OzMakZTF6b6LQfgPR+XxTngad/bJ9vFQy+Js7698QHrutiSnpU/W3NjXiD5tfb4kTMYdm2bUd6EZF3kdL052HTTv+erYhIJBi2p3wN1W0lbmmR/9P0V0+wToEsIhGmSllExCAGPegTEZGIbV/84/JlPv28lY4v/hapJYjIMBAz8iZuu3Us3x0xPHZjI7Z90fjp59wwYgTR0TdE4vAiMkx0dn7N15cvM+m2WyO9lEERse2Lji/+pkAWkW8sOvqGYfWKW3vKIiIGUSiLiBhEoSwiYhCFsoiIQRTKIiIGUSiLiBjE8FBuYHvCfOa5/7YfC/1qe8Uq5hU09BzWWs5Kt729YlXP8cd2+NvCzcuxHaysaA/tF3ycoPaVFe2+1fDGSt+cq3ijNWiNvjlWltNObxrYHjSu55w7ON7H1RKRoc/wUJ7JMzXVHKqp5tDra2nO8AWTE9bZzbHMDzPqeOlmYu+ZCa3lZDd7woyHtJ3uvDXVPDMreHQ7b7zcTNLd8MbZZH+fXfzaDe8Gtr8cy5s11Ryq+SOx2TlOkB6rhjW+tSbhzXUCeNTCbYE54jaTXdEzlp3groRl3c6jIAXvfeXu+BXcHuZcw950FOYiQ5bhodzNsmQ3mJywfmFJbJhODVQ2rWXZLGh/v5mkJTOd5rEpeJa9SmX3qri71mq8cR4WjR3FooUz/c23xiY4HxyrhF+lMMpdx7L14H2/HWalsGis23nsRMKtDBJIuntUj1YnuFeQHLKOcoqa1rJ+YWj/kFcHvdx02ityaP6VcyN4c30zT4R7NSEiRjI+lP2VYC6sz5zZ94BjlTTfN59RwOfNzSFf8gVr+9lmSjLCbym0v+91quwQDRRnx5I8yxkbbNSEnvHbXlHkX0PwFkzlPdsCwd2X880Q10x2mO2T+bG3uGsNd9Np573mJJa51f+ohR7SiitVLYsMEcaHsv/l/xrI7vOleDtvvAyehT2r0bBz1lTz5n1efuYPvAaK/xIINF/b9oQiYl8Pv33QYwUVq/hZs4cX/GsIbMEkvxu8B9236mLwdNs+GbVwm3/u8Ded8zQ3Bbfegq/IFxHzGR/KfmPnk5TQzMetV+jTWo03LtkfnrfGhlaxnzfX9Bgy6u6kwL50UJXtzFfOyoRKkmsCFW73yji4cj5eMJ9s1nGol4r+9nuWUt18/gon0M2ywLncfs/S/o8TkSFr6IRyazXemlgmXuHl/9R0zFkAABTvSURBVPFSb+DlPDBqAuSUBvZfi4qXkjyr+5jNEHsLPavsBrbnwvruD9huiaX5Zd+WRwPF2ZB09yjaK1ZReU91UIUcZn3vvurfeujTrOSQbYfj7zYTe4tTifuq7fA3nVuIjQtuPU+Ye5GIGMrsX0B6bAfzMl51P0lg3evbrrCF0EBlUxLLgkN71gp2vTufeQmh448XzOeJYrfPsj9yaOEoaC3HG5fMIt/Y1o9prtnMzxI2B+Zb9kcOZaaw/r5V/va0ndUsGgvHm2soyZ5Pib9zAuteXwe5KeTUdDtWv8zkmZ2VzEtw6vj568t5YSwh+9++m86izJn+m44ncxS8u5niYyk8M8vZ3y5Z5uGZfh5VRCIrYr9P+eiHp/nRuDGDNl97xSqKJ2zr9va2/jtesIqPlwzgQZwhAjcY56bjrL+B7Qm/dm4QCWt584UU+nsrEBmKPmtp444ZUyK9jEExbEJZRK5fwymUh86esojIdUChLCJiEIWyiIhBFMoiIgZRKIuIGCRioRwz8iY6O7+O1OFFZJjo7PyamJE3RXoZgyZib4n7x+XLfPp567D60+Aicu3FjLyJ224dy3dHmP2zcP0VsVA+fwkefcnm0Mc2kVnB8GZZMG+ixUuPWtxyc6RXIyL9FbFQfijfpqZJafxtS4izeDvLivQyRKSfIranfOhjBfK1oOssMrRELJS1ZXFt6DqLDC16S5yIiEEUyiIiBlEoi4gYRKEsImIQhbKIiEEM/xEYi8P5FlODWnZndZH5TedcB3fl2JAWxdkf2Ewo+KZvUei5zkun+5rX4nAu7F5js6OfxyjPtbj3Ruezg3u7SPFe9YJFxFCGhzLwlc36fgdXBIWs0wnQjnUQkzNI70lLA/Z1EeMFkizOLrBY4R0C10VEBsT8UA4nLYqOuc6H/oo0qI0LNjE5Nisyo8j2/YWYK4T74fwop8p1xwEhY0/WdnFXiRO0nIN7p/RVqdqkrIHD+RblSTbvzAxaxwWbmBz8lXV2vsWDe7vC9OkW5iU2Kb6PvdCyoJ/XSkSGFPP3lG+0yM6PoiM/io5cixVYHJ7rbGPEZHU5gZxkcTaoLcbdmsgeb7PebdvdYbE6s+ePG988xaI2q4uYLJuDMRblSUBaFKuxnbmybFp+HEWB23+229731oFN7QXnox0F7rqyutiNE9R3Zdmc/MpZX4o3XJ/eZ16RaTHuHKqSRYYh8yvlMBXu1AsWy3MtTrrtK2ZacNoO2WsuiIWT/x0Yl1lt88j8ntNf8o+zeeecxYPu2Jt/aNGRHwjxg25Ivn5V+8+he84nb73aPm4FHxOmkhaRYcH8SjmMzJwuYvbB6vwozoapfgfDydpA5dq/yrg7i7k/hE+8zrZHy15nnvWnw/ftuw8UrHMreAWyyLA1JEMZAK/NhL02xMCOBhumWP4tBoDMZpj6Y4sV7ucF8y3o6N/UJztCxw6cU/WOc6vwcTfCJ16n/cHx4Uf01WdFZhRzm7sG4Z0iImIy87cvbrTIzrfIdj89uNdm3M8DL/MP7u0CL+TNdPael4P7oKyL3bFRgbEXbGIKbKDvynpHQRdT1wWN/cpm/ZqBrfNkbRcTSpyPd58OrO3kBd8Am9qOKP+DvvB9AqbGwNQpQQ8z0dviRIajiP0+5Zisrkgc9rrUkT90XxCJXG/0X6uIiEEUyiIiBlEoi4gYRKEsImIQhbKIiEEiFsqW/sDyNaHrLDK0RCyU501UWlwLus4iQ0vEQvmlRy0S4ixVct8Sy4KEOIuXHtUFFhlKIvbDIyIi0pMe9ImIGEShLCJiEIWyiIhBFMoiIgZRKIuIGEShLCJiEIWyiIhBFMoiIgZRKIuIGEShLCJiEIWyiIhBFMoiIgZRKIuIGEShLCJiEIWyiIhBFMoiIgZRKIuIGEShLCJiEIWyiIhBIhjK9eTETycu6N9jZRf7GHOR0vStHBnooeq2Ehd/FeMG7CrXd82PGXrtc+q+paWJyIBFtlJO3EjtqRM0nTpB06kqFryVSFxe/aAf5siBIpISGynoM/SvF7NZ57vuVRs5s/Ra30hEpDcGbV+MZklhCemFOyltgbayjEAVnVePUxEmsqaqiMVuddezTzj17Du1kS2bHoC3DtIW9JUjeb5qMYOcvIxAxVi3tUf1fiQvg9KyrWGqy6CqM72IM4Rpj8+gtAV8VW2pb9159dBSxmMhfXz9fGPdwGwp47G8skB7ehltYa4JdLsu6WUh5xxW+gPM6fsbJCLXgh0xR+3sx/fYrd1a67Y8ab92vre2Nvu1x/PsujCzhRtn27Ztf5Bne/a0uWOD+nyQZ0/0H7/Nfu3xaXb2B7Ztn99je7Yc7TFv3ZZp9kRf+/k9tscdW7dlmju/2z4lzPr8czrH8fWv2zItsIYP8vzzh5yLb+z5PbZnSqC9bou73u7XJOS8uq0vSOueJ+2JU6aF9BWRyDOoUu4uUGkuLqzizGdX1+fIgUYW/HQ0MJrkh2Hfe27le6CI9KdSGQPu1xIBaHtvP97CNH+lGZg3kdzls51Jx93Lgnjn+PsKPWSmjg60JwaO7a9YEzfgPdXoVqyB/hMmJQbWcOcDpOObs4o1idN7jk3PYMk4Z+4593vCXrXQ84I5yzdC47ke/cak7nS2LzbBv1+T/XYR6Y8RkV5AqHr2FU5iweqLlKbvZHLVCZrGOeG2q0fffvRpKaOgsApv4XTW+NoSD9KWmnrFVSRtruJPvqB1HTkwwFOp28rcxgyaTu0E6slJbxzAYA97Tj0XuqXQUjbABfTTuHtZkLifMy0wZ9y3cwgR6T+DKuV6cuLTOLPZwxzOcaZqEpPHAVyk8q2qMP377tP23n7YXOU+SHT+7YnfwK46p0otPODbhw6MHxM7Ce/aon5WjuOZnFjEPt/+cstB9rnLaGtuJGnSeOeTuv0U9u8i+Oe82oeSc+73UPj7wD7ykd0bwLeOcFoOss9/HUUk0iIbylUbmOt/GJYGr55wK9TZPLG5kcXx04mLf54z8b49gdEkP9zoPtTqrY/PRSrfwt26CJhzv4fCA/WMSd1E7infNkXQ+Dufo9Y/b9CDtrBGs2TTRs4sdfs+38Rkd5oxqRlMXpvotB/A3ZroD+eBp39sn28VDL4mzvr3xAeu62JKelT9wQ8y4xL3s6DqOT3oEzGEZdu2HelFRN5FStOfh007/Xu2IiKRYNie8jVUt5W4pUX+T9NfPcE6BbKIRJgqZRERgxj0oE9ERCK2ffGPy5f59PNWOr74W6SWICLDQMzIm7jt1rF8d8Tw2I2N2PZF46efc8OIEURH3xCJw4vIMNHZ+TVfX77MpNtujfRSBkXEti86vvibAllEvrHo6BuG1Stu7SmLiBhEoSwiYhCFsoiIQRTKIiIGUSiLiBhEoSwiYhDzQ/nYDuYlzGdewnxWVrSHfKm9YhXzChp6jmktZ6Xb3l6xyj9++7H+zcuxHU5bUJ+Q44Qd284bK92+Cat4ozVojb45VpbT7UhBGtje27je1ikiw47hodzA9pdjebOmmkM1fyQ2O8cNrQa2J8wnuzmW+WFGHS/dTOw9M6G1nOxmD4dqqjn0+lqaM3ZwHJzQzoBdNdUcqqnmhYWjgka388bLzSTdDW+cTXbG1lSzi1+7od7Lmo5Vw5pq91hJeHOdAB61cFtgjrjNZIcJVieAK2FZoC143KGactYlLMUTss7gsd1vOsE3CPecRWRIMDuUj1XCr1Jwomgmy9aD9/12YCbP1FTzwpLYMIMaqGxay7JZ0P5+M0lLZjrNY1PwLHuVymNuaO9cwe3hjtlajTfOw6Kxo1i0cKa/+dbYhCuvaVYKi8a6ncdOJNzKIIGku3sGqxPAK0ju9TqU4L0vjdvp9uqgl5tOe0UOzb9yAv3N9c08Ee7VhIgYyehQbj/bHPL5qAnhoy7EsUqa75vPKODz5tDxTrC283HTUni351YDQPv7XqfKDtFAcXYsybP6t6b2iiL/GnxV/byE+VTesy0Q3P3WzhsvE1Ilz4+9xV1ruJtOO+81J7Fslru+hR7SiitVLYsMEUaH8sD1DLDwXqU5trzHVgM0UPyXQKDhtm1PKCL29V4q6+4rqFjFz5o9QVsiTlV/qKaa5HevYl/4WAk5ccn+Y49auM0/d/ibznmam4Jbb8FX5IuI+YwO5e5VaPcqtYfWarxBAXZrbOj4z5tr3I+CthHGzicpzm0OqrKd+cpZmVBJck2gwr3Smo4XzCebdRzK7F5pO26/ZynVzeevfA7dHH/3VdJ6VO4iMlwZHcrcEkvzy0FVbDZh92R9jpd6Ay/ngVETIKc0sP9aVLyU5Fmj+Ol9vr1pnCBnIqN6VNkNbM+F9TXdKuRe1tResYrKe7o/NOy2vndf9W899E8DlcVLSQ6q3NsrVvmr7fA3nVuIjQtuPY//XiQixjP7F5COTWH9fav4WcJmANJ2Vl9hT7aByqYklgV/fdYKdr07n3kJAAmse32bE7AL15G0MoV52QBL2VWTAq3leOOSWeQb2/oxzTWb/ccGYNkfOZQZfk3Hm2soyZ5Pib9zAuteXwe5KeTUBI3vc2slSOvHNCfE0tsvJPTddBZlzvTfdDyZo+DdzRQfS+GZWc7+dskyD8/0/6giEkER+33KRz88zY/GjRm0+dorVlE8YRvPzOq7bzjHC1bx8ZKreRAXWccL5vNEMfhuOs76G9ie8GvnBpGwljdfSGEAtwKRIeezljbumDEl0ssYFMMmlEXk+jWcQtnsPWURkeuMQllExCAKZRERgyiURUQMolAWETFIxEI5ZuRNdHZ+HanDi8gw0dn5NTEjb4r0MgZNxN4S94/Ll/n089Zh9afBReTaixl5E7fdOpbvjjD7Z+H6K2KhfP4SPPqSzaGPbSKzguHNsmDeRIuXHrW45eZIr0ZE+itiofxQvk1Nk9L425YQZ/F2lhXpZYhIP0VsT/nQxwrka0HXWWRoiVgoa8vi2tB1Fhla9JY4ERGDKJRFRAyiUBYRMYhCWUTEIAplERGDGP4jMBaH8y2mBrXszuoi85vOuQ7uyrEhLYqzP7CZUPBN36LQc52XTvc1r8XhXNi9xmZHfw6RZHH25xa+nwM5uLeLFO9VL1hEDGV4KANf2azvb3BFUsg6LcpzLTrWQUzOIL0nzWszwevOlRZFxwKLFd4hcF1EZEDMD+Vw0qLomOt86K9Ig9q4YBOTY7MiM4ps31+IuUK4H86PcqpcdxwQMvZkbRd3lThByzm4d0pflapNyho4nG9RnmTzzsygdVywicnBX1ln51s8uLcrTJ8rh/mlcyiQRYYh8/eUb7TIzo+iIz+KjlyLFVgcnutsY8RkdTmBnGRxNqgtxt2ayB5vs95t291hsTqz548b3zzFojari5gsm4MxFuVJQFoUq7GdubJsWn4cRYHbf7bb3vfWgU3tBeejHQXuurK62I0T1Hdl2Zz8yllfijdcn54zFqxzr0PsYGy5iIiJzK+Uw1S4Uy9YLM+1OOm2r5hpwWk7ZK+5IBZO/ndgXGa1zSPze05/yT/O5p1zFg+6Y2/+oUVHfiDED7oh+fpVhWHonvPJW6+uT2aOu5+eFkVHLkNjW0dEBsT8SjmMzJwuYvbB6vwozoapfgfDydpA5dq/yrg7i7k/hE+8zrZHy15nnvWnw/ftu0+QEpuTN4Y+WBSR4WFIhjLgPPjaa0MM7GiwYYrl32IAyGyGqT+2WOF+XjDfgo7+TX2yI3TswDlV7zi3Ch93I3ziddofHB9+RH/6+KVZTP3K5uRVr09ETGX+9sWNFtn5Ftnupwf32oz7eaBKPLi3C7yQN9PZe14O7oOyLnbHRgXGXrCJKbCBvivrHQVdTF0XNPYrm/VrBrbOk7VdTChxPt59OrC2kxd8A2xqO6L8D/rC9wkIeWgJ7M7S1oXIcBSx36cck9UVicNelzryh+4LIpHrjf5rFRExiEJZRMQgCmUREYMolEVEDKJQFhExSMRC2dIfWL4mdJ1FhpaIhfK8iUqLa0HXWWRoiVgov/SoRUKcpUruW2JZkBBn8dKjusAiQ0nEfnhERER60oM+ERGDKJRFRAyiUBYRMYhCWUTEIAplERGDKJRFRAyiUBYRMYhCWUTEIAplERGDKJRFRAyiUBYRMYhCWUTEIAplERGDKJRFRAyiUBYRMciISB34/CV49CWbQx/bmP4bnS3L+QseLz1qccvNkV6NiAxnEfsl9w/l29Q0GZ7G3STEWbydpb/kISLfnohtXxz6eGgFMgzNNYvI0BKxUDZ9yyKcobhmERla9KBPRMQgCmUREYMolEVEDKJQFhExiEJZRMQgRodywbooDqd1a0yLomNd7+8VLlgXRQEAFodzLVZ8i+sTERlsEfuJvv7IbIaOWAsIvBetIBYOVuu9aSIyPBkdypTYnMy3KMAmEwCLuTE2u704FfPcQNfdWV1uH6ff4XyLqUB2vsWDe7t4Z2YU2VPcL1+wicmxIS2Ksz+waZliMdXXJiISQUZvX4BN7QWY625hrMi0GHcOdiRZnJ3rBHFMVhfrT8PykC0Nm7uybE5+ZbM+q4sUL+wocPrGZHWxG4vyJKfnzVMsarO6FMgiYgSzK2WCtzDgwfFQv89mxcwoOG37K+MdBTbLc+lj/zhQPQOcvNX530tB84iIRJrhlTLOFsYPLQqSYDY273ivZhKL8lyLlr2BylpExETmh7K7hfHIAgvOwQ5gR4MNUyz3XRbOtsbUDudrvRl3I3ziBbB4cPy3vmgRkasyBELZ2cK4+Uaob3D3fb02eadheX4UHflRZI+3Wd9jT9imtsMiOz+K8iSb3f7+FuM6rvkpiIj0S8R+n3JMVlckDvuNdeQPifuYiAxRShgREYMolEVEDKJQFhExiEJZRMQgCmUREYNELJStIfhHoYfimkVkaIlYKM+bOPQSbiiuWUSGloiF8kuPWiTEWUOi+rQsSIizeOnRIbBYERnSIvbDIyIi0pMe9ImIGEShLCJiEIWyiIhBFMoiIgZRKIuIGEShLCJiEIWyiIhBFMoiIgZRKIuIGEShLCJiEIWyiIhBFMoiIgZRKIuIGEShLCJiEIWyiIhBFMoiIgZRKIuIGEShLCJiEIWyiIhBFMoiIgZRKIuIGEShLCJiEIWyiIhBFMoiIgZRKIuIGEShLCJiEIWyiIhBFMoiIgZRKIuIGOT/Bys7NHjugcYAAAAAAElFTkSuQmCC;" parent="1" vertex="1">
          <mxGeometry x="459.67" y="149.12" width="69.35" height="71.1" as="geometry" />
        </mxCell>
        <mxCell id="QvXtY8XGbGtVJBXb9xZ8-6" value="&lt;font style=&quot;font-size: 8px;&quot;&gt;ConfirmaÃ§Ã£o&lt;/font&gt;" style="text;html=1;align=center;verticalAlign=middle;resizable=0;points=[];autosize=1;strokeColor=none;fillColor=none;" parent="1" vertex="1">
          <mxGeometry x="455" y="128" width="70" height="30" as="geometry" />
        </mxCell>
      </root>
    </mxGraphModel>
  </diagram>
</mxfile>
